<svg width="33" height="32" viewBox="0 0 33 32" fill="none" xmlns="http://www.w3.org/2000/svg">
<path d="M8.5 9.33328L19.34 4.51994C19.6524 4.38017 20.0066 4.36588 20.3293 4.48006C20.652 4.59423 20.9184 4.82811 21.0733 5.13328L23.1667 9.33328" stroke="#2CA9BC" stroke-width="1.67" stroke-linecap="round" stroke-linejoin="round"/>
<path d="M27.1667 21.3334V26.6667C27.1667 27.0203 27.0262 27.3595 26.7761 27.6095C26.5261 27.8596 26.187 28 25.8333 28H5.83333C5.47971 28 5.14057 27.8596 4.89052 27.6095C4.64048 27.3595 4.5 27.0203 4.5 26.6667V10.6667C4.5 10.3131 4.64048 9.97395 4.89052 9.7239C5.14057 9.47385 5.47971 9.33337 5.83333 9.33337H25.8333C26.187 9.33337 26.5261 9.47385 26.7761 9.7239C27.0262 9.97395 27.1667 10.3131 27.1667 10.6667V16" stroke="#0030FF" stroke-width="1.67" stroke-linecap="round" stroke-linejoin="round"/>
<path d="M27.1667 16H23.1667C22.4303 16 21.8334 16.597 21.8334 17.3333V20C21.8334 20.7364 22.4303 21.3333 23.1667 21.3333H27.1667C27.9031 21.3333 28.5 20.7364 28.5 20V17.3333C28.5 16.597 27.9031 16 27.1667 16Z" stroke="#2CA9BC" stroke-width="2" stroke-linecap="round" stroke-linejoin="round"/>
</svg>
