<svg width="20" height="21" viewBox="0 0 20 21" fill="none" xmlns="http://www.w3.org/2000/svg">
<g clip-path="url(#clip0_306_1881)">
<path d="M7.5 10.5C10.2575 10.5 12.5 8.2575 12.5 5.5C12.5 2.7425 10.2575 0.5 7.5 0.5C4.7425 0.5 2.5 2.7425 2.5 5.5C2.5 8.2575 4.7425 10.5 7.5 10.5ZM7.5 2.16667C9.33833 2.16667 10.8333 3.66167 10.8333 5.5C10.8333 7.33833 9.33833 8.83333 7.5 8.83333C5.66167 8.83333 4.16667 7.33833 4.16667 5.5C4.16667 3.66167 5.66167 2.16667 7.5 2.16667ZM17.9167 12.1667H12.9167C11.7683 12.1667 10.8333 13.1008 10.8333 14.25V20.5H20V14.25C20 13.1008 19.065 12.1667 17.9167 12.1667ZM18.3333 18.8333H12.5V14.25C12.5 14.0208 12.6867 13.8333 12.9167 13.8333H17.9167C18.1467 13.8333 18.3333 14.0208 18.3333 14.25V18.8333ZM14.1667 14.6667H16.6667V16.3333H14.1667V14.6667ZM7.5 15.4958L9.16667 13.6208V16.1292L7.5 18.0042L3.81417 13.8575C2.60167 14.0292 1.66667 15.0742 1.66667 16.3333V20.5H0V16.3333C0 14.0358 1.86917 12.1667 4.16667 12.1667H4.54083L7.5 15.4958Z" fill="#D9D9D9"/>
</g>
<defs>
<clipPath id="clip0_306_1881">
<rect width="20" height="20" fill="white" transform="translate(0 0.5)"/>
</clipPath>
</defs>
</svg>
