<svg width="18" height="18" viewBox="0 0 18 18" fill="none" xmlns="http://www.w3.org/2000/svg">
<g clip-path="url(#clip0_86_1353)">
<path d="M16 3.00537H2C1.73478 3.00537 1.48043 3.11073 1.29289 3.29826C1.10536 3.4858 1 3.74015 1 4.00537V14.0054C1 14.2706 1.10536 14.5249 1.29289 14.7125C1.48043 14.9 1.73478 15.0054 2 15.0054H9.5L9.785 14.6554L10.25 14.0854L10.205 14.0054H2V4.00537H16V8.28537C16.3799 8.5312 16.7176 8.8368 17 9.19037V4.00537C17 3.74015 16.8946 3.4858 16.7071 3.29826C16.5196 3.11073 16.2652 3.00537 16 3.00537Z" fill="#4E50D2"/>
<path d="M3.5 6.00537H12V6.80537H3.5V6.00537Z" fill="#4E50D2"/>
<path d="M3.5 8.00537H9V8.80537H3.5V8.00537Z" fill="#4E50D2"/>
<path d="M3.5 11.5054H8.5V12.3054H3.5V11.5054Z" fill="#4E50D2"/>
<path d="M13.73 8.62046C13.0902 8.61538 12.4637 8.80344 11.9325 9.16005C11.4012 9.51666 10.9899 10.0252 10.7522 10.6193C10.5146 11.2134 10.4617 11.8654 10.6005 12.49C10.7392 13.1146 11.0632 13.6829 11.53 14.1205L10.56 15.3055L11.01 17.1105L12.84 14.8805C13.4193 15.0517 14.0358 15.0517 14.615 14.8805L16.445 17.1105L16.895 15.3055L15.925 14.1205C16.3919 13.6829 16.7158 13.1146 16.8546 12.49C16.9934 11.8654 16.9405 11.2134 16.7028 10.6193C16.4652 10.0252 16.0539 9.51666 15.5226 9.16005C14.9914 8.80344 14.3649 8.61538 13.725 8.62046H13.73ZM13.73 13.9605C13.3051 13.9545 12.8915 13.8231 12.5411 13.5828C12.1906 13.3424 11.9191 13.0038 11.7606 12.6096C11.6021 12.2153 11.5637 11.783 11.6502 11.367C11.7367 10.9509 11.9442 10.5697 12.2468 10.2714C12.5493 9.97297 12.9333 9.77069 13.3505 9.68994C13.7677 9.60919 14.1995 9.65358 14.5915 9.81753C14.9835 9.98148 15.3183 10.2577 15.5538 10.6114C15.7893 10.9651 15.915 11.3805 15.915 11.8055C15.9097 12.3806 15.6769 12.9302 15.2674 13.334C14.8579 13.7379 14.3052 13.9631 13.73 13.9605Z" fill="#4E50D2"/>
</g>
<defs>
<clipPath id="clip0_86_1353">
<rect width="18" height="18" fill="white" transform="translate(0 0.00537109)"/>
</clipPath>
</defs>
</svg>
