<svg width="24" height="24" viewBox="0 0 24 24" fill="none" xmlns="http://www.w3.org/2000/svg">
<path d="M21 10.0684V4.00537C21 3.74015 20.8946 3.4858 20.7071 3.29826C20.5196 3.11073 20.2652 3.00537 20 3.00537H19C17.021 4.98437 13.303 6.09237 11 6.61837V17.3924C13.303 17.9184 17.021 19.0264 19 21.0054H20C20.2652 21.0054 20.5196 20.9 20.7071 20.7125C20.8946 20.5249 21 20.2706 21 20.0054V13.9424C21.4298 13.8319 21.8106 13.5816 22.0825 13.2309C22.3544 12.8803 22.502 12.4491 22.502 12.0054C22.502 11.5616 22.3544 11.1305 22.0825 10.7798C21.8106 10.4292 21.4298 10.1789 21 10.0684ZM5 7.00537C4.46957 7.00537 3.96086 7.21608 3.58579 7.59116C3.21071 7.96623 3 8.47494 3 9.00537V15.0054C3 15.5358 3.21071 16.0445 3.58579 16.4196C3.96086 16.7947 4.46957 17.0054 5 17.0054H6L7 22.0054H9V7.00537H5Z" fill="#4E50D2"/>
</svg>
