<svg width="18" height="24" viewBox="0 0 18 24" fill="none" xmlns="http://www.w3.org/2000/svg">
<path d="M0 0.5H18M0 23.5H18M2.5 23.5V17.5L5.356 15.786C6.00983 15.3938 6.55095 14.8389 6.92663 14.1754C7.30232 13.5119 7.49978 12.7625 7.49978 12C7.49978 11.2375 7.30232 10.4881 6.92663 9.82459C6.55095 9.16111 6.00983 8.60623 5.356 8.214L2.5 6.5V0.5M15.5 0.5V6.5L12.644 8.214C11.9904 8.60642 11.4495 9.16137 11.074 9.82482C10.6985 10.4883 10.5012 11.2376 10.5012 12C10.5012 12.7624 10.6985 13.5117 11.074 14.1752C11.4495 14.8386 11.9904 15.3936 12.644 15.786L15.5 17.5V23.5" stroke="#4E50D2"/>
</svg>
