<svg width="25" height="23" viewBox="0 0 25 23" fill="none" xmlns="http://www.w3.org/2000/svg">
<path d="M20.4619 20.549H4.53994C4.44578 20.549 4.35549 20.5116 4.28891 20.445C4.22234 20.3784 4.18494 20.2881 4.18494 20.194V18.099C4.18494 18.0048 4.22234 17.9145 4.28891 17.848C4.35549 17.7814 4.44578 17.744 4.53994 17.744H8.25994V16.734H4.53994C4.44578 16.734 4.35549 16.6966 4.28891 16.63C4.22234 16.5634 4.18494 16.4731 4.18494 16.379V12.825C4.18494 12.7308 4.22234 12.6405 4.28891 12.574C4.35549 12.5074 4.44578 12.47 4.53994 12.47H8.25994V11.463H4.53994C4.44578 11.463 4.35549 11.4256 4.28891 11.359C4.22234 11.2924 4.18494 11.2021 4.18494 11.108V7.55399C4.18494 7.45984 4.22234 7.36955 4.28891 7.30297C4.35549 7.2364 4.44578 7.19899 4.53994 7.19899H8.25994V6.19299H4.53994C4.44578 6.19299 4.35549 6.15559 4.28891 6.08902C4.22234 6.02244 4.18494 5.93215 4.18494 5.83799V0.353994C4.18494 0.259842 4.22234 0.169547 4.28891 0.102971C4.35549 0.036396 4.44578 -0.00100566 4.53994 -0.00100566H20.4619C20.5086 -0.00113765 20.5548 0.00795461 20.5979 0.0257483C20.6411 0.043542 20.6803 0.069686 20.7133 0.102677C20.7462 0.135668 20.7724 0.174856 20.7902 0.217986C20.808 0.261116 20.8171 0.307338 20.8169 0.353994V5.83799C20.8169 5.88461 20.8078 5.93078 20.7899 5.97385C20.7721 6.01692 20.7459 6.05605 20.713 6.08902C20.68 6.12198 20.6409 6.14813 20.5978 6.16597C20.5547 6.18381 20.5086 6.19299 20.4619 6.19299H16.7399V7.19899H20.4599C20.5066 7.19886 20.5528 7.20795 20.5959 7.22575C20.6391 7.24354 20.6783 7.26969 20.7113 7.30268C20.7442 7.33567 20.7704 7.37486 20.7882 7.41799C20.806 7.46112 20.8151 7.50734 20.8149 7.55399V11.109C20.8151 11.1557 20.806 11.2019 20.7882 11.245C20.7704 11.2881 20.7442 11.3273 20.7113 11.3603C20.6783 11.3933 20.6391 11.4194 20.5959 11.4372C20.5528 11.455 20.5066 11.4641 20.4599 11.464H16.7399V12.471H20.4599C20.5541 12.471 20.6444 12.5084 20.711 12.575C20.7775 12.6415 20.8149 12.7318 20.8149 12.826V16.381C20.8149 16.4751 20.7775 16.5654 20.711 16.632C20.6444 16.6986 20.5541 16.736 20.4599 16.736H16.7399V17.742H20.4599C20.5541 17.742 20.6444 17.7794 20.711 17.846C20.7775 17.9125 20.8149 18.0028 20.8149 18.097V20.197C20.8149 20.2911 20.7775 20.3814 20.711 20.448C20.6444 20.5146 20.5541 20.552 20.4599 20.552M4.88993 19.843H20.1079V18.453H16.3879C16.2938 18.453 16.2035 18.4156 16.1369 18.349C16.0703 18.2824 16.0329 18.1921 16.0329 18.098V16.38C16.0329 16.2858 16.0703 16.1955 16.1369 16.129C16.2035 16.0624 16.2938 16.025 16.3879 16.025H20.1079V13.179H16.3879C16.3413 13.179 16.2952 13.1698 16.2521 13.152C16.209 13.1341 16.1699 13.108 16.1369 13.075C16.1039 13.0421 16.0778 13.0029 16.06 12.9598C16.0421 12.9168 16.0329 12.8706 16.0329 12.824V11.109C16.0329 11.0148 16.0703 10.9245 16.1369 10.858C16.2035 10.7914 16.2938 10.754 16.3879 10.754H20.1079V7.90799H16.3879C16.3414 7.90813 16.2952 7.89907 16.2522 7.88134C16.2091 7.8636 16.17 7.83755 16.137 7.80466C16.104 7.77178 16.0778 7.73271 16.06 7.6897C16.0421 7.64668 16.0329 7.60057 16.0329 7.55399V5.83799C16.0329 5.74384 16.0703 5.65355 16.1369 5.58697C16.2035 5.5204 16.2938 5.48299 16.3879 5.48299H20.1079V0.707994H4.89194V5.48399H8.61193C8.70609 5.48399 8.79639 5.5214 8.86296 5.58797C8.92954 5.65455 8.96693 5.74484 8.96693 5.83899V7.55399C8.96693 7.60057 8.95775 7.64668 8.9399 7.6897C8.92204 7.73271 8.89588 7.77178 8.8629 7.80466C8.82992 7.83755 8.79078 7.8636 8.74771 7.88134C8.70465 7.89907 8.65851 7.90813 8.61193 7.90799H4.89194V10.754H8.61193C8.70609 10.754 8.79639 10.7914 8.86296 10.858C8.92954 10.9245 8.96693 11.0148 8.96693 11.109V12.825C8.96693 12.9191 8.92954 13.0094 8.86296 13.076C8.79639 13.1426 8.70609 13.18 8.61193 13.18H4.89194V16.026H8.61193C8.70609 16.026 8.79639 16.0634 8.86296 16.13C8.92954 16.1965 8.96693 16.2868 8.96693 16.381V18.099C8.96693 18.1456 8.95776 18.1918 8.93991 18.2348C8.92207 18.2779 8.89593 18.3171 8.86296 18.35C8.83 18.383 8.79086 18.4091 8.74779 18.427C8.70472 18.4448 8.65855 18.454 8.61193 18.454H4.89194L4.88993 19.843Z" fill="#222222" fill-opacity="0.5"/>
<path d="M23.806 22.999H14.578C14.4872 22.9942 14.4018 22.9547 14.3392 22.8888C14.2767 22.8228 14.2418 22.7354 14.2418 22.6445C14.2418 22.5536 14.2767 22.4662 14.3392 22.4002C14.4018 22.3343 14.4872 22.2948 14.578 22.29H23.452V20.548H1.55199V22.289H10.422C10.4701 22.2864 10.5183 22.2937 10.5635 22.3104C10.6087 22.327 10.6501 22.3527 10.6851 22.3859C10.7201 22.4191 10.7479 22.459 10.767 22.5033C10.786 22.5476 10.7958 22.5953 10.7958 22.6435C10.7958 22.6917 10.786 22.7394 10.767 22.7837C10.7479 22.828 10.7201 22.8679 10.6851 22.9011C10.6501 22.9343 10.6087 22.96 10.5635 22.9766C10.5183 22.9933 10.4701 23.0006 10.422 22.998H1.19399C1.09984 22.998 1.00954 22.9606 0.942966 22.894C0.876391 22.8274 0.838989 22.7371 0.838989 22.643V20.193C0.838989 20.0988 0.876391 20.0086 0.942966 19.942C1.00954 19.8754 1.09984 19.838 1.19399 19.838H23.806C23.9001 19.838 23.9904 19.8754 24.057 19.942C24.1236 20.0086 24.161 20.0988 24.161 20.193V22.642C24.161 22.7362 24.1236 22.8264 24.057 22.893C23.9904 22.9596 23.9001 22.997 23.806 22.997" fill="#222222" fill-opacity="0.5"/>
<path d="M12.4889 22.998C12.4654 22.9981 12.442 22.9957 12.4189 22.991C12.3962 22.9864 12.3741 22.9794 12.3529 22.97C12.3311 22.9617 12.3103 22.951 12.2909 22.938C12.2714 22.9253 12.2533 22.9106 12.2369 22.894C12.2206 22.8774 12.2058 22.8594 12.1929 22.84C12.18 22.8206 12.1692 22.7998 12.1609 22.778C12.1516 22.7568 12.1445 22.7347 12.1399 22.712C12.1352 22.6893 12.1328 22.6662 12.1329 22.643C12.1329 22.6198 12.1352 22.5967 12.1399 22.574C12.1445 22.5513 12.1516 22.5292 12.1609 22.508C12.1692 22.4862 12.18 22.4654 12.1929 22.446C12.2058 22.4266 12.2206 22.4085 12.2369 22.392C12.2537 22.3758 12.2717 22.3611 12.2909 22.348C12.3106 22.3355 12.3314 22.3248 12.3529 22.316C12.3744 22.3075 12.3964 22.3009 12.4189 22.296C12.4652 22.287 12.5127 22.287 12.5589 22.296C12.5814 22.301 12.6035 22.3076 12.6249 22.316C12.6465 22.3248 12.6672 22.3355 12.6869 22.348C12.7262 22.3748 12.7601 22.4087 12.7869 22.448C12.7997 22.4676 12.8108 22.4884 12.8199 22.51C12.8287 22.5313 12.8354 22.5534 12.8399 22.576C12.8443 22.5987 12.8467 22.6218 12.8469 22.645C12.8467 22.6682 12.8443 22.6912 12.8399 22.714C12.8354 22.7366 12.8287 22.7587 12.8199 22.78C12.8108 22.8016 12.7997 22.8223 12.7869 22.842C12.7737 22.8614 12.7586 22.8795 12.7419 22.896C12.7261 22.9127 12.7083 22.9275 12.6889 22.94C12.6695 22.953 12.6487 22.9637 12.6269 22.972C12.6057 22.9813 12.5836 22.9883 12.5609 22.993C12.5379 22.9977 12.5144 23 12.4909 23" fill="#222222" fill-opacity="0.5"/>
<path d="M14.307 11.464H10.692C10.5979 11.464 10.5076 11.4266 10.441 11.36C10.3744 11.2934 10.337 11.2031 10.337 11.109V7.555C10.337 7.46085 10.3744 7.37055 10.441 7.30397C10.5076 7.2374 10.5979 7.2 10.692 7.2H14.306C14.3527 7.2 14.3988 7.20918 14.4419 7.22702C14.485 7.24486 14.5241 7.27101 14.5571 7.30397C14.59 7.33694 14.6162 7.37607 14.634 7.41914C14.6519 7.46222 14.661 7.50838 14.661 7.555V11.11C14.661 11.1566 14.6519 11.2028 14.634 11.2458C14.6162 11.2889 14.59 11.3281 14.5571 11.361C14.5241 11.394 14.485 11.4201 14.4419 11.438C14.3988 11.4558 14.3527 11.465 14.306 11.465M11.046 10.756H13.952V7.909H11.047L11.046 10.756Z" fill="#222222" fill-opacity="0.5"/>
<path d="M20.4631 11.464H16.3881C16.2939 11.464 16.2036 11.4266 16.1371 11.36C16.0705 11.2934 16.0331 11.2031 16.0331 11.109V7.555C16.0331 7.46085 16.0705 7.37055 16.1371 7.30397C16.2036 7.2374 16.2939 7.2 16.3881 7.2H20.4631C20.5572 7.2 20.6475 7.2374 20.7141 7.30397C20.7807 7.37055 20.8181 7.46085 20.8181 7.555V11.11C20.8181 11.2041 20.7807 11.2944 20.7141 11.361C20.6475 11.4276 20.5572 11.465 20.4631 11.465M16.7431 10.756H20.1091V7.909H16.7421L16.7431 10.756Z" fill="#222222" fill-opacity="0.5"/>
<path d="M8.61196 11.464H4.53896C4.44481 11.464 4.35451 11.4266 4.28794 11.36C4.22136 11.2934 4.18396 11.2031 4.18396 11.109V7.555C4.18396 7.46085 4.22136 7.37055 4.28794 7.30397C4.35451 7.2374 4.44481 7.2 4.53896 7.2H8.61296C8.70711 7.2 8.79741 7.2374 8.86398 7.30397C8.93056 7.37055 8.96796 7.46085 8.96796 7.555V11.11C8.96796 11.2041 8.93056 11.2944 8.86398 11.361C8.79741 11.4276 8.70711 11.465 8.61296 11.465M4.89296 10.756H8.25896V7.909H4.89196L4.89296 10.756Z" fill="#222222" fill-opacity="0.5"/>
<path d="M8.6119 13.18H3.4269C3.33275 13.18 3.24245 13.1426 3.17588 13.076C3.1093 13.0094 3.0719 12.9191 3.0719 12.825V11.11C3.0719 11.0158 3.1093 10.9255 3.17588 10.859C3.24245 10.7924 3.33275 10.755 3.4269 10.755H8.6119C8.70605 10.755 8.79635 10.7924 8.86292 10.859C8.9295 10.9255 8.9669 11.0158 8.9669 11.11V12.825C8.9669 12.9191 8.9295 13.0094 8.86292 13.076C8.79635 13.1426 8.70605 13.18 8.6119 13.18ZM3.7809 12.471H8.2569V11.464H3.7809V12.471Z" fill="#222222" fill-opacity="0.5"/>
<path d="M21.5731 13.18H16.3881C16.2939 13.18 16.2036 13.1426 16.1371 13.076C16.0705 13.0094 16.0331 12.9191 16.0331 12.825V11.11C16.0331 11.0158 16.0705 10.9255 16.1371 10.859C16.2036 10.7924 16.2939 10.755 16.3881 10.755H21.5731C21.6197 10.7549 21.666 10.764 21.7091 10.7817C21.7522 10.7995 21.7914 10.8257 21.8244 10.8587C21.8574 10.8917 21.8835 10.9309 21.9013 10.974C21.9191 11.0171 21.9282 11.0633 21.9281 11.11V12.825C21.9282 12.8716 21.9191 12.9179 21.9013 12.961C21.8835 13.0041 21.8574 13.0433 21.8244 13.0763C21.7914 13.1093 21.7522 13.1354 21.7091 13.1532C21.666 13.171 21.6197 13.1801 21.5731 13.18ZM16.7421 12.471H21.2181V11.464H16.7421V12.471Z" fill="#222222" fill-opacity="0.5"/>
<path d="M14.307 6.19299H10.692C10.5979 6.19299 10.5076 6.15559 10.441 6.08901C10.3744 6.02243 10.337 5.93214 10.337 5.83799V2.28399C10.337 2.18984 10.3744 2.09954 10.441 2.03296C10.5076 1.96639 10.5979 1.92899 10.692 1.92899H14.306C14.3527 1.92886 14.3989 1.93795 14.442 1.95574C14.4852 1.97353 14.5244 1.99968 14.5574 2.03267C14.5903 2.06566 14.6165 2.10485 14.6343 2.14798C14.6521 2.19111 14.6612 2.23733 14.661 2.28399V5.83699C14.6612 5.88364 14.6521 5.92986 14.6343 5.973C14.6165 6.01613 14.5903 6.05531 14.5574 6.0883C14.5244 6.12129 14.4852 6.14744 14.442 6.16523C14.3989 6.18303 14.3527 6.19212 14.306 6.19199M11.046 5.48299H13.952V2.63699H11.047L11.046 5.48299Z" fill="#222222" fill-opacity="0.5"/>
<path d="M20.4631 6.19299H16.3881C16.2939 6.19299 16.2036 6.15558 16.1371 6.08901C16.0705 6.02243 16.0331 5.93214 16.0331 5.83799V2.28399C16.0331 2.18983 16.0705 2.09954 16.1371 2.03296C16.2036 1.96639 16.2939 1.92899 16.3881 1.92899H20.4631C20.5572 1.92899 20.6475 1.96639 20.7141 2.03296C20.7807 2.09954 20.8181 2.18983 20.8181 2.28399V5.83699C20.8181 5.93114 20.7807 6.02143 20.7141 6.08801C20.6475 6.15458 20.5572 6.19199 20.4631 6.19199M16.7431 5.48299H20.1091V2.63699H16.7421L16.7431 5.48299Z" fill="#222222" fill-opacity="0.5"/>
<path d="M8.61196 6.19299H4.53896C4.4923 6.19312 4.44608 6.18403 4.40295 6.16623C4.35982 6.14844 4.32064 6.12229 4.28764 6.0893C4.25465 6.05631 4.22851 6.01713 4.21071 5.974C4.19292 5.93086 4.18383 5.88464 4.18396 5.83799V2.28399C4.18383 2.23733 4.19292 2.19111 4.21071 2.14798C4.22851 2.10485 4.25465 2.06566 4.28764 2.03267C4.32064 1.99968 4.35982 1.97353 4.40295 1.95574C4.44608 1.93795 4.4923 1.92886 4.53896 1.92899H8.61296C8.70711 1.92899 8.79741 1.96639 8.86398 2.03296C8.93056 2.09954 8.96796 2.18984 8.96796 2.28399V5.83699C8.96796 5.93114 8.93056 6.02143 8.86398 6.08801C8.79741 6.15459 8.70711 6.19199 8.61296 6.19199M4.89296 5.48299H8.25896V2.63699H4.89196L4.89296 5.48299Z" fill="#222222" fill-opacity="0.5"/>
<path d="M8.61191 7.90899H3.42691C3.38004 7.90899 3.33363 7.89971 3.29036 7.88169C3.2471 7.86366 3.20783 7.83724 3.17482 7.80396C3.14182 7.77068 3.11573 7.73118 3.09807 7.68777C3.08041 7.64435 3.07152 7.59786 3.07191 7.55099V5.83899C3.07191 5.74484 3.10931 5.65455 3.17589 5.58797C3.24246 5.52139 3.33276 5.48399 3.42691 5.48399H8.61191C8.70607 5.48399 8.79636 5.52139 8.86294 5.58797C8.92951 5.65455 8.96691 5.74484 8.96691 5.83899V7.55099C8.96691 7.59761 8.95773 7.64378 8.93989 7.68685C8.92205 7.72992 8.8959 7.76905 8.86294 7.80202C8.82997 7.83498 8.79084 7.86113 8.74777 7.87897C8.7047 7.89681 8.65853 7.90599 8.61191 7.90599M3.78091 7.19699H8.25691V6.19299H3.78091V7.19699Z" fill="#222222" fill-opacity="0.5"/>
<path d="M21.5731 7.90899H16.3881C16.3412 7.90899 16.2948 7.89971 16.2515 7.88169C16.2083 7.86366 16.169 7.83724 16.136 7.80396C16.103 7.77068 16.0769 7.73118 16.0593 7.68777C16.0416 7.64435 16.0327 7.59786 16.0331 7.55099V5.83899C16.0331 5.74484 16.0705 5.65455 16.1371 5.58797C16.2037 5.52139 16.2939 5.48399 16.3881 5.48399H21.5731C21.6672 5.48399 21.7575 5.52139 21.8241 5.58797C21.8907 5.65455 21.9281 5.74484 21.9281 5.83899V7.55099C21.9281 7.59761 21.9189 7.64378 21.9011 7.68685C21.8832 7.72992 21.8571 7.76905 21.8241 7.80202C21.7912 7.83498 21.752 7.86113 21.709 7.87897C21.6659 7.89681 21.6197 7.90599 21.5731 7.90599M16.7421 7.19699H21.2181V6.19299H16.7421V7.19699Z" fill="#222222" fill-opacity="0.5"/>
<path d="M14.307 20.549H10.692C10.5979 20.549 10.5076 20.5116 10.441 20.445C10.3744 20.3784 10.337 20.2881 10.337 20.194V12.825C10.337 12.7308 10.3744 12.6405 10.441 12.574C10.5076 12.5074 10.5979 12.47 10.692 12.47H14.306C14.3527 12.47 14.3988 12.4792 14.4419 12.497C14.485 12.5148 14.5241 12.541 14.5571 12.574C14.59 12.6069 14.6162 12.6461 14.634 12.6891C14.6519 12.7322 14.661 12.7784 14.661 12.825V20.194C14.6612 20.2406 14.6521 20.2869 14.6343 20.33C14.6165 20.3731 14.5903 20.4123 14.5574 20.4453C14.5244 20.4783 14.4852 20.5044 14.442 20.5222C14.3989 20.54 14.3537 20.5491 14.307 20.549ZM11.046 19.84H13.952V13.18H11.047L11.046 19.84Z" fill="#222222" fill-opacity="0.5"/>
<path d="M20.4631 16.732H16.3881C16.2939 16.732 16.2036 16.6946 16.1371 16.628C16.0705 16.5614 16.0331 16.4711 16.0331 16.377V12.825C16.0331 12.7308 16.0705 12.6405 16.1371 12.574C16.2036 12.5074 16.2939 12.47 16.3881 12.47H20.4631C20.5572 12.47 20.6475 12.5074 20.7141 12.574C20.7807 12.6405 20.8181 12.7308 20.8181 12.825V16.38C20.8181 16.4741 20.7807 16.5644 20.7141 16.631C20.6475 16.6976 20.5572 16.735 20.4631 16.735M16.7431 16.026H20.1091V13.179H16.7421L16.7431 16.026Z" fill="#222222" fill-opacity="0.5"/>
<path d="M8.61196 16.732H4.53896C4.44481 16.732 4.35451 16.6946 4.28794 16.628C4.22136 16.5614 4.18396 16.4711 4.18396 16.377V12.825C4.18396 12.7308 4.22136 12.6405 4.28794 12.574C4.35451 12.5074 4.44481 12.47 4.53896 12.47H8.61296C8.70711 12.47 8.79741 12.5074 8.86398 12.574C8.93056 12.6405 8.96796 12.7308 8.96796 12.825V16.38C8.96796 16.4741 8.93056 16.5644 8.86398 16.631C8.79741 16.6976 8.70711 16.735 8.61296 16.735M4.89296 16.026H8.25896V13.179H4.89196L4.89296 16.026Z" fill="#222222" fill-opacity="0.5"/>
<path d="M8.6119 18.445H3.4269C3.33275 18.445 3.24245 18.4076 3.17588 18.341C3.1093 18.2744 3.0719 18.1841 3.0719 18.09V16.38C3.0719 16.2858 3.1093 16.1955 3.17588 16.129C3.24245 16.0624 3.33275 16.025 3.4269 16.025H8.6119C8.70605 16.025 8.79635 16.0624 8.86292 16.129C8.9295 16.1955 8.9669 16.2858 8.9669 16.38V18.095C8.9669 18.1891 8.9295 18.2794 8.86292 18.346C8.79635 18.4126 8.70605 18.45 8.6119 18.45M3.7809 17.745H8.2569V16.734H3.7809V17.745Z" fill="#222222" fill-opacity="0.5"/>
<path d="M21.5731 18.445H16.3881C16.2939 18.445 16.2036 18.4076 16.1371 18.341C16.0705 18.2744 16.0331 18.1841 16.0331 18.09V16.38C16.0331 16.2858 16.0705 16.1955 16.1371 16.129C16.2036 16.0624 16.2939 16.025 16.3881 16.025H21.5731C21.6672 16.025 21.7575 16.0624 21.8241 16.129C21.8907 16.1955 21.9281 16.2858 21.9281 16.38V18.095C21.9282 18.1416 21.9191 18.1879 21.9013 18.231C21.8835 18.2741 21.8574 18.3133 21.8244 18.3463C21.7914 18.3793 21.7522 18.4054 21.7091 18.4232C21.666 18.441 21.6197 18.4501 21.5731 18.45M16.7421 17.745H21.2181V16.734H16.7421V17.745Z" fill="#222222" fill-opacity="0.5"/>
<path d="M12.4889 17.592C12.4423 17.5921 12.3962 17.5831 12.3531 17.5653C12.3101 17.5476 12.2709 17.5215 12.238 17.4887C12.205 17.4558 12.1788 17.4167 12.161 17.3737C12.1431 17.3307 12.1339 17.2846 12.1339 17.238V12.824C12.1387 12.7332 12.1782 12.6478 12.2441 12.5852C12.3101 12.5227 12.3975 12.4878 12.4884 12.4878C12.5793 12.4878 12.6667 12.5227 12.7327 12.5852C12.7986 12.6478 12.8381 12.7332 12.8429 12.824V17.238C12.8429 17.3319 12.8056 17.4219 12.7392 17.4883C12.6728 17.5547 12.5828 17.592 12.4889 17.592Z" fill="#222222" fill-opacity="0.5"/>
</svg>
