<svg width="67" height="57" viewBox="0 0 67 57" fill="none" xmlns="http://www.w3.org/2000/svg">
<path d="M22.343 16.7234H26.2441" stroke="#EDEDF3" stroke-miterlimit="13.33"/>
<path d="M22.343 24.5856H26.2441" stroke="#EDEDF3" stroke-miterlimit="13.33"/>
<path d="M40.2424 24.5856H44.1435" stroke="#EDEDF3" stroke-miterlimit="13.33"/>
<path d="M49.1712 24.5856H53.0724" stroke="#EDEDF3" stroke-miterlimit="13.33"/>
<path d="M40.2424 32.4296H44.1435" stroke="#EDEDF3" stroke-miterlimit="13.33"/>
<path d="M49.1712 32.4296H53.0724" stroke="#EDEDF3" stroke-miterlimit="13.33"/>
<path d="M40.2424 40.2918H44.1435" stroke="#EDEDF3" stroke-miterlimit="13.33"/>
<path d="M49.1712 40.2918H53.0724" stroke="#EDEDF3" stroke-miterlimit="13.33"/>
<path d="M40.2424 48.1357H44.1435" stroke="#EDEDF3" stroke-miterlimit="13.33"/>
<path d="M49.1712 48.1357H53.0724" stroke="#EDEDF3" stroke-miterlimit="13.33"/>
<path d="M13.4141 24.5856H17.3153" stroke="#EDEDF3" stroke-miterlimit="13.33"/>
<path d="M22.343 32.4296H26.2441" stroke="#EDEDF3" stroke-miterlimit="13.33"/>
<path d="M13.4141 32.4296H17.3153" stroke="#EDEDF3" stroke-miterlimit="13.33"/>
<path d="M22.343 40.2918H26.2441" stroke="#EDEDF3" stroke-miterlimit="13.33"/>
<path d="M13.4141 40.2918H17.3153" stroke="#EDEDF3" stroke-miterlimit="13.33"/>
<path d="M6.42542 55.998V12.8015L33.2537 8.87951V55.998" stroke="#EDEDF3" stroke-miterlimit="13.33"/>
<path d="M10.8899 12.1417V1.01725H28.7684V9.52094" stroke="#EDEDF3" stroke-miterlimit="13.33"/>
<path d="M15.3543 55.998V48.1357H24.304V55.998" stroke="#EDEDF3" stroke-miterlimit="13.33"/>
<path d="M33.2328 55.998V16.7234H60.0611V55.998" stroke="#EDEDF3" stroke-miterlimit="13.33"/>
<path d="M0 55.998H66.4865" stroke="#EDEDF3" stroke-miterlimit="13.33"/>
</svg>
