<svg width="22" height="22" viewBox="0 0 22 22" fill="none" xmlns="http://www.w3.org/2000/svg">
<g clip-path="url(#clip0_15_460)">
<path d="M18.9062 6.74867V6.1875C18.9051 5.185 18.5064 4.22388 17.7975 3.51501C17.0886 2.80613 16.1275 2.40739 15.125 2.40625H6.875C5.8725 2.40739 4.91138 2.80613 4.20251 3.51501C3.49363 4.22388 3.09489 5.185 3.09375 6.1875V6.74867C2.19336 7.03842 1.40814 7.60639 0.8511 8.37082C0.294062 9.13526 -0.00605774 10.0567 -0.00605774 11.0026C-0.00605774 11.9484 0.294062 12.8699 0.8511 13.6343C1.40814 14.3988 2.19336 14.9667 3.09375 15.2565V17.1875C3.09375 17.6433 3.27483 18.0805 3.59716 18.4028C3.91949 18.7252 4.35666 18.9062 4.8125 18.9062H17.1875C17.6433 18.9062 18.0805 18.7252 18.4028 18.4028C18.7252 18.0805 18.9062 17.6433 18.9062 17.1875V15.2548C19.8066 14.965 20.5919 14.397 21.1489 13.6326C21.7059 12.8682 22.0061 11.9467 22.0061 11.0009C22.0061 10.055 21.7059 9.13354 21.1489 8.36911C20.5919 7.60467 19.8066 7.0367 18.9062 6.74695V6.74867ZM6.875 4.46875H15.125C15.5808 4.46875 16.018 4.64983 16.3403 4.97216C16.6627 5.29449 16.8437 5.73166 16.8437 6.1875V6.58453C15.8496 6.74103 14.9372 7.22795 14.2538 7.96671C13.5704 8.70547 13.1559 9.65295 13.0771 10.6562H8.92289C8.84413 9.65295 8.4296 8.70547 7.74619 7.96671C7.06279 7.22795 6.15039 6.74103 5.15625 6.58453V6.1875C5.15625 5.73166 5.33733 5.29449 5.65966 4.97216C5.98199 4.64983 6.41916 4.46875 6.875 4.46875ZM17.7727 13.3942C17.5182 13.4196 17.2822 13.5386 17.1105 13.7283C16.9388 13.9179 16.8438 14.1645 16.8437 14.4203V16.8438H5.15625V14.4203C5.15623 14.1645 5.06115 13.9179 4.88948 13.7283C4.71781 13.5386 4.48179 13.4196 4.22726 13.3942C3.764 13.3475 3.32425 13.1674 2.96133 12.8757C2.59841 12.584 2.32791 12.1933 2.18263 11.7509C2.03735 11.3085 2.02353 10.8335 2.14285 10.3835C2.26217 9.93341 2.50951 9.52763 2.85486 9.21534C3.20022 8.90306 3.62876 8.69767 4.08852 8.6241C4.54828 8.55052 5.01951 8.61192 5.44507 8.80084C5.87063 8.98976 6.23224 9.29809 6.48606 9.68844C6.73987 10.0788 6.87497 10.5344 6.875 11V14.0938C6.875 14.3673 6.98365 14.6296 7.17704 14.823C7.37044 15.0163 7.63274 15.125 7.90625 15.125C8.17975 15.125 8.44205 15.0163 8.63545 14.823C8.82885 14.6296 8.9375 14.3673 8.9375 14.0938V12.7188H13.0625V14.0938C13.0625 14.3673 13.1711 14.6296 13.3645 14.823C13.5579 15.0163 13.8202 15.125 14.0937 15.125C14.3673 15.125 14.6296 15.0163 14.823 14.823C15.0163 14.6296 15.125 14.3673 15.125 14.0938V11C15.125 10.5344 15.2601 10.0788 15.5139 9.68844C15.7677 9.29809 16.1294 8.98976 16.5549 8.80084C16.9805 8.61192 17.4517 8.55052 17.9115 8.6241C18.3712 8.69767 18.7998 8.90306 19.1451 9.21534C19.4905 9.52763 19.7378 9.93341 19.8571 10.3835C19.9765 10.8335 19.9626 11.3085 19.8174 11.7509C19.6721 12.1933 19.4016 12.584 19.0387 12.8757C18.6757 13.1674 18.236 13.3475 17.7727 13.3942Z" fill="#2F2E2E" fill-opacity="0.8"/>
</g>
<defs>
<clipPath id="clip0_15_460">
<rect width="22" height="22" fill="white"/>
</clipPath>
</defs>
</svg>
