<svg width="20" height="21" viewBox="0 0 20 21" fill="none" xmlns="http://www.w3.org/2000/svg">
<path d="M18.6515 9.69005L10.2273 18.1142C9.19531 19.1462 7.79558 19.726 6.33608 19.726C4.87658 19.726 3.47686 19.1462 2.44483 18.1142C1.41281 17.0822 0.833023 15.6825 0.833023 14.223C0.833023 12.7635 1.41281 11.3637 2.44483 10.3317L10.869 1.90755C11.557 1.21953 12.4902 0.833008 13.4632 0.833008C14.4362 0.833008 15.3693 1.21953 16.0573 1.90755C16.7453 2.59556 17.1319 3.52871 17.1319 4.50171C17.1319 5.47471 16.7453 6.40786 16.0573 7.09588L7.624 15.52C7.45366 15.6904 7.25145 15.8255 7.02889 15.9177C6.80634 16.0099 6.56781 16.0573 6.32691 16.0573C6.08602 16.0573 5.84749 16.0099 5.62494 15.9177C5.40238 15.8255 5.20017 15.6904 5.02983 15.52C4.8595 15.3497 4.72438 15.1475 4.63219 14.9249C4.54001 14.7024 4.49256 14.4639 4.49256 14.223C4.49256 13.9821 4.54001 13.7435 4.63219 13.521C4.72438 13.2984 4.8595 13.0962 5.02983 12.9259L12.8123 5.15255" stroke="#4E50D2" stroke-width="1.5" stroke-linecap="round" stroke-linejoin="round"/>
</svg>
