<svg width="24" height="24" viewBox="0 0 24 24" fill="none" xmlns="http://www.w3.org/2000/svg">
<path d="M20 14.0054V12.0054H4V14.0054C4 15.1434 4.583 17.2534 6.745 17.8464C7.115 17.9484 7.532 18.0054 8 18.0054H16C16.4236 18.0092 16.8457 17.9557 17.255 17.8464C19.417 17.2534 20 15.1434 20 14.0054Z" fill="#4E50D2"/>
<path d="M3 12.0054H4M4 12.0054H20M4 12.0054V14.0054C4 15.1434 4.583 17.2534 6.745 17.8464M20 12.0054C20.2652 12.0054 20.5196 11.9 20.7071 11.7125C20.8946 11.5249 21 11.2706 21 11.0054V7.00537C21 6.00537 20.4 4.00537 18 4.00537C15.6 4.00537 15 6.00537 15 7.00537M20 12.0054V14.0054C20 15.1434 19.417 17.2534 17.255 17.8464M15 7.00537H13M15 7.00537H17M17.255 17.8464C16.8457 17.9557 16.4236 18.0092 16 18.0054H8C7.532 18.0054 7.115 17.9484 6.745 17.8464M17.255 17.8464L18 20.0054M6.745 17.8464L6 20.0054" stroke="#4E50D2" stroke-width="2" stroke-linecap="round" stroke-linejoin="round"/>
</svg>
