<svg width="24" height="16" viewBox="0 0 24 16" fill="none" xmlns="http://www.w3.org/2000/svg">
<g clip-path="url(#clip0_54_1200)">
<path d="M3 9.50537H23.25C23.4531 9.50537 23.6289 9.57959 23.7773 9.72803C23.9258 9.87646 24 10.0522 24 10.2554V15.5054H21V12.5054H3V15.5054H0V1.25537C0 1.05225 0.0742188 0.876465 0.222656 0.728027C0.371094 0.57959 0.546875 0.505371 0.75 0.505371H2.25C2.45312 0.505371 2.62891 0.57959 2.77734 0.728027C2.92578 0.876465 3 1.05225 3 1.25537V9.50537ZM9.75 5.75537C9.75 4.92725 9.45703 4.22021 8.87109 3.63428C8.28516 3.04834 7.57812 2.75537 6.75 2.75537C5.92188 2.75537 5.21484 3.04834 4.62891 3.63428C4.04297 4.22021 3.75 4.92725 3.75 5.75537C3.75 6.5835 4.04297 7.29053 4.62891 7.87646C5.21484 8.4624 5.92188 8.75537 6.75 8.75537C7.57812 8.75537 8.28516 8.4624 8.87109 7.87646C9.45703 7.29053 9.75 6.5835 9.75 5.75537ZM24 8.75537V8.00537C24 6.76318 23.5605 5.70264 22.6816 4.82373C21.8027 3.94482 20.7422 3.50537 19.5 3.50537H11.25C11.0469 3.50537 10.8711 3.57959 10.7227 3.72803C10.5742 3.87646 10.5 4.05225 10.5 4.25537V8.75537H24Z" fill="#4E50D2"/>
</g>
<defs>
<clipPath id="clip0_54_1200">
<rect width="24" height="15" fill="white" transform="translate(0 0.505371)"/>
</clipPath>
</defs>
</svg>
