<svg width="19" height="18" viewBox="0 0 19 18" fill="none" xmlns="http://www.w3.org/2000/svg">
<path d="M10.5 12V16H13.5V18H5.5V16H8.5V12H1.5C1.23478 12 0.98043 11.8946 0.792893 11.7071C0.605357 11.5196 0.5 11.2652 0.5 11V1C0.5 0.734784 0.605357 0.48043 0.792893 0.292893C0.98043 0.105357 1.23478 0 1.5 0H17.5C17.7652 0 18.0196 0.105357 18.2071 0.292893C18.3946 0.48043 18.5 0.734784 18.5 1V11C18.5 11.2652 18.3946 11.5196 18.2071 11.7071C18.0196 11.8946 17.7652 12 17.5 12H10.5ZM2.5 10H16.5V2H2.5V10ZM5.5 5H13.5V7H5.5V5Z" fill="#4E50D2"/>
</svg>
