<svg width="26" height="23" viewBox="0 0 26 23" fill="none" xmlns="http://www.w3.org/2000/svg">
<path d="M25.6187 22.2423H24.8374V18.7518C24.8323 18.6548 24.7901 18.5635 24.7196 18.4967C24.6491 18.4298 24.5557 18.3926 24.4586 18.3926C24.3614 18.3926 24.268 18.4298 24.1975 18.4967C24.127 18.5635 24.0848 18.6548 24.0797 18.7518V22.2423H15.5363V18.0422C15.5355 17.5519 15.3402 17.082 14.9935 16.7354C14.6467 16.3888 14.1766 16.1939 13.6863 16.1933H12.4306C11.9405 16.1941 11.4707 16.3892 11.1242 16.7358C10.7776 17.0823 10.5826 17.5521 10.5817 18.0422V22.2423H2.03834V2.71135H24.0808V16.9831C24.0859 17.0801 24.1281 17.1714 24.1986 17.2383C24.269 17.3051 24.3625 17.3424 24.4596 17.3424C24.5568 17.3424 24.6502 17.3051 24.7207 17.2383C24.7912 17.1714 24.8333 17.0801 24.8385 16.9831V1.22476C24.8382 0.900018 24.7091 0.588661 24.4794 0.359036C24.2498 0.12941 23.9385 0.000282997 23.6137 0H7.73143C7.63442 0.00515371 7.54309 0.047317 7.47625 0.117802C7.40941 0.188287 7.37216 0.281725 7.37216 0.378862C7.37216 0.476 7.40941 0.569438 7.47625 0.639923C7.54309 0.710408 7.63442 0.752571 7.73143 0.757725H23.6137C23.7372 0.758007 23.8556 0.80719 23.9429 0.894514C24.0302 0.981838 24.0794 1.10019 24.0797 1.22369V1.95683H2.03726V1.22476C2.03726 1.16297 2.04952 1.1018 2.07332 1.04479C2.09712 0.987775 2.13201 0.93605 2.17594 0.892612C2.21988 0.849173 2.272 0.814884 2.32928 0.79173C2.38656 0.768576 2.44786 0.757018 2.50964 0.757725H5.96696C6.06396 0.752571 6.15528 0.710408 6.22212 0.639923C6.28896 0.569438 6.32623 0.476 6.32623 0.378862C6.32623 0.281725 6.28896 0.188287 6.22212 0.117802C6.15528 0.047317 6.06396 0.00515371 5.96696 0H2.50964C2.18499 0.000565105 1.8738 0.129783 1.64424 0.359347C1.41467 0.588911 1.28545 0.900105 1.28489 1.22476V22.2423H0.503648C0.406647 22.2474 0.315309 22.2896 0.248469 22.3601C0.181629 22.4306 0.144379 22.524 0.144379 22.6211C0.144379 22.7183 0.181629 22.8117 0.248469 22.8822C0.315309 22.9527 0.406647 22.9948 0.503648 23H25.624C25.721 22.9942 25.8121 22.9514 25.8784 22.8805C25.9448 22.8095 25.9814 22.7158 25.9808 22.6186C25.9801 22.5214 25.9421 22.4282 25.8748 22.3582C25.8074 22.2882 25.7157 22.2467 25.6187 22.2423ZM14.7786 18.0422V22.2423H13.4373V16.951H13.6863C13.9758 16.951 14.2535 17.066 14.4583 17.2706C14.6631 17.4752 14.7783 17.7527 14.7786 18.0422ZM11.3394 18.0422C11.3397 17.7529 11.4548 17.4755 11.6593 17.2709C11.8639 17.0664 12.1413 16.9513 12.4306 16.951H12.6796V22.2433H11.3394V18.0422Z" fill="#222222" fill-opacity="0.5"/>
<path d="M15.1526 7.59006H15.0073V4.77505C15.007 4.59401 14.935 4.42048 14.807 4.29247C14.679 4.16446 14.5054 4.09242 14.3244 4.09213H11.783C11.6018 4.09213 11.4281 4.16408 11.3001 4.29215C11.172 4.42023 11.1 4.59393 11.1 4.77505V7.59006H10.9547C10.8577 7.59522 10.7664 7.63738 10.6995 7.70787C10.6327 7.77835 10.5954 7.87179 10.5954 7.96893C10.5954 8.06607 10.6327 8.1595 10.6995 8.22999C10.7664 8.30047 10.8577 8.34264 10.9547 8.34779H15.1526C15.2496 8.34264 15.341 8.30047 15.4078 8.22999C15.4747 8.1595 15.5119 8.06607 15.5119 7.96893C15.5119 7.87179 15.4747 7.77835 15.4078 7.70787C15.341 7.63738 15.2496 7.59522 15.1526 7.59006ZM14.2485 7.59006H13.4427V4.84986H14.2581L14.2485 7.59006ZM11.8578 4.84986H12.6732V7.59006H11.8578V4.84986Z" fill="#222222" fill-opacity="0.5"/>
<path d="M8.40694 7.59006H8.26159V4.77505C8.26159 4.59393 8.18964 4.42023 8.06157 4.29215C7.93349 4.16408 7.75981 4.09213 7.57869 4.09213H5.03725C4.85622 4.09242 4.68268 4.16446 4.55467 4.29247C4.42666 4.42048 4.35461 4.59401 4.35433 4.77505V7.59006H4.209C4.112 7.59522 4.02066 7.63738 3.95382 7.70787C3.88698 7.77835 3.84973 7.87179 3.84973 7.96893C3.84973 8.06607 3.88698 8.1595 3.95382 8.22999C4.02066 8.30047 4.112 8.34264 4.209 8.34779H8.40694C8.50394 8.34264 8.59526 8.30047 8.6621 8.22999C8.72894 8.1595 8.76621 8.06607 8.76621 7.96893C8.76621 7.87179 8.72894 7.77835 8.6621 7.70787C8.59526 7.63738 8.50394 7.59522 8.40694 7.59006ZM7.50281 7.59006H6.68737V4.84986H7.50281V7.59006ZM5.11206 4.84986H5.92749V7.59006H5.11206V4.84986Z" fill="#222222" fill-opacity="0.5"/>
<path d="M21.9069 7.59006H21.7584V4.77505C21.7584 4.59411 21.6866 4.42057 21.5587 4.29253C21.4309 4.16449 21.2574 4.09242 21.0765 4.09213H18.5351C18.3542 4.09242 18.1807 4.16449 18.0529 4.29253C17.925 4.42057 17.8532 4.59411 17.8532 4.77505V7.59006H17.7079C17.6109 7.59522 17.5196 7.63738 17.4527 7.70787C17.3859 7.77835 17.3486 7.87179 17.3486 7.96893C17.3486 8.06607 17.3859 8.1595 17.4527 8.22999C17.5196 8.30047 17.6109 8.34264 17.7079 8.34779H21.9048C22.0018 8.34264 22.0931 8.30047 22.1599 8.22999C22.2268 8.1595 22.2641 8.06607 22.2641 7.96893C22.2641 7.87179 22.2268 7.77835 22.1599 7.70787C22.0931 7.63738 22.0018 7.59522 21.9048 7.59006M21.0006 7.59006H20.1852V4.84986H21.0006V7.59006ZM18.611 4.84986H19.4264V7.59006H18.611V4.84986Z" fill="#222222" fill-opacity="0.5"/>
<path d="M14.3286 10.1465H11.7872C11.6063 10.1465 11.4327 10.2183 11.3047 10.3461C11.1766 10.474 11.1046 10.6474 11.1043 10.8283V13.6444H10.9589C10.8619 13.6496 10.7706 13.6917 10.7038 13.7622C10.6369 13.8327 10.5997 13.9261 10.5997 14.0233C10.5997 14.1204 10.6369 14.2138 10.7038 14.2843C10.7706 14.3548 10.8619 14.397 10.9589 14.4021H15.1526C15.2496 14.397 15.3409 14.3548 15.4078 14.2843C15.4746 14.2138 15.5119 14.1204 15.5119 14.0233C15.5119 13.9261 15.4746 13.8327 15.4078 13.7622C15.3409 13.6917 15.2496 13.6496 15.1526 13.6444H15.0073V10.824C15.007 10.6431 14.9349 10.4697 14.8069 10.3418C14.6788 10.214 14.5053 10.1422 14.3244 10.1422M14.2485 13.6401H13.4427V10.8999H14.2581L14.2485 13.6401ZM11.8577 10.8999H12.6732V13.6401H11.8577V10.8999Z" fill="#222222" fill-opacity="0.5"/>
<path d="M8.40694 13.6401H8.26159V10.824C8.26131 10.6431 8.18923 10.4697 8.06119 10.3418C7.93315 10.214 7.75962 10.1422 7.57869 10.1422H5.03725C4.85632 10.1422 4.68277 10.214 4.55473 10.3418C4.42669 10.4697 4.35462 10.6431 4.35433 10.824V13.6401H4.209C4.112 13.6453 4.02066 13.6874 3.95382 13.7579C3.88698 13.8284 3.84973 13.9219 3.84973 14.019C3.84973 14.1161 3.88698 14.2096 3.95382 14.2801C4.02066 14.3505 4.112 14.3927 4.209 14.3979H8.40694C8.50394 14.3927 8.59526 14.3505 8.6621 14.2801C8.72894 14.2096 8.76621 14.1161 8.76621 14.019C8.76621 13.9219 8.72894 13.8284 8.6621 13.7579C8.59526 13.6874 8.50394 13.6453 8.40694 13.6401ZM7.50281 13.6401H6.68737V10.8999H7.50281V13.6401ZM5.11206 10.8999H5.92749V13.6401H5.11206V10.8999Z" fill="#222222" fill-opacity="0.5"/>
<path d="M21.9069 13.6401H21.7584V10.824C21.7581 10.6433 21.6862 10.47 21.5583 10.3422C21.4305 10.2144 21.2573 10.1425 21.0765 10.1422H18.5351C18.3543 10.1425 18.1811 10.2144 18.0533 10.3422C17.9255 10.47 17.8535 10.6433 17.8532 10.824V13.6401H17.7079C17.6109 13.6453 17.5196 13.6874 17.4527 13.7579C17.3859 13.8284 17.3486 13.9219 17.3486 14.019C17.3486 14.1161 17.3859 14.2096 17.4527 14.2801C17.5196 14.3505 17.6109 14.3927 17.7079 14.3979H21.9048C22.0018 14.3927 22.0931 14.3505 22.1599 14.2801C22.2268 14.2096 22.2641 14.1161 22.2641 14.019C22.2641 13.9219 22.2268 13.8284 22.1599 13.7579C22.0931 13.6874 22.0018 13.6453 21.9048 13.6401M21.0006 13.6401H20.1852V10.8999H21.0006V13.6401ZM18.611 10.8999H19.4264V13.6401H18.611V10.8999Z" fill="#222222" fill-opacity="0.5"/>
<path d="M7.57869 16.1922H5.03725C4.85632 16.1922 4.68277 16.264 4.55473 16.3919C4.42669 16.5197 4.35462 16.6931 4.35433 16.8741V19.6902H4.209C4.112 19.6953 4.02066 19.7375 3.95382 19.808C3.88698 19.8785 3.84973 19.9719 3.84973 20.069C3.84973 20.1662 3.88698 20.2596 3.95382 20.3301C4.02066 20.4006 4.112 20.4427 4.209 20.4479H8.40694C8.50394 20.4427 8.59526 20.4006 8.6621 20.3301C8.72894 20.2596 8.76621 20.1662 8.76621 20.069C8.76621 19.9719 8.72894 19.8785 8.6621 19.808C8.59526 19.7375 8.50394 19.6953 8.40694 19.6902H8.26159V16.8741C8.26131 16.6931 8.18923 16.5197 8.06119 16.3919C7.93315 16.264 7.75962 16.1922 7.57869 16.1922ZM7.50281 19.6902H6.68737V16.95H7.50281V19.6902ZM5.11206 16.95H5.92749V19.6902H5.11206V16.95Z" fill="#222222" fill-opacity="0.5"/>
<path d="M21.0787 16.1922H18.5373C18.3566 16.1925 18.1833 16.2644 18.0555 16.3923C17.9277 16.5201 17.8558 16.6933 17.8555 16.8741V19.6902H17.7101C17.6131 19.6953 17.5218 19.7375 17.455 19.808C17.3881 19.8785 17.3509 19.9719 17.3509 20.069C17.3509 20.1662 17.3881 20.2596 17.455 20.3301C17.5218 20.4006 17.6131 20.4427 17.7101 20.4479H21.907C22.004 20.4427 22.0953 20.4006 22.1622 20.3301C22.229 20.2596 22.2663 20.1662 22.2663 20.069C22.2663 19.9719 22.229 19.8785 22.1622 19.808C22.0953 19.7375 22.004 19.6953 21.907 19.6902H21.7584V16.8741C21.7582 16.6933 21.6862 16.5201 21.5584 16.3923C21.4306 16.2644 21.2574 16.1925 21.0766 16.1922M21.0007 19.6902H20.1853V16.95H21.0007V19.6902ZM18.6111 16.95H19.4265V19.6902H18.6111V16.95Z" fill="#222222" fill-opacity="0.5"/>
</svg>
