<svg width="19" height="20" viewBox="0 0 19 20" fill="none" xmlns="http://www.w3.org/2000/svg">
<path d="M18.0397 16.229L17.7807 16.482C17.0883 17.1595 16.2693 17.6939 15.3703 18.0548C14.4714 18.4157 13.5102 18.5961 12.5416 18.5855C11.5729 18.5749 10.6159 18.3736 9.72506 17.9931C8.83423 17.6127 8.02707 17.0605 7.34967 16.368L2.89267 11.812C1.52566 10.4136 0.769964 8.52949 0.791717 6.57401C0.813469 4.61853 1.61089 2.75173 3.00867 1.38403L3.26767 1.12903L7.76767 5.72903L6.95967 6.52103C6.75462 6.72143 6.59109 6.96027 6.4784 7.2239C6.36571 7.48753 6.30608 7.77079 6.30293 8.05748C6.29977 8.34417 6.35314 8.62867 6.45999 8.89473C6.56685 9.16078 6.72509 9.40316 6.92567 9.60803L9.81567 12.562C10.2209 12.9754 10.7737 13.2109 11.3525 13.2169C11.9314 13.2229 12.4889 12.9989 12.9027 12.594L13.7107 11.804L18.0397 16.229Z" stroke="white" stroke-linejoin="round"/>
</svg>
