<svg width="59" height="57" viewBox="0 0 59 57" fill="none" xmlns="http://www.w3.org/2000/svg">
<path d="M11.8899 49.2161V53.6329C11.8899 54.7691 10.8259 55.7038 9.53248 55.7038H3.35738C2.06395 55.7038 1 54.7691 1 53.6329V48.0615" stroke="#4E50D2" stroke-linecap="round" stroke-linejoin="round"/>
<path d="M58.3699 49.326V53.6329C58.3699 54.7692 57.306 55.7038 56.0126 55.7038H49.8375C48.544 55.7038 47.4801 54.7692 47.4801 53.6329V49.436" stroke="#4E50D2" stroke-linecap="round" stroke-linejoin="round"/>
<path d="M6.48664 35.1777L11.0137 27.3887C12.3697 25.0429 14.9565 23.6501 17.9606 23.6501H41.4093C44.4134 23.6501 46.9794 25.0429 48.3563 27.3887L52.8833 35.1777" stroke="#4E50D2" stroke-linecap="round" stroke-linejoin="round"/>
<path d="M10.2001 35.4159H49.1699C54.2393 35.4159 58.3908 39.0629 58.3908 43.5164V48.8862H1V43.5164C1 39.0629 5.1515 35.4159 10.2209 35.4159H10.2001Z" stroke="#4E50D2" stroke-linecap="round" stroke-linejoin="round"/>
<path d="M8.78144 42.1419H13.225" stroke="#4E50D2" stroke-linecap="round" stroke-linejoin="round"/>
<path d="M21.7575 42.1419H37.6125" stroke="#4E50D2" stroke-linecap="round" stroke-linejoin="round"/>
<path d="M46.6039 42.1419H50.6093" stroke="#4E50D2" stroke-linecap="round" stroke-linejoin="round"/>
<path d="M7.57146 35.4159H1.20861" stroke="#4E50D2" stroke-linecap="round" stroke-linejoin="round"/>
<path d="M58.1405 35.4159H51.7776" stroke="#4E50D2" stroke-linecap="round" stroke-linejoin="round"/>
<path d="M3.50341 0.741394H7.40458C9.55334 0.741394 11.3057 2.28085 11.3057 4.16853C11.3057 6.0562 9.55334 7.59566 7.40458 7.59566H3.50341V0.759718V0.741394Z" stroke="#4E50D2" stroke-linecap="round" stroke-linejoin="round"/>
<path d="M3.50341 2.9223V14.6515" stroke="#4E50D2" stroke-linecap="round" stroke-linejoin="round"/>
<path d="M5.67304 7.57735L11.2849 14.6699" stroke="#4E50D2" stroke-linecap="round" stroke-linejoin="round"/>
<path d="M19.4627 0.741394V14.6515" stroke="#4E50D2" stroke-linecap="round" stroke-linejoin="round"/>
<path d="M19.5879 0.741394H24.9076" stroke="#4E50D2" stroke-linecap="round" stroke-linejoin="round"/>
<path d="M19.5879 7.68729H24.9076" stroke="#4E50D2" stroke-linecap="round" stroke-linejoin="round"/>
<path d="M19.5879 14.6515H24.9076" stroke="#4E50D2" stroke-linecap="round" stroke-linejoin="round"/>
<path d="M33.1063 14.6515V0.741394L40.2619 14.6698V0.741394" stroke="#4E50D2" stroke-linecap="round" stroke-linejoin="round"/>
<path d="M47.793 0.741394H55.8457" stroke="#4E50D2" stroke-linecap="round" stroke-linejoin="round"/>
<path d="M51.8193 0.741394V14.6515" stroke="#4E50D2" stroke-linecap="round" stroke-linejoin="round"/>
</svg>
