<svg width="19" height="17" viewBox="0 0 19 17" fill="none" xmlns="http://www.w3.org/2000/svg">
<path d="M1 11.1786V8.68293C1 7.47059 1.95139 6.4878 3.125 6.4878M1 11.1786C1 12.3909 1.95139 13.3737 3.125 13.3737H15.875C17.0486 13.3737 18 12.3909 18 11.1786M1 11.1786V14.5366C1 15.3448 1.63426 16 2.41667 16H3.83333C4.61574 16 5.25 15.3448 5.25 14.5366V13.3737M18 11.1786V8.68293C18 7.47059 17.0486 6.4878 15.875 6.4878H3.125M18 11.1786V14.5366C18 15.3448 17.3657 16 16.5833 16H15.1667C14.3843 16 13.75 15.3448 13.75 14.5366V13.3737M3.125 6.4878L4.26123 2.08635C4.4266 1.44573 4.98824 1 5.63006 1H13.4373C14.047 1 14.5884 1.40307 14.7812 2.00064L16.2292 6.4878M3.47917 9.78049H5.95833M13.0417 9.78049H15.5208" stroke="#4E50D2" stroke-linecap="round" stroke-linejoin="round"/>
</svg>
