<svg width="20" height="18" viewBox="0 0 20 18" fill="none" xmlns="http://www.w3.org/2000/svg">
<path d="M18.8086 16.6416C17.6906 16.6416 17.1256 15.5516 16.8516 14.6756C17.6293 13.6072 17.983 12.2884 17.8442 10.9743C17.7055 9.6602 17.0842 8.4443 16.1005 7.56193C15.1169 6.67957 13.8409 6.19347 12.5195 6.19772C11.1981 6.20197 9.92532 6.69628 8.9474 7.58496C7.96948 8.47365 7.35601 9.69352 7.22572 11.0085C7.09544 12.3234 7.4576 13.64 8.24211 14.7033C9.02662 15.7666 10.1777 16.501 11.4726 16.7645C12.7674 17.028 14.114 16.8017 15.2516 16.1296C16.5456 17.3026 18.8086 16.6416 18.8086 16.6416Z" stroke="#4E50D2" stroke-linejoin="round"/>
<path d="M12.8516 4.92558C12.6656 4.15796 12.3117 3.44116 11.8152 2.82684C11.3188 2.21252 10.6923 1.71596 9.98082 1.37296C9.26936 1.02996 8.49066 0.849056 7.70085 0.843282C6.91104 0.837509 6.12979 1.00701 5.41338 1.33957C4.69698 1.67214 4.06327 2.15948 3.55792 2.76648C3.05256 3.37348 2.68815 4.08503 2.49095 4.84984C2.29374 5.61466 2.26865 6.41369 2.41748 7.18938C2.56631 7.96506 2.88536 8.69807 3.35163 9.33558C3.07763 10.2116 2.51363 11.3016 1.39563 11.3016C1.39563 11.3016 3.66263 11.9626 4.94863 10.7896C5.22376 10.9521 5.51292 11.0897 5.81263 11.2006" stroke="#4E50D2" stroke-linejoin="round"/>
</svg>
