<svg width="20" height="20" viewBox="0 0 20 20" fill="none" xmlns="http://www.w3.org/2000/svg">
<path d="M13.2169 12.7243C13.4789 12.8117 13.762 12.6701 13.8493 12.4081C13.9367 12.1461 13.7951 11.863 13.5331 11.7757L13.2169 12.7243ZM10 11.125H9.5C9.5 11.3402 9.63772 11.5313 9.84189 11.5993L10 11.125ZM10.5 6.42087C10.5 6.14473 10.2761 5.92087 10 5.92087C9.72386 5.92087 9.5 6.14473 9.5 6.42087H10.5ZM13.5331 11.7757L10.1581 10.6507L9.84189 11.5993L13.2169 12.7243L13.5331 11.7757ZM10.5 11.125V6.42087H9.5V11.125H10.5ZM18.5 10C18.5 14.6944 14.6944 18.5 10 18.5V19.5C15.2467 19.5 19.5 15.2467 19.5 10H18.5ZM10 18.5C5.30558 18.5 1.5 14.6944 1.5 10H0.5C0.5 15.2467 4.75329 19.5 10 19.5V18.5ZM1.5 10C1.5 5.30558 5.30558 1.5 10 1.5V0.5C4.75329 0.5 0.5 4.75329 0.5 10H1.5ZM10 1.5C14.6944 1.5 18.5 5.30558 18.5 10H19.5C19.5 4.75329 15.2467 0.5 10 0.5V1.5Z" fill="#4E50D2"/>
</svg>
