<svg width="57" height="57" viewBox="0 0 57 57" fill="none" xmlns="http://www.w3.org/2000/svg">
<path d="M6.86215 6.13912H16.2082" stroke="#4E50D2" stroke-linecap="round" stroke-linejoin="round"/>
<path d="M6.86215 11.1424H16.2082" stroke="#4E50D2" stroke-linecap="round" stroke-linejoin="round"/>
<path d="M53.1545 20.6724L55.0946 21.9003C55.6579 22.2485 55.804 22.9449 55.3867 23.4397L51.3187 28.4613" stroke="#4E50D2" stroke-linecap="round" stroke-linejoin="round"/>
<path d="M6.2363 50.5086C6.2363 50.5086 11.8064 43.5077 14.2472 45.0105C15.8327 45.9818 10.4087 52.4695 13.6214 50.3803C21.0482 45.542 19.2749 50.4353 25.8672 50.4353" stroke="#4E50D2" stroke-linecap="round" stroke-linejoin="round"/>
<path d="M31.041 46.7516L28.9339 48.2727C28.0786 48.8775 26.8478 48.1078 27.2233 47.2098L28.1621 44.9556C28.8714 43.2695 29.831 41.675 31.0201 40.2089L49.9 16.9154C50.3173 16.4022 51.1309 16.2923 51.715 16.6405L53.8221 17.96C54.4062 18.3265 54.5314 19.0413 54.135 19.5544L35.2551 42.848C34.0659 44.3141 32.6682 45.6337 31.0827 46.7699L31.041 46.7516Z" stroke="#4E50D2" stroke-linecap="round" stroke-linejoin="round"/>
<path d="M38.7599 38.4678L34.5458 35.8287" stroke="#4E50D2" stroke-linecap="round" stroke-linejoin="round"/>
<path d="M54.135 18.2532L55.8665 16.1273C56.1586 15.7791 56.0543 15.2843 55.6579 15.046L54.2185 14.148C53.8221 13.8914 53.2588 13.983 52.9876 14.3312L51.2561 16.4572" stroke="#4E50D2" stroke-linecap="round" stroke-linejoin="round"/>
<path d="M35.0464 1.13586V7.422C35.0464 9.45628 36.924 11.124 39.2605 11.124H46.4161" stroke="#4E50D2" stroke-linecap="round" stroke-linejoin="round"/>
<path d="M46.7082 16.3656V12.2787C46.7082 11.5273 46.3744 10.8308 45.7694 10.2993L35.9852 1.70402C35.3802 1.17254 34.5875 0.879311 33.7322 0.879311H5.21408C2.89842 0.879311 1 2.52873 1 4.58135V52.1763C1 54.2106 2.87756 55.8784 5.21408 55.8784H42.4941C44.8098 55.8784 46.7082 54.229 46.7082 52.1763V33.1713" stroke="#4E50D2" stroke-linecap="round" stroke-linejoin="round"/>
</svg>
