<svg width="41" height="29" viewBox="0 0 41 29" fill="none" xmlns="http://www.w3.org/2000/svg">
<path d="M28.738 24.178V7.57178H35.6366L39.6608 15.0583V22.3358" stroke="#4E50D2" stroke-miterlimit="10.04" stroke-linejoin="round"/>
<path d="M36.7864 15.5942H39.7" stroke="#4E50D2" stroke-miterlimit="10.04" stroke-linejoin="round"/>
<path d="M36.8647 9.8584H31.0245V15.5941H35.6366" stroke="#4E50D2" stroke-miterlimit="10.04" stroke-linejoin="round"/>
<path d="M1.37895 8.26441L4.78904 1L12.0012 1.84926L18.2204 4.77593L23.9561 8.74784L19.5661 18.0897L12.8505 16.1952L6.61821 13.2685L1.37895 8.26441Z" stroke="#4E50D2" stroke-miterlimit="10.04" stroke-linejoin="round"/>
<path d="M18.2202 4.77588L12.8503 16.1951" stroke="#4E50D2" stroke-miterlimit="10.04" stroke-linejoin="round"/>
<path d="M10.1198 5.83398L6.61823 13.2682" stroke="#4E50D2" stroke-miterlimit="10.04" stroke-linejoin="round"/>
<path d="M12.0012 1.84912L10.6685 4.68433" stroke="#4E50D2" stroke-miterlimit="10.04" stroke-linejoin="round"/>
<path d="M34.4738 28.2157C36.3715 28.2157 37.91 26.6773 37.91 24.7795C37.91 22.8817 36.3715 21.3433 34.4738 21.3433C32.576 21.3433 31.0376 22.8817 31.0376 24.7795C31.0376 26.6773 32.576 28.2157 34.4738 28.2157Z" stroke="#4E50D2" stroke-miterlimit="10.04" stroke-linejoin="round"/>
<path d="M37.91 24.7792H40.2095C40.2095 21.6174 37.6487 19.0435 34.4738 19.0435C31.2988 19.0435 28.738 21.6043 28.738 24.7792H31.0245" stroke="#4E50D2" stroke-miterlimit="10.04" stroke-linejoin="round"/>
<path d="M34.4738 25.9419C35.116 25.9419 35.6366 25.4213 35.6366 24.779C35.6366 24.1368 35.116 23.6162 34.4738 23.6162C33.8315 23.6162 33.3109 24.1368 33.3109 24.779C33.3109 25.4213 33.8315 25.9419 34.4738 25.9419Z" stroke="#4E50D2" stroke-miterlimit="10.04" stroke-linejoin="round"/>
<path d="M14.366 28.2157C16.2637 28.2157 17.8022 26.6773 17.8022 24.7795C17.8022 22.8817 16.2637 21.3433 14.366 21.3433C12.4682 21.3433 10.9297 22.8817 10.9297 24.7795C10.9297 26.6773 12.4682 28.2157 14.366 28.2157Z" stroke="#4E50D2" stroke-miterlimit="10.04" stroke-linejoin="round"/>
<path d="M14.366 25.9419C15.0082 25.9419 15.5288 25.4213 15.5288 24.779C15.5288 24.1368 15.0082 23.6162 14.366 23.6162C13.7237 23.6162 13.2031 24.1368 13.2031 24.779C13.2031 25.4213 13.7237 25.9419 14.366 25.9419Z" stroke="#4E50D2" stroke-miterlimit="10.04" stroke-linejoin="round"/>
<path d="M7.45443 28.2157C9.3522 28.2157 10.8907 26.6773 10.8907 24.7795C10.8907 22.8817 9.3522 21.3433 7.45443 21.3433C5.55665 21.3433 4.0182 22.8817 4.0182 24.7795C4.0182 26.6773 5.55665 28.2157 7.45443 28.2157Z" stroke="#4E50D2" stroke-miterlimit="10.04" stroke-linejoin="round"/>
<path d="M7.45441 25.9419C8.09662 25.9419 8.61724 25.4213 8.61724 24.779C8.61724 24.1368 8.09662 23.6162 7.45441 23.6162C6.8122 23.6162 6.29158 24.1368 6.29158 24.779C6.29158 25.4213 6.8122 25.9419 7.45441 25.9419Z" stroke="#4E50D2" stroke-miterlimit="10.04" stroke-linejoin="round"/>
<path d="M1 24.8576L2.92063 21.3691H18.9389L20.8203 24.7923" stroke="#4E50D2" stroke-miterlimit="10.04" stroke-linejoin="round"/>
<path d="M18.9389 21.3691H28.738" stroke="#4E50D2" stroke-miterlimit="10.04" stroke-linejoin="round"/>
<path d="M2.92059 21.3691V19.0435H28.738" stroke="#4E50D2" stroke-miterlimit="10.04" stroke-linejoin="round"/>
<path d="M9.76687 14.7451L7.46735 19.0437" stroke="#4E50D2" stroke-miterlimit="10.04" stroke-linejoin="round"/>
<path d="M22.95 19.0433V15.4111C22.95 14.5488 22.2444 13.8433 21.3821 13.8433" stroke="#4E50D2" stroke-miterlimit="10.04" stroke-linejoin="round"/>
</svg>
