<svg width="40" height="40" viewBox="0 0 40 40" fill="none" xmlns="http://www.w3.org/2000/svg">
<path d="M0 39.0337H39.1965" stroke="#4E50D2" stroke-miterlimit="10.04" stroke-linejoin="round"/>
<path d="M37.1975 9.68868H26.4838L28.0124 1.771H35.6688L37.1975 9.68868Z" stroke="#4E50D2" stroke-miterlimit="10.04" stroke-linejoin="round"/>
<path d="M31.8406 9.68848V17.8021" stroke="#4E50D2" stroke-miterlimit="10.04" stroke-linejoin="round"/>
<path d="M34.3492 9.76709V15.4375" stroke="#4E50D2" stroke-miterlimit="10.04" stroke-linejoin="round"/>
<path d="M13.8494 1H18.9972V13.7519H0.614044V1H12.6735" stroke="#4E50D2" stroke-miterlimit="10.04" stroke-linejoin="round"/>
<path d="M16.4756 3.52148H3.14883V11.2171H16.4756V3.52148Z" stroke="#4E50D2" stroke-miterlimit="10.04" stroke-linejoin="round"/>
<path d="M3.14883 7.97693C3.14883 7.97693 5.22625 5.58595 8.40116 6.25229C11.563 6.90556 13.954 9.34881 16.4756 7.06235V3.53467H3.14883V7.99V7.97693Z" stroke="#4E50D2" stroke-miterlimit="10.04" stroke-linejoin="round"/>
<path d="M19.5852 22.7018V19.4485C19.5852 18.1811 18.5531 17.1489 17.2857 17.1489H9.17203C7.5911 17.1489 6.25842 18.364 6.12777 19.9319L5.76193 23.9822C5.93178 24.2566 6.03631 24.5571 6.07551 24.8968L6.67652 29.7833H32.4809L33.0949 24.8968C33.1341 24.5701 33.2517 24.2566 33.4085 23.9952L33.0427 19.9449C32.899 18.364 31.5793 17.162 29.9984 17.162H21.8978C20.6305 17.162 19.5983 18.1942 19.5983 19.4615" stroke="#4E50D2" stroke-miterlimit="10.04" stroke-linejoin="round"/>
<path d="M19.5851 28.2545V23.8384" stroke="#4E50D2" stroke-miterlimit="10.04" stroke-linejoin="round"/>
<path d="M12.7127 34.3825H2.62612L1.51555 25.4718C1.35876 24.2175 2.24722 23.0678 3.51457 22.911C4.76886 22.7542 5.91862 23.6427 6.07541 24.91L6.67642 29.7965H32.4808L33.0948 24.91C33.2516 23.6557 34.4014 22.7542 35.6557 22.911C36.91 23.0678 37.8115 24.2175 37.6547 25.4718L36.5441 34.3825H13.9016" stroke="#4E50D2" stroke-miterlimit="10.04" stroke-linejoin="round"/>
<path d="M19.5852 29.7834V28.2547C19.5852 27.4055 18.9058 26.7261 18.0565 26.7261H8.03531C7.12073 26.7261 6.40212 27.5361 6.51971 28.4507L6.68957 29.7834H32.4939L32.5592 29.313C32.7291 27.9412 31.6577 26.7261 30.2858 26.7261H21.14C20.2907 26.7261 19.6113 27.4055 19.6113 28.2547V29.7834" stroke="#4E50D2" stroke-miterlimit="10.04" stroke-linejoin="round"/>
<path d="M4.83426 34.3691L3.3056 38.9682H6.14081L6.89861 36.6687H32.2849L33.0557 38.9682H35.8909L34.3492 34.3691" stroke="#4E50D2" stroke-miterlimit="10.04" stroke-linejoin="round"/>
<path d="M10.1388 21.7739H11.2886" stroke="#4E50D2" stroke-miterlimit="10.04" stroke-linejoin="round"/>
<path d="M14.2022 21.7739H15.3389" stroke="#4E50D2" stroke-miterlimit="10.04" stroke-linejoin="round"/>
<path d="M23.923 21.7739H25.0727" stroke="#4E50D2" stroke-miterlimit="10.04" stroke-linejoin="round"/>
<path d="M27.9733 21.7739H29.123" stroke="#4E50D2" stroke-miterlimit="10.04" stroke-linejoin="round"/>
<path d="M6.68951 29.7832V34.3692" stroke="#4E50D2" stroke-miterlimit="10.04" stroke-linejoin="round"/>
<path d="M32.4939 29.7832V34.3692" stroke="#4E50D2" stroke-miterlimit="10.04" stroke-linejoin="round"/>
</svg>
