<svg width="41" height="41" viewBox="0 0 41 41" fill="none" xmlns="http://www.w3.org/2000/svg">
<path d="M25.9682 19.0172L20.5982 23.4333L21.7349 16.5739L30.6848 1.09131L34.905 3.53456L25.9551 19.0302L25.9682 19.0172Z" stroke="#4E50D2" stroke-miterlimit="10.04" stroke-linejoin="round"/>
<path d="M21.7349 16.5737L25.9551 19.017" stroke="#4E50D2" stroke-miterlimit="10.04" stroke-linejoin="round"/>
<path d="M13.2816 30.2798H5.96494V1H13.2816V30.2798Z" stroke="#4E50D2" stroke-miterlimit="10.04" stroke-linejoin="round"/>
<path d="M5.96494 5.88672H8.40819" stroke="#4E50D2" stroke-miterlimit="10.04" stroke-linejoin="round"/>
<path d="M5.96494 10.7598H8.40819" stroke="#4E50D2" stroke-miterlimit="10.04" stroke-linejoin="round"/>
<path d="M5.96494 15.6465H8.40819" stroke="#4E50D2" stroke-miterlimit="10.04" stroke-linejoin="round"/>
<path d="M5.96494 20.5195H8.40819" stroke="#4E50D2" stroke-miterlimit="10.04" stroke-linejoin="round"/>
<path d="M5.96494 25.4062H8.40819" stroke="#4E50D2" stroke-miterlimit="10.04" stroke-linejoin="round"/>
<path d="M30.3581 35.3232H24.2435L30.3581 29.2085V35.3232ZM12.4715 40.1966H35.2446V17.4365L12.4715 40.2097V40.1966Z" stroke="#4E50D2" stroke-miterlimit="10.04" stroke-linejoin="round"/>
<path d="M5.96489 5.96484H1V35.2446H17.3449" stroke="#4E50D2" stroke-miterlimit="10.04" stroke-linejoin="round"/>
<path d="M27.8627 5.96484H13.2816" stroke="#4E50D2" stroke-miterlimit="10.04" stroke-linejoin="round"/>
<path d="M35.2316 35.2446H40.1965V5.96484H33.507" stroke="#4E50D2" stroke-miterlimit="10.04" stroke-linejoin="round"/>
</svg>
