<svg width="32" height="41" viewBox="0 0 32 41" fill="none" xmlns="http://www.w3.org/2000/svg">
<path d="M25.4716 13.6996H6.38294C5.7558 13.6996 5.25931 13.19 5.25931 12.5759V12.4322C5.25931 11.8051 5.76886 11.3086 6.38294 11.3086H25.4716C26.0988 11.3086 26.5953 11.8181 26.5953 12.4322V12.5759C26.5953 13.2031 26.0857 13.6996 25.4716 13.6996Z" stroke="#4E50D2" stroke-miterlimit="10.04" stroke-linejoin="round"/>
<path d="M23.7861 17.3584C25.0142 17.3584 26.0072 16.3654 26.0072 15.1372C26.0072 14.6799 25.8635 14.2488 25.6283 13.896" stroke="#4E50D2" stroke-miterlimit="10.04" stroke-linejoin="round"/>
<path d="M8.15987 17.3582C6.93171 17.3582 5.93874 16.3652 5.93874 15.1371C5.93874 14.732 6.04326 14.3662 6.22618 14.0396" stroke="#4E50D2" stroke-miterlimit="10.04" stroke-linejoin="round"/>
<path d="M5.57294 37.0737C5.32469 38.1059 5.19404 39.517 5.27243 40.118" stroke="#4E50D2" stroke-miterlimit="10.04" stroke-linejoin="round"/>
<path d="M26.2816 37.0737C26.5299 38.1059 26.6605 39.517 26.5821 40.118" stroke="#4E50D2" stroke-miterlimit="10.04" stroke-linejoin="round"/>
<path d="M19.6706 26.2422V24.0342" stroke="#4E50D2" stroke-miterlimit="10.04" stroke-linejoin="round"/>
<path d="M2.37182 32.396C1.4703 34.6563 0.999939 37.0604 0.999939 39.5036C0.999939 39.8825 1.31351 40.1961 1.69241 40.1961H30.1621C30.541 40.1961 30.8546 39.8825 30.8546 39.5036C30.8546 36.9036 30.332 34.3297 29.2998 31.9518C28.8817 30.9849 28.1108 30.2402 27.1309 29.8482L22.3489 27.9668" stroke="#4E50D2" stroke-miterlimit="10.04" stroke-linejoin="round"/>
<path d="M9.74068 27.8628L4.71047 29.8487C4.27931 30.0186 3.87428 30.2668 3.53458 30.5804" stroke="#4E50D2" stroke-miterlimit="10.04" stroke-linejoin="round"/>
<path d="M12.1841 23.9561V25.7983" stroke="#4E50D2" stroke-miterlimit="10.04" stroke-linejoin="round"/>
<path d="M8.39496 13.8433C8.05526 17.4885 8.7216 21.6303 12.5498 24.0605C14.6011 25.354 17.2403 25.354 19.2916 24.0605C23.1067 21.6434 23.7861 17.5277 23.4595 13.8825" stroke="#4E50D2" stroke-miterlimit="10.04" stroke-linejoin="round"/>
<path d="M24.4394 11.0605V9.40114C24.4394 5.52069 21.6041 2.30658 17.9066 1.70557" stroke="#4E50D2" stroke-miterlimit="10.04" stroke-linejoin="round"/>
<path d="M14.3137 1.6665C10.4986 2.17606 7.55884 5.44243 7.55884 9.40127V11.0606" stroke="#4E50D2" stroke-miterlimit="10.04" stroke-linejoin="round"/>
<path d="M14.0393 5.95182V2.94676C14.0393 1.87539 14.9147 1 15.986 1H16.2343C17.3056 1 18.181 1.87539 18.181 2.94676V11.0735" stroke="#4E50D2" stroke-miterlimit="10.04" stroke-linejoin="round"/>
<path d="M14.0393 11.0606V8.31689" stroke="#4E50D2" stroke-miterlimit="10.04" stroke-linejoin="round"/>
<path d="M15.9599 31.9912V39.922" stroke="#4E50D2" stroke-miterlimit="10.04" stroke-linejoin="round"/>
<path d="M15.6072 31.8081L13.2816 33.7157C13.0203 33.9247 12.6414 33.8463 12.4846 33.5458L9.72775 27.8754L12.1971 26.0854L15.5942 31.8081" stroke="#4E50D2" stroke-miterlimit="10.04" stroke-linejoin="round"/>
<path d="M16.4042 31.8083L18.7299 33.7158C18.9912 33.9249 19.3831 33.8465 19.5269 33.546L22.2314 27.9278L19.8012 26.0986L16.4042 31.8213" stroke="#4E50D2" stroke-miterlimit="10.04" stroke-linejoin="round"/>
<path d="M23.4987 40.1965H19.2655V38.2367C19.2655 38.0799 19.3961 37.9492 19.5529 37.9492H23.1982C23.355 37.9492 23.4856 38.0799 23.4856 38.2367V40.1965H23.4987Z" stroke="#4E50D2" stroke-miterlimit="10.04" stroke-linejoin="round"/>
</svg>
