<svg width="24" height="21" viewBox="0 0 24 21" fill="none" xmlns="http://www.w3.org/2000/svg">
<g clip-path="url(#clip0_306_1901)">
<path d="M19.6667 15.1315V3.25537C19.6667 2.49062 19.2498 1.78785 18.5224 1.32739C17.796 0.866934 16.8789 0.722034 16.002 0.933749L13.127 1.62363C12.6996 1.72587 12.3172 1.9086 12 2.14769C11.6828 1.9086 11.3004 1.72587 10.873 1.62363L7.998 0.933749C7.12017 0.722034 6.20304 0.866934 5.47758 1.32739C4.75021 1.78785 4.33333 2.49062 4.33333 3.25537V15.1315L12 16.9718L19.6667 15.1315ZM12.9583 3.94525C12.9583 3.58783 13.2439 3.26986 13.6541 3.17165L16.5291 2.48176C16.6173 2.46083 16.7064 2.45037 16.7945 2.45037C16.9996 2.45037 17.1999 2.50591 17.3686 2.61298C17.611 2.76673 17.75 3.00099 17.75 3.25537V13.9176L12.9583 15.0679V3.94525ZM11.0417 15.0671L6.25 13.9168V3.25537C6.25 3.00099 6.38896 2.76673 6.63142 2.61298C6.87292 2.46003 7.17958 2.41173 7.47092 2.48176L10.3459 3.17165C10.7551 3.26986 11.0407 3.58783 11.0407 3.94525V15.0671H11.0417ZM23.5 3.25456V17.4314L12 20.1918L0.5 17.4314V4.05956C0.5 3.29481 0.916875 2.59205 1.64425 2.13159C1.88287 1.98025 2.14546 1.87721 2.41667 1.7951V16.2175L12 18.5174L21.5833 16.2175V0.990099C21.8545 1.07221 22.1181 1.17525 22.3557 1.32659C23.0831 1.78705 23.5 2.48981 23.5 3.25456Z" fill="#D9D9D9"/>
</g>
<defs>
<clipPath id="clip0_306_1901">
<rect width="23" height="19.32" fill="white" transform="translate(0.5 0.839844)"/>
</clipPath>
</defs>
</svg>
