<svg width="44" height="32" viewBox="0 0 44 32" fill="none" xmlns="http://www.w3.org/2000/svg">
<path d="M17.6705 7.46521C17.6705 7.46521 -0.644911 31.5026 23.1993 32C23.1993 32 46.5946 32 23.7821 6.32671C19.5367 5.94467 17.6705 7.46521 17.6705 7.46521ZM23.5661 19.133C26.1229 20.0358 27.156 21.2183 27.156 23.1549C27.156 25.0675 25.8012 26.701 23.329 27.132V29.3237H21.2208V27.2821C19.7807 27.2173 18.3833 26.8307 17.5658 26.3585L18.2117 23.8423C19.1148 24.3363 20.3829 24.7881 21.7814 24.7881C23.0069 24.7881 23.8455 24.3152 23.8455 23.4554C23.8455 22.6383 23.1574 22.1218 21.5661 21.5841C19.2656 20.8106 17.6955 19.7356 17.6955 17.6503C17.6955 15.7578 19.0291 14.275 21.3297 13.823V11.7793H23.4358V13.6718C24.8759 13.7366 25.8441 14.0362 26.5538 14.3815L25.9298 16.8113C25.372 16.5749 24.3825 16.0798 22.8325 16.0798C21.4361 16.0798 20.9841 16.6817 20.9841 17.2845C20.9854 17.9932 21.7384 18.4449 23.5661 19.133Z" fill="#FFD70C"/>
<path d="M23.407 5.18437C23.407 5.18437 24.9962 0.276781 23.1303 0.0694668C21.5592 -0.104913 19.1557 -0.0695515 16.7022 1.61982C17.4677 2.59953 18.3271 3.56018 18.3271 3.56018L16.2415 1.95748C15.934 2.19565 15.6268 2.45947 15.321 2.75484L17.7398 6.26601C17.7398 6.26601 20.5472 4.76905 23.407 5.18437Z" fill="#FFD70C"/>
<path d="M9.76832 21.5351H4.92867V20.0621C5.8921 19.6627 6.96507 18.6258 6.96507 17.3905C6.96507 17.1361 6.94773 16.918 6.91064 16.6639H5.12871V14.7904H6.58337C6.49289 14.336 6.43777 13.8083 6.43777 13.3184C6.43777 11.0269 8.1105 9.51885 10.5459 9.51885C11.5468 9.51885 12.2911 9.73587 12.6901 9.95497L12.2356 12.0454C11.891 11.8454 11.3818 11.7178 10.7102 11.7178C9.41956 11.7178 9.01983 12.5547 9.01983 13.4277C9.01983 13.8998 9.07253 14.3363 9.18243 14.7908H11.674V14.8497C12.5026 12.942 13.4702 11.1871 14.3327 9.76915C13.2885 8.30547 12.0044 6.70242 10.4419 4.94407C7.12523 4.64488 5.6671 5.83295 5.6671 5.83295C5.6671 5.83295 -8.58522 24.5391 9.87787 25.0002C9.66396 23.889 9.64455 22.7211 9.76832 21.5351Z" fill="#FFD70C"/>
<path d="M9.25494 17.954C9.092 18.4092 8.80044 18.8633 8.36536 19.245V19.2811H10.1598C10.3695 18.4015 10.6399 17.5234 10.9505 16.6647H9.41961C9.43764 17.1181 9.40193 17.5355 9.25494 17.954Z" fill="#FFD70C"/>
<path d="M10.1486 4.05035C10.1486 4.05035 11.3904 0.215386 9.93293 0.0545265C8.705 -0.0820651 6.82669 -0.0539842 4.9099 1.26582C5.50862 2.03094 6.17979 2.7815 6.17979 2.7815L4.55039 1.52999C4.31015 1.71581 4.0699 1.92174 3.83069 2.15228L5.72078 4.89521C5.72078 4.89521 7.91457 3.72655 10.1486 4.05035Z" fill="#FFD70C"/>
<path d="M35.7765 4.94337C32.4602 4.64453 31.0017 5.83225 31.0017 5.83225C31.0017 5.83225 29.7655 7.4554 28.4928 9.75666C29.2728 10.7769 29.9787 11.7657 30.6183 12.7253C30.8051 12.3911 31.0201 12.0825 31.261 11.8038C32.2973 10.6407 33.7509 9.94941 35.46 9.94941C36.5683 9.94941 37.5318 10.2032 38.1866 10.4951L37.677 12.5675C37.2052 12.3678 36.4584 12.1311 35.6597 12.1311C34.7864 12.1311 33.9873 12.4212 33.4236 13.1122C33.1692 13.4037 32.9688 13.8211 32.8415 14.293H37.3681V15.584H32.3253C32.42 15.7258 32.7355 16.2701 32.8214 16.4382H37.3681V17.7285H33.4399C33.5644 18.0083 33.6833 18.2846 33.7925 18.5564C33.9308 18.9045 34.0542 19.2467 34.1683 19.585C34.6387 19.8228 35.1844 19.9289 35.7502 19.9289C36.5864 19.9289 37.4406 19.6564 37.823 19.4567L38.2598 21.4741C37.641 21.8201 36.5871 22.165 35.4236 22.165C35.2142 22.165 35.0072 22.1543 34.8024 22.1338C34.9549 23.1447 34.9698 24.0963 34.8526 24.9877C35.0072 24.9939 35.1633 24.9984 35.3224 25.0019C35.3224 25.0026 53.601 25.0026 35.7765 4.94337Z" fill="#FFD70C"/>
<path d="M35.4835 4.05035C35.4835 4.05035 36.7254 0.215386 35.2679 0.0545265C34.0407 -0.0820651 32.1617 -0.0539842 30.2456 1.26582C30.8443 2.03094 31.5151 2.7815 31.5151 2.7815L29.8857 1.52999C29.6458 1.71581 29.4049 1.92174 29.166 2.15228L31.0558 4.89521C31.0558 4.89521 33.2492 3.72655 35.4835 4.05035Z" fill="#FFD70C"/>
</svg>
