<svg width="120" height="111" viewBox="0 0 120 111" fill="none" xmlns="http://www.w3.org/2000/svg">
<path d="M73.4286 110.183H5.35613C4.13736 110.183 2.96852 109.699 2.10672 108.838C1.24493 107.976 0.760773 106.807 0.760773 105.588V17.4625C0.760773 16.1919 1.2655 14.9734 2.16391 14.075C3.06233 13.1766 4.28084 12.6719 5.5514 12.6719H73.2224C74.493 12.6719 75.7115 13.1766 76.6099 14.075C77.5083 14.9734 78.013 16.1919 78.013 17.4625V105.588C78.0135 106.805 77.531 107.973 76.6715 108.834C75.812 109.696 74.6456 110.181 73.4286 110.183Z" fill="#4E50D2"/>
<path d="M73.4286 110.183H5.35613C4.13736 110.183 2.96852 109.699 2.10672 108.838C1.24493 107.976 0.760773 106.807 0.760773 105.588V17.4625C0.760773 16.1919 1.2655 14.9734 2.16391 14.075C3.06233 13.1766 4.28084 12.6719 5.5514 12.6719H73.2224C74.493 12.6719 75.7115 13.1766 76.6099 14.075C77.5083 14.9734 78.013 16.1919 78.013 17.4625V105.588C78.0135 106.805 77.531 107.973 76.6715 108.834C75.8119 109.696 74.6456 110.181 73.4286 110.183V110.183Z" stroke="#1C1D6F" stroke-linecap="round" stroke-linejoin="round"/>
<path d="M8.36191 20.2676H70.4156V102.584H8.36191V20.2676Z" fill="white"/>
<path d="M8.36191 20.2676H70.4156V102.584H8.36191V20.2676Z" stroke="#1C1D6F" stroke-linecap="round" stroke-linejoin="round"/>
<path d="M17.2077 40.5305H55.9032" stroke="#1C1D6F" stroke-linecap="round" stroke-linejoin="round"/>
<path d="M17.2077 51.9276H55.9032" stroke="#1C1D6F" stroke-linecap="round" stroke-linejoin="round"/>
<path d="M17.2077 64.5931H44.1776" stroke="#1C1D6F" stroke-linecap="round" stroke-linejoin="round"/>
<path d="M22.0567 8.87036H56.7208C57.3289 8.87229 57.9114 9.11522 58.3407 9.54591C58.7701 9.9766 59.0111 10.5599 59.0111 11.168V23.0305C59.0111 23.6404 58.7689 24.2253 58.3376 24.6565C57.9064 25.0878 57.3215 25.33 56.7116 25.33H22.0585C21.4487 25.33 20.8638 25.0878 20.4325 24.6565C20.0013 24.2253 19.759 23.6404 19.759 23.0305V11.168C19.759 10.5587 20.0011 9.97423 20.432 9.54334C20.8629 9.11244 21.4473 8.87036 22.0567 8.87036Z" fill="white"/>
<path d="M22.0567 8.87036H56.7208C57.3289 8.87229 57.9114 9.11522 58.3407 9.54591C58.7701 9.9766 59.0111 10.5599 59.0111 11.168V23.0305C59.0111 23.6404 58.7689 24.2253 58.3376 24.6565C57.9064 25.0878 57.3215 25.33 56.7116 25.33H22.0585C21.4487 25.33 20.8638 25.0878 20.4325 24.6565C20.0013 24.2253 19.759 23.6404 19.759 23.0305V11.168C19.759 10.5587 20.0011 9.97423 20.432 9.54334C20.8629 9.11244 21.4473 8.87036 22.0567 8.87036V8.87036Z" stroke="#1C1D6F" stroke-linecap="round" stroke-linejoin="round"/>
<path d="M28.623 20.2676H50.1526" stroke="#1C1D6F" stroke-linecap="round" stroke-linejoin="round"/>
<path d="M33.6892 7.60387C33.6892 8.4355 33.853 9.25898 34.1713 10.0273C34.4895 10.7956 34.956 11.4937 35.5441 12.0818C36.1321 12.6698 36.8302 13.1363 37.5986 13.4546C38.3669 13.7728 39.1904 13.9366 40.022 13.9366C40.8536 13.9366 41.6771 13.7728 42.4454 13.4546C43.2138 13.1363 43.9119 12.6698 44.4999 12.0818C45.088 11.4937 45.5544 10.7956 45.8727 10.0273C46.1909 9.25898 46.3547 8.4355 46.3547 7.60387C46.3547 6.77224 46.1909 5.94875 45.8727 5.18043C45.5544 4.4121 45.088 3.71399 44.4999 3.12594C43.9119 2.53789 43.2138 2.07142 42.4454 1.75317C41.6771 1.43492 40.8536 1.27112 40.022 1.27112C39.1904 1.27112 38.3669 1.43492 37.5986 1.75317C36.8302 2.07142 36.1321 2.53789 35.5441 3.12594C34.956 3.71399 34.4895 4.4121 34.1713 5.18043C33.853 5.94875 33.6892 6.77224 33.6892 7.60387Z" fill="white"/>
<path d="M33.6892 7.60387C33.6892 8.4355 33.853 9.25898 34.1713 10.0273C34.4895 10.7956 34.956 11.4937 35.5441 12.0818C36.1321 12.6698 36.8302 13.1363 37.5986 13.4546C38.3669 13.7728 39.1904 13.9366 40.022 13.9366C40.8536 13.9366 41.6771 13.7728 42.4454 13.4546C43.2138 13.1363 43.9119 12.6698 44.4999 12.0818C45.088 11.4937 45.5544 10.7956 45.8727 10.0273C46.1909 9.25898 46.3547 8.4355 46.3547 7.60387C46.3547 6.77224 46.1909 5.94875 45.8727 5.18043C45.5544 4.4121 45.088 3.71399 44.4999 3.12594C43.9119 2.53789 43.2138 2.07142 42.4454 1.75317C41.6771 1.43492 40.8536 1.27112 40.022 1.27112C39.1904 1.27112 38.3669 1.43492 37.5986 1.75317C36.8302 2.07142 36.1321 2.53789 35.5441 3.12594C34.956 3.71399 34.4895 4.4121 34.1713 5.18043C33.853 5.94875 33.6892 6.77224 33.6892 7.60387V7.60387Z" stroke="#1C1D6F" stroke-linecap="round" stroke-linejoin="round"/>
<path d="M66.0501 63.8047L88.233 72.0793L97.5642 57.1143L73.445 50.6008L66.0501 63.8047Z" fill="white"/>
<path d="M101.415 89.0554L118.596 71.8748C118.663 71.8101 118.733 71.7492 118.807 71.6923C113.057 66.7028 111.639 56.1324 100.579 50.3581C86.0211 42.7551 68.0157 44.5692 52.2002 64.3193C51.8381 64.7492 51.5654 65.2469 51.3981 65.7835C51.2308 66.32 51.1722 66.8845 51.2258 67.444C51.2794 68.0035 51.444 68.5466 51.7101 69.0416C51.9762 69.5367 52.3384 69.9736 52.7755 70.327C53.2126 70.6803 53.7158 70.9428 54.2556 71.0992C54.7954 71.2557 55.361 71.3028 55.9193 71.2379C56.4775 71.173 57.0172 70.9974 57.5068 70.7213C57.9963 70.4452 58.4258 70.0742 58.7702 69.6301C59.819 68.3331 60.8726 67.1256 61.9311 66.0075C62.3031 66.4047 62.7488 66.7257 63.2433 66.9528C79.7906 79.4814 83.1358 81.0728 87.1837 82.6478C93.4434 85.0805 96.2064 86.2558 100.809 90.4223C100.837 89.9079 101.053 89.4215 101.415 89.0554ZM90.0781 62.3137C88.6839 64.0006 86.7439 65.1472 84.5937 65.5551C82.4435 65.963 80.2184 65.6066 78.3032 64.5475L68.5175 60.0726C74.228 55.8933 79.9895 54.1486 85.7273 54.8969C90.6092 55.5247 91.7389 59.8426 90.0781 62.3137Z" fill="white"/>
<path d="M21.073 77.7532C20.4182 78.4075 19.935 79.2133 19.666 80.099C19.3971 80.9848 19.3507 81.9232 19.5311 82.8312C19.7115 83.7391 20.1131 84.5885 20.7002 85.3042C21.2874 86.0198 22.042 86.5796 22.8972 86.934C23.7524 87.2883 24.6818 87.4262 25.603 87.3355C26.5242 87.2448 27.4089 86.9283 28.1785 86.414C28.9482 85.8997 29.5791 85.2035 30.0154 84.387C30.4518 83.5706 30.6799 82.6592 30.6798 81.7335V82.8577C30.6678 83.4567 30.7753 84.0521 30.9962 84.609C31.2171 85.1659 31.5469 85.6731 31.9662 86.101C32.3856 86.5289 32.8861 86.8688 33.4384 87.1009C33.9908 87.3329 34.5839 87.4525 35.183 87.4525C35.7821 87.4525 36.3752 87.3329 36.9276 87.1009C37.4799 86.8688 37.9804 86.5289 38.3998 86.101C38.8191 85.6731 39.1489 85.1659 39.3698 84.609C39.5907 84.0521 39.6983 83.4567 39.6862 82.8577C39.6862 84.0518 40.1605 85.1969 41.0049 86.0413C41.8492 86.8856 42.9944 87.36 44.1885 87.36H47.5647" stroke="#1C1D6F" stroke-linecap="round" stroke-linejoin="round"/>
<path d="M76.9162 65.5312C77.4706 65.5608 78.0137 65.6994 78.5145 65.9389C79.0153 66.1785 79.464 66.5144 79.835 66.9274C80.2059 67.3404 80.4919 67.8224 80.6766 68.346C80.8612 68.8695 80.9409 69.4243 80.9111 69.9787L80.1684 83.6917C80.1383 84.2458 79.9994 84.7886 79.7595 85.289C79.5197 85.7894 79.1837 86.2377 78.7706 86.6082C78.3575 86.9788 77.8755 87.2643 77.3521 87.4486C76.8286 87.6328 76.274 87.7122 75.7199 87.6821C75.1658 87.652 74.6231 87.5131 74.1227 87.2733C73.6223 87.0334 73.174 86.6974 72.8034 86.2843C72.4329 85.8712 72.1474 85.3892 71.9631 84.8658C71.7788 84.3424 71.6995 83.7878 71.7296 83.2337L72.4723 69.5224C72.5327 68.404 73.0347 67.3553 73.868 66.6068C74.7013 65.8584 75.7977 65.4715 76.9162 65.5312Z" fill="white" stroke="#1C1D6F" stroke-linecap="round" stroke-linejoin="round"/>
<path d="M72.5508 64.2135C73.5396 64.7406 74.2787 65.6388 74.6055 66.7107C74.9324 67.7825 74.8202 68.9403 74.2937 69.9294L69.2512 79.7443C68.7243 80.7334 67.8261 81.4727 66.7542 81.7995C65.6823 82.1264 64.5244 82.014 63.5353 81.4872C62.5462 80.9603 61.8069 80.0621 61.48 78.9902C61.1532 77.9182 61.2656 76.7604 61.7924 75.7713L66.8349 65.9564C67.362 64.9676 68.2602 64.2285 69.332 63.9017C70.4039 63.5748 71.5616 63.687 72.5508 64.2135Z" fill="white" stroke="#1C1D6F" stroke-linecap="round" stroke-linejoin="round"/>
<path d="M118.596 71.8748C118.663 71.8101 118.733 71.7492 118.807 71.6923C113.057 66.7028 111.639 56.1324 100.579 50.3581C86.0211 42.7551 68.0157 44.5692 52.2002 64.3193C51.8381 64.7492 51.5654 65.2469 51.3981 65.7835C51.2308 66.32 51.1722 66.8845 51.2258 67.444C51.2794 68.0035 51.444 68.5466 51.7101 69.0416C51.9762 69.5367 52.3384 69.9736 52.7755 70.327C53.2126 70.6803 53.7158 70.9428 54.2556 71.0992C54.7954 71.2557 55.361 71.3028 55.9193 71.2379C56.4775 71.173 57.0172 70.9974 57.5068 70.7213C57.9963 70.4452 58.4258 70.0742 58.7702 69.6301C59.819 68.3331 60.8726 67.1256 61.9311 66.0075C62.3031 66.4047 62.7488 66.7257 63.2433 66.9528C79.7906 79.4814 83.1358 81.0728 87.1837 82.6478C93.4434 85.0805 96.2064 86.2558 100.809 90.4223L118.596 71.8748ZM90.0854 62.3173C88.6903 64.0054 86.7488 65.1525 84.597 65.5598C82.4452 65.9671 80.2187 65.6089 78.3032 64.5475L68.5175 60.0726C74.228 55.8933 79.9895 54.1486 85.7273 54.8969C90.6092 55.5247 91.7389 59.8426 90.0781 62.3137L90.0854 62.3173Z" stroke="#1C1D6F" stroke-linecap="round" stroke-linejoin="round"/>
<path d="M86.419 63.1532L80.9111 55.4024L98.0661 43.2169C98.5277 42.8889 99.0493 42.6551 99.6013 42.5288C100.153 42.4025 100.725 42.3861 101.283 42.4807C101.841 42.5753 102.375 42.7789 102.855 43.0799C103.334 43.381 103.75 43.7735 104.078 44.2352L104.591 44.9561C104.918 45.4176 105.152 45.9393 105.279 46.4912C105.405 47.0432 105.421 47.6146 105.327 48.1728C105.232 48.7311 105.028 49.2652 104.727 49.7448C104.426 50.2243 104.034 50.6398 103.572 50.9676L86.419 63.1532Z" fill="#4E50D2"/>
<path d="M86.419 63.1532L80.9111 55.4024L98.0661 43.2169C98.5277 42.8889 99.0493 42.6551 99.6013 42.5288C100.153 42.4025 100.725 42.3861 101.283 42.4807C101.841 42.5753 102.375 42.7789 102.855 43.0799C103.334 43.381 103.75 43.7735 104.078 44.2352L104.591 44.9561C104.918 45.4176 105.152 45.9393 105.279 46.4912C105.405 47.0432 105.421 47.6146 105.327 48.1728C105.232 48.7311 105.028 49.2652 104.727 49.7448C104.426 50.2243 104.034 50.6398 103.572 50.9676L86.419 63.1532Z" stroke="#1C1D6F" stroke-linecap="round" stroke-linejoin="round"/>
<path d="M81.6612 50.9842L93.719 42.4194C94.055 42.1696 94.4381 41.9905 94.8452 41.8927C95.2523 41.7949 95.675 41.7805 96.0878 41.8504C96.5007 41.9203 96.895 42.0731 97.2473 42.2995C97.5995 42.5259 97.9022 42.8212 98.1373 43.1677" stroke="#1C1D6F" stroke-linecap="round" stroke-linejoin="round"/>
<path d="M53.9395 77.1547L45.4696 83.1772C45.2825 83.3074 45.1426 83.4948 45.0709 83.7112C44.9992 83.9276 44.9995 84.1615 45.0719 84.3777C45.1442 84.5939 45.2847 84.7808 45.4722 84.9105C45.6597 85.0402 45.8842 85.1057 46.112 85.0971C49.6635 84.9511 54.7388 84.3068 54.664 81.8285L56.3868 80.6057L53.9395 77.1547Z" fill="#4E50D2" stroke="#1C1D6F" stroke-linecap="round" stroke-linejoin="round"/>
<path d="M57.0036 81.4616L53.9449 77.1546C53.7829 76.9262 53.7182 76.6427 53.7651 76.3665C53.8119 76.0903 53.9666 75.8441 54.1949 75.6819L58.5001 72.6232L62.7834 78.6457L58.4636 81.7025C58.2372 81.8615 57.9574 81.9254 57.6844 81.8803C57.4114 81.8353 57.167 81.685 57.0036 81.4616Z" fill="white"/>
<path d="M57.0036 81.4616L53.9449 77.1546C53.7829 76.9262 53.7182 76.6427 53.7651 76.3665C53.8119 76.0903 53.9666 75.8441 54.1949 75.6819L58.5001 72.6232L62.7834 78.6457L58.4636 81.7025C58.2372 81.8615 57.9574 81.9254 57.6844 81.8803C57.4114 81.8353 57.167 81.685 57.0036 81.4616V81.4616Z" stroke="#1C1D6F" stroke-linecap="round" stroke-linejoin="round"/>
<path d="M62.1665 77.7897L59.1078 73.49C58.947 73.264 58.8324 73.0084 58.7704 72.738C58.7084 72.4676 58.7003 72.1876 58.7466 71.914C58.7928 71.6405 58.8925 71.3787 59.04 71.1437C59.1875 70.9087 59.3799 70.7051 59.6061 70.5445L80.9111 55.4025L86.4171 63.1532L65.1121 78.2898C64.8859 78.4505 64.6302 78.5651 64.3598 78.6269C64.0893 78.6888 63.8092 78.6967 63.5357 78.6503C63.2621 78.6038 63.0004 78.5039 62.7655 78.3563C62.5305 78.2086 62.327 78.0161 62.1665 77.7897Z" fill="#4E50D2"/>
<path d="M62.1665 77.7897L59.1078 73.49C58.947 73.264 58.8324 73.0084 58.7704 72.738C58.7084 72.4676 58.7003 72.1876 58.7466 71.914C58.7928 71.6405 58.8925 71.3787 59.04 71.1437C59.1875 70.9087 59.3799 70.7051 59.6061 70.5445L80.9111 55.4025L86.4171 63.1532L65.1121 78.2898C64.8859 78.4505 64.6302 78.5651 64.3598 78.6269C64.0893 78.6888 63.8092 78.6967 63.5357 78.6503C63.2621 78.6038 63.0004 78.5039 62.7655 78.3563C62.5305 78.2086 62.327 78.0161 62.1665 77.7897Z" stroke="#1C1D6F" stroke-linecap="round" stroke-linejoin="round"/>
<path d="M90.0781 62.3138C88.6839 64.0007 86.7439 65.1473 84.5937 65.5552C82.4435 65.9631 80.2184 65.6067 78.3032 64.5476L66.7509 59.2551C66.2448 59.0142 65.6959 58.8765 65.136 58.8498C64.5762 58.8231 64.0166 58.908 63.4899 59.0996C62.9631 59.2912 62.4798 59.5857 62.0679 59.9658C61.6561 60.346 61.324 60.8043 61.0909 61.314C60.8578 61.8237 60.7284 62.3747 60.7103 62.9349C60.6921 63.4951 60.7856 64.0533 60.9852 64.5771C61.1849 65.1008 61.4867 65.5796 61.8731 65.9856C62.2595 66.3916 62.7228 66.7167 63.236 66.942C79.7833 79.4724 83.1285 81.062 87.1763 82.637" fill="white"/>
<path d="M90.0781 62.3138C88.6839 64.0007 86.7439 65.1473 84.5937 65.5552C82.4435 65.9631 80.2184 65.6067 78.3032 64.5476L66.7509 59.2551C66.2448 59.0142 65.6959 58.8765 65.136 58.8498C64.5762 58.8231 64.0166 58.908 63.4899 59.0996C62.9631 59.2912 62.4798 59.5857 62.0679 59.9658C61.6561 60.346 61.324 60.8043 61.0909 61.314C60.8578 61.8237 60.7284 62.3747 60.7103 62.9349C60.6921 63.4951 60.7856 64.0533 60.9852 64.5771C61.1849 65.1008 61.4867 65.5796 61.8731 65.9856C62.2595 66.3916 62.7228 66.7167 63.236 66.942C79.7833 79.4724 83.1285 81.062 87.1763 82.637" stroke="#1C1D6F" stroke-linecap="round" stroke-linejoin="round"/>
<path d="M90.0781 62.3138C88.6839 64.0007 86.7439 65.1473 84.5937 65.5552C82.4435 65.9631 80.2184 65.6067 78.3032 64.5476L66.7509 59.2551C66.2448 59.0142 65.6959 58.8765 65.136 58.8498C64.5762 58.8231 64.0166 58.908 63.4899 59.0996C62.9631 59.2912 62.4798 59.5857 62.0679 59.9658C61.6561 60.346 61.324 60.8043 61.0909 61.314C60.8578 61.8237 60.7284 62.3747 60.7103 62.9349C60.6921 63.4951 60.7856 64.0533 60.9852 64.5771C61.1849 65.1008 61.4867 65.5796 61.8731 65.9856C62.2595 66.3916 62.7228 66.7167 63.236 66.942C79.7833 79.4724 83.1285 81.062 87.1763 82.637" fill="white"/>
<path d="M90.0781 62.3138C88.6839 64.0007 86.7439 65.1473 84.5937 65.5552C82.4435 65.9631 80.2184 65.6067 78.3032 64.5476L66.7509 59.2551C66.2448 59.0142 65.6959 58.8765 65.136 58.8498C64.5762 58.8231 64.0166 58.908 63.4899 59.0996C62.9631 59.2912 62.4798 59.5857 62.0679 59.9658C61.6561 60.346 61.324 60.8043 61.0909 61.314C60.8578 61.8237 60.7284 62.3747 60.7103 62.9349C60.6921 63.4951 60.7856 64.0533 60.9852 64.5771C61.1849 65.1008 61.4867 65.5796 61.8731 65.9856C62.2595 66.3916 62.7228 66.7167 63.236 66.942C79.7833 79.4724 83.1285 81.062 87.1763 82.637" stroke="#1C1D6F" stroke-linecap="round" stroke-linejoin="round"/>
</svg>
