<svg width="20" height="20" viewBox="0 0 20 20" fill="none" xmlns="http://www.w3.org/2000/svg">
<path d="M12.1712 7.96559C12.2615 8.22655 12.5463 8.36489 12.8073 8.27459C13.0682 8.18429 13.2066 7.89954 13.1163 7.63858L12.1712 7.96559ZM11.125 6.65625L11.147 6.15673C11.1396 6.15641 11.1323 6.15625 11.125 6.15625V6.65625ZM8.875 10.0937V10.5937V10.0937ZM11.125 13.5312V14.0312V13.5312ZM8.875 13.5312L8.85303 14.0308C8.86035 14.0311 8.86768 14.0312 8.875 14.0312V13.5312ZM7.82876 12.2219C7.73846 11.9609 7.45371 11.8226 7.19275 11.9129C6.93179 12.0032 6.79344 12.288 6.88374 12.5489L7.82876 12.2219ZM10.5 4.9375C10.5 4.66136 10.2761 4.4375 10 4.4375C9.72386 4.4375 9.5 4.66136 9.5 4.9375H10.5ZM9.5 6.65625C9.5 6.93239 9.72386 7.15625 10 7.15625C10.2761 7.15625 10.5 6.93239 10.5 6.65625H9.5ZM10.5 13.5312C10.5 13.2551 10.2761 13.0312 10 13.0312C9.72386 13.0312 9.5 13.2551 9.5 13.5312H10.5ZM9.5 15.25C9.5 15.5261 9.72386 15.75 10 15.75C10.2761 15.75 10.5 15.5261 10.5 15.25H9.5ZM13.1163 7.63858C12.9722 7.22218 12.7085 6.85776 12.3578 6.59314L11.7555 7.39143C11.9461 7.53522 12.0914 7.73486 12.1712 7.96559L13.1163 7.63858ZM12.3578 6.59314C12.0069 6.32844 11.5853 6.17601 11.147 6.15673L11.103 7.15577C11.3378 7.16609 11.565 7.24773 11.7555 7.39143L12.3578 6.59314ZM11.125 6.15625H8.875V7.15625H11.125V6.15625ZM8.875 6.15625C8.29185 6.15625 7.73447 6.39228 7.32498 6.80936L8.03854 7.50995C8.26197 7.28238 8.56305 7.15625 8.875 7.15625V6.15625ZM7.32498 6.80936C6.91578 7.22614 6.6875 7.78948 6.6875 8.375H7.6875C7.6875 8.04884 7.8148 7.73784 8.03854 7.50995L7.32498 6.80936ZM6.6875 8.375C6.6875 8.96052 6.91578 9.52386 7.32498 9.94063L8.03854 9.24004C7.8148 9.01216 7.6875 8.70116 7.6875 8.375H6.6875ZM7.32498 9.94063C7.73448 10.3577 8.29185 10.5937 8.875 10.5937V9.59375C8.56305 9.59375 8.26197 9.46762 8.03854 9.24004L7.32498 9.94063ZM8.875 10.5937H11.125V9.59375H8.875V10.5937ZM11.125 10.5937C11.437 10.5937 11.738 10.7199 11.9615 10.9475L12.675 10.2469C12.2655 9.82978 11.7082 9.59375 11.125 9.59375V10.5937ZM11.9615 10.9475C12.1852 11.1753 12.3125 11.4863 12.3125 11.8125H13.3125C13.3125 11.227 13.0842 10.6636 12.675 10.2469L11.9615 10.9475ZM12.3125 11.8125C12.3125 12.1387 12.1852 12.4497 11.9615 12.6775L12.675 13.3781C13.0842 12.9614 13.3125 12.398 13.3125 11.8125H12.3125ZM11.9615 12.6775C11.738 12.9051 11.437 13.0312 11.125 13.0312V14.0312C11.7082 14.0312 12.2655 13.7952 12.675 13.3781L11.9615 12.6775ZM11.125 13.0312H8.875V14.0312H11.125V13.0312ZM8.89697 13.0317C8.66223 13.0214 8.43496 12.9398 8.24449 12.7961L7.64221 13.5944C7.99307 13.8591 8.41474 14.0115 8.85303 14.0308L8.89697 13.0317ZM8.24449 12.7961C8.0539 12.6523 7.9086 12.4526 7.82876 12.2219L6.88374 12.5489C7.02783 12.9653 7.29147 13.3297 7.64221 13.5944L8.24449 12.7961ZM9.5 4.9375V6.65625H10.5V4.9375H9.5ZM9.5 13.5312V15.25H10.5V13.5312H9.5ZM18.5 10C18.5 14.6944 14.6944 18.5 10 18.5V19.5C15.2467 19.5 19.5 15.2467 19.5 10H18.5ZM10 18.5C5.30558 18.5 1.5 14.6944 1.5 10H0.5C0.5 15.2467 4.75329 19.5 10 19.5V18.5ZM1.5 10C1.5 5.30558 5.30558 1.5 10 1.5V0.5C4.75329 0.5 0.5 4.75329 0.5 10H1.5ZM10 1.5C14.6944 1.5 18.5 5.30558 18.5 10H19.5C19.5 4.75329 15.2467 0.5 10 0.5V1.5Z" fill="#4E50D2"/>
</svg>
