<svg width="24" height="24" viewBox="0 0 24 24" fill="none" xmlns="http://www.w3.org/2000/svg">
<path d="M4.60205 16.3095L3.08805 17.8205C2.91452 17.9752 2.79966 18.185 2.76286 18.4145C2.72606 18.6441 2.76957 18.8793 2.88605 19.0805L4.99605 21.0945C5.27805 21.3865 5.84305 21.2665 6.28705 20.8525L7.71005 19.3325M18.1561 16.3195C15.5731 18.4045 12.9791 17.8105 11.6871 17.8105C10.3951 17.8105 10.3141 18.0725 9.36605 19.0805C9.24653 19.2087 9.1023 19.3114 8.94205 19.3825C8.78346 19.4546 8.61127 19.4919 8.43705 19.4919C8.26284 19.4919 8.09064 19.4546 7.93205 19.3825C7.7685 19.3122 7.62112 19.2091 7.49905 19.0795L4.90505 16.5115C4.77306 16.3833 4.66979 16.2285 4.60205 16.0575C4.53386 15.8948 4.49949 15.7199 4.50105 15.5435C4.49742 15.3675 4.53161 15.1927 4.60131 15.0311C4.671 14.8695 4.77458 14.7246 4.90505 14.6065C5.91405 13.6595 6.19705 13.4785 6.19705 12.2795C6.19705 10.7695 5.48005 7.90747 8.43705 4.94547C9.15481 4.22386 10.0137 3.65807 10.9601 3.28347C11.9224 2.90168 12.9534 2.72327 13.9881 2.75947C15.0282 2.79092 16.0502 3.03933 16.9887 3.48879C17.9273 3.93824 18.7615 4.57882 19.4381 5.36947C20.4525 6.55243 21.0743 8.02132 21.2176 9.57306C21.3609 11.1248 21.0186 12.6827 20.2381 14.0315C19.7196 14.9275 19.0213 15.7065 18.1871 16.3195H18.1561Z" stroke="#4E50D2" stroke-width="1.5" stroke-linecap="round" stroke-linejoin="round"/>
<path d="M15.2481 5.87842L10.1851 10.1514C10.1439 10.1827 10.1115 10.224 10.0911 10.2714C10.0688 10.3202 10.0566 10.3729 10.0551 10.4264C10.0654 10.4767 10.0884 10.5236 10.1221 10.5624C10.1637 10.583 10.2096 10.5936 10.2561 10.5934L13.1691 11.2734L11.9091 14.6554C11.8995 14.675 11.8948 14.6966 11.8951 14.7184L11.9471 14.7304L12.0091 14.7444L17.0721 10.4714C17.1146 10.4751 17.1574 10.4662 17.195 10.446C17.2327 10.4257 17.2636 10.395 17.2841 10.3574C17.3101 10.31 17.3229 10.2565 17.3211 10.2024C17.3107 10.1521 17.2877 10.1053 17.2541 10.0664C17.2121 10.0457 17.1659 10.0351 17.1191 10.0354L14.2171 9.35842L15.3891 6.02042C15.3963 6.01201 15.4014 6.00201 15.404 5.99123C15.4066 5.98045 15.4066 5.9692 15.4041 5.95842L15.3411 5.94442L15.2481 5.87842Z" stroke="#4E50D2" stroke-width="1.5" stroke-linecap="round" stroke-linejoin="round"/>
</svg>
