<svg width="22" height="21" viewBox="0 0 22 21" fill="none" xmlns="http://www.w3.org/2000/svg">
<path d="M19.1667 2.33333V18.6667H2.83333V2.33333H19.1667ZM19.1667 0H2.83333C1.55 0 0.5 1.05 0.5 2.33333V18.6667C0.5 19.95 1.55 21 2.83333 21H19.1667C20.45 21 21.5 19.95 21.5 18.6667V2.33333C21.5 1.05 20.45 0 19.1667 0ZM8.66667 17.5V12.8333H9.83333V9.91667C9.83333 8.63333 8.78333 7.58333 7.5 7.58333H6.33333C5.05 7.58333 4 8.63333 4 9.91667V12.8333H5.16667V17.5H8.66667ZM6.91667 6.41667C7.30344 6.41667 7.67437 6.26302 7.94786 5.98953C8.22135 5.71604 8.375 5.34511 8.375 4.95833C8.375 4.57156 8.22135 4.20063 7.94786 3.92714C7.67437 3.65365 7.30344 3.5 6.91667 3.5C6.52989 3.5 6.15896 3.65365 5.88547 3.92714C5.61198 4.20063 5.45833 4.57156 5.45833 4.95833C5.45833 5.34511 5.61198 5.71604 5.88547 5.98953C6.15896 6.26302 6.52989 6.41667 6.91667 6.41667ZM18 9.33333L15.0833 4.66667L12.1667 9.33333H18ZM12.1667 11.6667L15.0833 16.3333L18 11.6667H12.1667Z" fill="#4E50D2"/>
</svg>
