<svg width="24" height="24" viewBox="0 0 24 24" fill="none" xmlns="http://www.w3.org/2000/svg">
<path d="M21 11.1154V5.00537C21 4.47494 20.7893 3.96623 20.4142 3.59116C20.0391 3.21608 19.5304 3.00537 19 3.00537H14.82C14.4 1.84537 13.3 1.00537 12 1.00537C10.7 1.00537 9.6 1.84537 9.18 3.00537H5C3.9 3.00537 3 3.90537 3 5.00537V19.0054C3 19.5358 3.21071 20.0445 3.58579 20.4196C3.96086 20.7947 4.46957 21.0054 5 21.0054H11.11C12.37 22.2454 14.09 23.0054 16 23.0054C19.87 23.0054 23 19.8754 23 16.0054C23 14.0954 22.24 12.3754 21 11.1154ZM12 3.00537C12.55 3.00537 13 3.45537 13 4.00537C13 4.55537 12.55 5.00537 12 5.00537C11.45 5.00537 11 4.55537 11 4.00537C11 3.45537 11.45 3.00537 12 3.00537ZM5 19.0054V5.00537H7V7.00537H17V5.00537H19V9.68537C18.09 9.25537 17.08 9.00537 16 9.00537H7V11.0054H11.1C10.5 11.5754 10.04 12.2554 9.68 13.0054H7V15.0054H9.08C9.03 15.3354 9 15.6654 9 16.0054C9 17.0854 9.25 18.0954 9.68 19.0054H5ZM16 21.0054C13.24 21.0054 11 18.7654 11 16.0054C11 13.2454 13.24 11.0054 16 11.0054C18.76 11.0054 21 13.2454 21 16.0054C21 18.7654 18.76 21.0054 16 21.0054ZM16.5 16.2554L19.36 17.9454L18.61 19.1654L15 17.0054V12.0054H16.5V16.2554Z" fill="#4E50D2"/>
</svg>
