<svg width="16" height="16" viewBox="0 0 16 16" fill="none" xmlns="http://www.w3.org/2000/svg">
<path d="M13.5 14.0054H5.707L14 5.71237V13.5054C14 13.638 13.9473 13.7652 13.8536 13.8589C13.7598 13.9527 13.6326 14.0054 13.5 14.0054ZM11.5 2.00537H14V4.29837L4.293 14.0054H2V11.5054C2 11.3728 2.05268 11.2456 2.14645 11.1518C2.24021 11.058 2.36739 11.0054 2.5 11.0054H5V8.50537C5 8.37276 5.05268 8.24559 5.14645 8.15182C5.24021 8.05805 5.36739 8.00537 5.5 8.00537H8V5.50537C8 5.37276 8.05268 5.24559 8.14645 5.15182C8.24021 5.05805 8.36739 5.00537 8.5 5.00537H11V2.50537C11 2.37276 11.0527 2.24559 11.1464 2.15182C11.2402 2.05805 11.3674 2.00537 11.5 2.00537Z" fill="#4E50D2"/>
</svg>
