<svg width="18" height="19" viewBox="0 0 18 19" fill="none" xmlns="http://www.w3.org/2000/svg">
<g clip-path="url(#clip0_907_9859)">
<path d="M18 5.70875C17.9788 4.54764 17.5068 3.44032 16.6838 2.621L14.7803 0.71975C14.6388 0.583131 14.4493 0.507536 14.2527 0.509244C14.0561 0.510953 13.8679 0.58983 13.7289 0.728886C13.5898 0.867942 13.511 1.05605 13.5092 1.2527C13.5075 1.44935 13.5831 1.6388 13.7197 1.78025L15 3.0605V5C15 5.39782 15.158 5.77936 15.4393 6.06066C15.7206 6.34196 16.1022 6.5 16.5 6.5V14C16.5 14.1989 16.421 14.3897 16.2803 14.5303C16.1397 14.671 15.9489 14.75 15.75 14.75C15.5511 14.75 15.3603 14.671 15.2197 14.5303C15.079 14.3897 15 14.1989 15 14V13.25C15 12.6533 14.7629 12.081 14.341 11.659C13.919 11.2371 13.3467 11 12.75 11H12V4.25C11.9988 3.2558 11.6033 2.30267 10.9003 1.59966C10.1973 0.896661 9.2442 0.501191 8.25 0.5L3.75 0.5C2.7558 0.501191 1.80267 0.896661 1.09966 1.59966C0.396661 2.30267 0.00119089 3.2558 0 4.25L0 14.75C0.00119089 15.7442 0.396661 16.6973 1.09966 17.4003C1.80267 18.1033 2.7558 18.4988 3.75 18.5H8.25C9.2442 18.4988 10.1973 18.1033 10.9003 17.4003C11.6033 16.6973 11.9988 15.7442 12 14.75V12.5H12.75C12.9489 12.5 13.1397 12.579 13.2803 12.7197C13.421 12.8603 13.5 13.0511 13.5 13.25V14C13.5 14.5967 13.7371 15.169 14.159 15.591C14.581 16.0129 15.1533 16.25 15.75 16.25C16.3467 16.25 16.919 16.0129 17.341 15.591C17.7629 15.169 18 14.5967 18 14C18 14 18 5.72225 18 5.70875ZM3.75 2H8.25C8.84674 2 9.41903 2.23705 9.84099 2.65901C10.2629 3.08097 10.5 3.65326 10.5 4.25V7.25H1.5V4.25C1.5 3.65326 1.73705 3.08097 2.15901 2.65901C2.58097 2.23705 3.15326 2 3.75 2ZM10.5 14.75C10.5 15.3467 10.2629 15.919 9.84099 16.341C9.41903 16.7629 8.84674 17 8.25 17H3.75C3.15326 17 2.58097 16.7629 2.15901 16.341C1.73705 15.919 1.5 15.3467 1.5 14.75V8.75H10.5V14.75Z" fill="#4E50D2"/>
</g>
<defs>
<clipPath id="clip0_907_9859">
<rect width="18" height="18" fill="white" transform="translate(0 0.5)"/>
</clipPath>
</defs>
</svg>
