<svg width="22" height="22" viewBox="0 0 22 22" fill="none" xmlns="http://www.w3.org/2000/svg">
<g clip-path="url(#clip0_15_462)">
<path d="M11 2.75075C9.91893 2.75063 8.84842 2.96346 7.8496 3.37709C6.85078 3.79072 5.94322 4.39704 5.17875 5.16143C4.41427 5.92582 3.80785 6.83331 3.39411 7.83209C2.98037 8.83086 2.76742 9.90135 2.76742 10.9824C2.76742 13.1366 3.59242 15.0964 4.94726 16.5649L5.56876 17.2378L4.22126 18.4808L3.59976 17.807C1.88325 15.9495 0.931227 13.5125 0.934088 10.9833C0.934088 5.42375 5.44042 0.916504 10.9991 0.916504C16.5587 0.916504 21.065 5.42284 21.065 10.9815C21.065 13.6151 20.0539 16.014 18.3993 17.8061L17.7778 18.4798L16.4303 17.2368L17.0518 16.5631C18.456 15.0442 19.2346 13.0509 19.2317 10.9824C19.2318 9.90135 19.019 8.83084 18.6053 7.83202C18.1917 6.8332 17.5854 5.92564 16.821 5.16116C16.0566 4.39668 15.1491 3.79026 14.1503 3.37652C13.1516 2.96279 12.0811 2.75075 11 2.75075ZM11 6.87484C10.1985 6.87496 9.41438 7.10859 8.7435 7.54717C8.07263 7.98575 7.54405 8.61027 7.22239 9.34441C6.90074 10.0786 6.79992 10.8905 6.93228 11.681C7.06463 12.4715 7.42442 13.2063 7.96767 13.7957L8.58917 14.4694L7.24167 15.7124L6.62017 15.0387C5.83523 14.1874 5.31532 13.1259 5.12401 11.9839C4.93271 10.8419 5.0783 9.66895 5.54297 8.60838C6.00765 7.5478 6.77129 6.6456 7.74052 6.01208C8.70974 5.37857 9.84256 5.04118 11.0005 5.04118C12.1584 5.04118 13.2912 5.37857 14.2604 6.01208C15.2296 6.6456 15.9933 7.5478 16.458 8.60838C16.9226 9.66895 17.0682 10.8419 16.8769 11.9839C16.6856 13.1259 16.1657 14.1874 15.3808 15.0387L14.7583 15.7124L13.4108 14.4694L14.0323 13.7957C14.5756 13.2063 14.9354 12.4715 15.0677 11.681C15.2001 10.8905 15.0993 10.0786 14.7776 9.34441C14.456 8.61027 13.9274 7.98575 13.2565 7.54717C12.5856 7.10859 11.8015 6.87496 11 6.87484ZM9.16667 10.9998C9.16667 10.5136 9.35983 10.0473 9.70364 9.70348C10.0475 9.35966 10.5138 9.1665 11 9.1665C11.4862 9.1665 11.9525 9.35966 12.2964 9.70348C12.6402 10.0473 12.8333 10.5136 12.8333 10.9998C12.8333 11.4861 12.6402 11.9524 12.2964 12.2962C11.9525 12.64 11.4862 12.8332 11 12.8332C10.5138 12.8332 10.0475 12.64 9.70364 12.2962C9.35983 11.9524 9.16667 11.4861 9.16667 10.9998ZM10.9514 14.6353L15.5247 21.0832H6.37909L10.9514 14.6353ZM10.9514 17.8043L9.9275 19.248H11.9763L10.9514 17.8043Z" fill="#2F2E2E" fill-opacity="0.8"/>
</g>
<defs>
<clipPath id="clip0_15_462">
<rect width="22" height="22" fill="white"/>
</clipPath>
</defs>
</svg>
