<svg width="15" height="14" viewBox="0 0 15 14" fill="none" xmlns="http://www.w3.org/2000/svg">
<path d="M7.17619 12.9999L6.18683 12.1229C2.67319 8.99338 0.353272 6.93133 0.353272 4.40442C0.353185 3.91477 0.450715 3.43002 0.640162 2.9785C0.829608 2.52699 1.10717 2.11777 1.45661 1.77477C1.80606 1.43178 2.22038 1.16189 2.67534 0.980894C3.13031 0.799893 3.6168 0.711412 4.10636 0.720622C4.68777 0.724134 5.26186 0.850595 5.79094 1.0917C6.32001 1.33281 6.79209 1.6831 7.17619 2.11959C7.56039 1.68299 8.03262 1.33263 8.56185 1.09152C9.09108 0.850411 9.66534 0.724011 10.2469 0.720622C10.7365 0.711412 11.223 0.799893 11.6779 0.980894C12.1329 1.16189 12.5472 1.43178 12.8967 1.77477C13.2461 2.11777 13.5237 2.52699 13.7131 2.9785C13.9025 3.43002 14.0001 3.91477 14 4.40442C14 6.93396 11.6801 8.99601 8.16643 12.1281L7.17619 12.9999Z" stroke="#222222" stroke-opacity="0.5" stroke-width="0.7" stroke-linejoin="round"/>
</svg>
