<svg width="34" height="25" viewBox="0 0 34 25" fill="none" xmlns="http://www.w3.org/2000/svg">
<path d="M33.6222 20.6773L32.8246 20.0931C32.671 19.9804 32.4856 19.9196 32.2951 19.9196C32.1046 19.9196 31.9192 19.9804 31.7657 20.0931L31.0986 20.5804L30.4315 20.0931L30.4006 20.072V9.32993H31.7628C32.0004 9.32956 32.228 9.23504 32.396 9.06709C32.5639 8.89914 32.6585 8.67145 32.6588 8.43394V6.88912C32.6585 6.6516 32.5639 6.42392 32.396 6.25597C32.228 6.08802 32.0004 5.9935 31.7628 5.99313H30.9595L29.1338 2.47094C29.0254 2.2593 28.8606 2.08172 28.6577 1.95781C28.4547 1.8339 28.2214 1.76848 27.9836 1.76875H11.4429L10.3854 1.06657C10.2386 0.969275 10.0664 0.917389 9.89033 0.917389C9.71424 0.917389 9.54207 0.969275 9.3953 1.06657L1.88328 6.05211C1.68515 6.18324 1.54721 6.38769 1.4998 6.6205C1.4524 6.85331 1.4994 7.09542 1.63048 7.29358L2.48154 8.57859C2.59763 8.75466 2.7722 8.88406 2.97443 8.94393C3.17665 9.0038 3.39354 8.9903 3.58678 8.90581V20.0748L3.55588 20.0959L2.8888 20.5832L2.22312 20.0959C2.06961 19.9832 1.88412 19.9224 1.69367 19.9224C1.50322 19.9224 1.31774 19.9832 1.16422 20.0959L0.203641 20.7981C0.140484 20.8443 0.0891077 20.9047 0.053723 20.9745C0.0183382 21.0443 -6.20732e-05 21.1215 1.57325e-07 21.1997V24.5014C1.57325e-07 24.6337 0.0525211 24.7605 0.146018 24.854C0.239515 24.9475 0.366324 25 0.498549 25H33.5015C33.6337 25 33.7605 24.9475 33.854 24.854C33.9475 24.7605 34 24.6337 34 24.5014V21.4034C33.999 21.2611 33.9642 21.1211 33.8986 20.9948C33.8329 20.8686 33.7382 20.7598 33.6222 20.6773ZM30.6014 21.4511V24.0057H29.2069V21.4539L29.9091 20.9427L30.6014 21.4511ZM26.8096 24.0029V21.4539L27.5118 20.9427L28.214 21.4539V24.0057L26.8096 24.0029ZM29.4007 20.0706L29.3698 20.0917L28.7041 20.579L28.037 20.0917C27.8835 19.979 27.698 19.9182 27.5076 19.9182C27.3171 19.9182 27.1316 19.979 26.9781 20.0917L26.1804 20.6759C26.0669 20.7592 25.9745 20.8681 25.9108 20.9938C25.8471 21.1194 25.8139 21.2583 25.8139 21.3992V24.0057H23.6188V22.3541C23.6185 22.0108 23.4819 21.6817 23.2392 21.439C22.9964 21.1962 22.6673 21.0597 22.324 21.0593H17.0014C16.6582 21.06 16.3293 21.1967 16.0866 21.4394C15.844 21.682 15.7073 22.011 15.7066 22.3541V24.0057H13.5129V21.5831C13.5062 21.4557 13.4507 21.3357 13.3581 21.2478C13.2655 21.16 13.1427 21.111 13.0151 21.111C12.8874 21.111 12.7646 21.16 12.672 21.2478C12.5794 21.3357 12.524 21.4557 12.5172 21.5831V24.0057H10.832V15.6215C11.311 15.7334 11.7382 16.0038 12.0442 16.3891C12.3501 16.7743 12.5168 17.2516 12.5172 17.7436V19.2589C12.524 19.3864 12.5794 19.5064 12.672 19.5942C12.7646 19.682 12.8874 19.731 13.0151 19.731C13.1427 19.731 13.2655 19.682 13.3581 19.5942C13.4507 19.5064 13.5062 19.3864 13.5129 19.2589V17.7394C13.5146 17.3219 13.4333 16.9083 13.2736 16.5225C13.114 16.1368 12.8794 15.7866 12.5832 15.4923C12.1374 15.0526 11.5719 14.7541 10.9573 14.6341C10.3428 14.5142 9.70646 14.5781 9.12803 14.8179C8.54961 15.0577 8.05474 15.4628 7.70535 15.9824C7.35597 16.5021 7.16757 17.1132 7.16373 17.7394V20.2195L6.99522 20.0959C6.8417 19.9832 6.65622 19.9224 6.46577 19.9224C6.27531 19.9224 6.08981 19.9832 5.9363 20.0959L5.26923 20.5832L4.60355 20.0959L4.57265 20.0748V8.26401L9.88823 4.74323L16.5871 9.18107C16.734 9.27732 16.9058 9.32857 17.0815 9.32853H29.4091L29.4007 20.0706ZM22.6231 24.0029H16.7023V22.3541C16.7023 22.2748 16.7338 22.1987 16.7899 22.1426C16.846 22.0865 16.9221 22.055 17.0014 22.055H22.3254C22.4045 22.0554 22.4802 22.0871 22.536 22.1431C22.5918 22.1992 22.6231 22.275 22.6231 22.3541V24.0029ZM9.8433 24.0029H8.15802V17.7394C8.1587 17.2475 8.32552 16.7703 8.63141 16.3851C8.93731 15.9999 9.36436 15.7294 9.8433 15.6173V24.0029ZM2.51102 6.82733L9.88823 1.93868L17.2893 6.84137C17.4361 6.93907 17.6087 6.99089 17.7851 6.99024H21.9659C22.0933 6.98346 22.2134 6.92806 22.3012 6.83544C22.389 6.74281 22.438 6.62003 22.438 6.49238C22.438 6.36474 22.389 6.24195 22.3012 6.14933C22.2134 6.05671 22.0933 6.0013 21.9659 5.99453H17.8174L12.947 2.76446H27.9893C28.0441 2.76417 28.098 2.77912 28.1448 2.80763C28.1917 2.83615 28.2297 2.87711 28.2547 2.92596L29.8416 5.99032H24.2901C24.1627 5.99709 24.0427 6.0525 23.9548 6.14512C23.867 6.23774 23.818 6.36052 23.818 6.48817C23.818 6.61582 23.867 6.7386 23.9548 6.83122C24.0427 6.92384 24.1627 6.97925 24.2901 6.98602H31.6659V8.33282H17.1124L10.3854 3.87673C10.2386 3.77944 10.0664 3.72755 9.89033 3.72755C9.71424 3.72755 9.54207 3.77944 9.3953 3.87673L3.25114 7.94943L2.51102 6.82733ZM0.988676 24.0057V21.4539L1.69087 20.9441L2.39305 21.4539V24.0057H0.988676ZM3.37612 24.0057V21.4539L4.0783 20.9441L4.78049 21.4539V24.0057H3.37612ZM5.76358 21.4539L6.46577 20.9441L7.16796 21.4539V24.0057H5.772L5.76358 21.4539ZM31.5999 24.0057V21.4539L32.3021 20.9427L33.0043 21.4539V24.0057H31.5999Z" fill="#4E50D2"/>
<path d="M11.0482 8.19942H8.73236C8.38907 8.19979 8.05994 8.33633 7.81719 8.57908C7.57444 8.82183 7.4379 9.15096 7.43753 9.49425V11.2497C7.4379 11.593 7.57444 11.9222 7.81719 12.1649C8.05994 12.4077 8.38907 12.5442 8.73236 12.5446H11.0482C11.3915 12.5442 11.7206 12.4077 11.9634 12.1649C12.2061 11.9222 12.3426 11.593 12.343 11.2497V9.49425C12.3426 9.15096 12.2061 8.82183 11.9634 8.57908C11.7206 8.33633 11.3915 8.19979 11.0482 8.19942ZM8.43323 11.2497V9.49425C8.43323 9.41492 8.46476 9.33883 8.52086 9.28274C8.57696 9.22664 8.65303 9.19512 8.73236 9.19512H9.39103V11.5418H8.73236C8.65303 11.5418 8.57696 11.5103 8.52086 11.4542C8.46476 11.3981 8.43323 11.322 8.43323 11.2427M11.3473 11.2427C11.3473 11.322 11.3158 11.3981 11.2597 11.4542C11.2036 11.5103 11.1275 11.5418 11.0482 11.5418H10.3881V9.19512H11.0482C11.1275 9.19512 11.2036 9.22664 11.2597 9.28274C11.3158 9.33883 11.3473 9.41492 11.3473 9.49425V11.2427Z" fill="#4E50D2"/>
<path d="M23.8718 18.0287H26.9853C27.223 18.0283 27.4509 17.9336 27.6189 17.7653C27.7869 17.5971 27.8813 17.369 27.8813 17.1313V11.7483C27.8809 11.5108 27.7864 11.2831 27.6184 11.1151C27.4505 10.9472 27.2228 10.8527 26.9853 10.8523H23.8718C23.6342 10.8527 23.4066 10.9472 23.2386 11.1151C23.0707 11.2831 22.9761 11.5108 22.9758 11.7483V17.1256C22.9758 17.3634 23.0701 17.5914 23.2381 17.7597C23.4061 17.928 23.634 18.0227 23.8718 18.023M23.9715 16.0302H26.8856V17.0259H23.9715V16.0302ZM26.8856 15.0345H25.9264V11.8536H26.8856V15.0345ZM24.9307 15.0345H23.9715V11.8536H24.9307V15.0345Z" fill="#4E50D2"/>
<path d="M16.545 11.7483V17.1256C16.545 17.3634 16.6393 17.5914 16.8073 17.7597C16.9753 17.928 17.2032 18.0227 17.441 18.023H20.5545C20.7922 18.0227 21.0201 17.928 21.1881 17.7597C21.3561 17.5914 21.4505 17.3634 21.4505 17.1256V11.7483C21.4501 11.5108 21.3556 11.2831 21.1876 11.1151C21.0197 10.9472 20.792 10.8527 20.5545 10.8523H17.441C17.2035 10.8527 16.9758 10.9472 16.8078 11.1151C16.6399 11.2831 16.5454 11.5108 16.545 11.7483ZM17.5407 16.0302H20.4548V17.0259H17.5407V16.0302ZM20.4548 15.0345H19.4942V11.8536H20.4534L20.4548 15.0345ZM18.4999 15.0345H17.5407V11.8536H18.4999V15.0345Z" fill="#4E50D2"/>
</svg>
