<svg width="25" height="24" viewBox="0 0 25 24" fill="none" xmlns="http://www.w3.org/2000/svg">
<path d="M12.5 12.8333C13.1981 12.8333 13.8802 13.042 14.4587 13.4326C15.0372 13.8232 15.4857 14.3778 15.7466 15.0252C16.0075 15.6727 16.0688 16.3833 15.9227 17.0659C15.7766 17.7485 15.4298 18.3717 14.9267 18.8557L12.6984 21H16V23.3333H9.00004V21.322L13.3085 17.1745C13.4476 17.0409 13.5513 16.8749 13.6104 16.6913C13.6696 16.5078 13.6824 16.3125 13.6475 16.1228C13.6127 15.9331 13.5315 15.7551 13.411 15.6045C13.2905 15.4539 13.1346 15.3356 12.9572 15.26C12.7798 15.1845 12.5864 15.1541 12.3943 15.1715C12.2023 15.189 12.0176 15.2538 11.8567 15.3601C11.6959 15.4665 11.5639 15.611 11.4725 15.7809C11.3812 15.9507 11.3334 16.1405 11.3334 16.3333H9.00004C9.00004 15.4051 9.36879 14.5148 10.0252 13.8585C10.6815 13.2021 11.5718 12.8333 12.5 12.8333ZM19.5 12.8333V17.5H21.8334V12.8333H24.1667V23.3333H21.8334V19.8333H17.1667V12.8333H19.5ZM3.16671 11.6667C3.16527 13.0662 3.47918 14.448 4.08511 15.7096C4.69104 16.9711 5.57342 18.08 6.66671 18.9537V21.7723C4.89245 20.7487 3.41916 19.2757 2.39512 17.5016C1.37108 15.7276 0.832426 13.7151 0.833375 11.6667H3.16671ZM12.5 5.849e-06C18.5492 5.849e-06 23.5239 4.60484 24.1084 10.5H21.761C21.5238 8.61902 20.7195 6.85485 19.455 5.44223C18.1906 4.02961 16.5259 3.0355 14.6826 2.59218C12.8393 2.14886 10.9047 2.27735 9.13615 2.96054C7.36764 3.64373 5.84909 4.84924 4.78254 6.41667H7.83337V8.75001H0.833375V1.75001H3.16671V4.66667C4.25216 3.21637 5.66105 2.03935 7.28132 1.22922C8.90158 0.419086 10.6885 -0.00180975 12.5 5.849e-06Z" fill="#4E50D2"/>
</svg>
