<svg width="24" height="18" viewBox="0 0 24 18" fill="none" xmlns="http://www.w3.org/2000/svg">
<path d="M3.2 17.0002V17.8002H4.8V17.0002H3.2ZM11.2 17.0002V17.8002H12.8V17.0002H11.2ZM4.8 17.0002V16.2002H3.2V17.0002H4.8ZM11.2 16.2002V17.0002H12.8V16.2002H11.2ZM8 13.0002C8.84869 13.0002 9.66263 13.3373 10.2627 13.9375C10.8629 14.5376 11.2 15.3515 11.2 16.2002H12.8C12.8 14.9272 12.2943 13.7063 11.3941 12.8061C10.4939 11.9059 9.27304 11.4002 8 11.4002V13.0002ZM4.8 16.2002C4.8 15.3515 5.13714 14.5376 5.73726 13.9375C6.33737 13.3373 7.15131 13.0002 8 13.0002V11.4002C6.72696 11.4002 5.50606 11.9059 4.60589 12.8061C3.70571 13.7063 3.2 14.9272 3.2 16.2002H4.8ZM8 3.4002C7.15131 3.4002 6.33737 3.73734 5.73726 4.33745C5.13714 4.93757 4.8 5.7515 4.8 6.6002H6.4C6.4 6.17585 6.56857 5.76888 6.86863 5.46882C7.16869 5.16877 7.57565 5.0002 8 5.0002V3.4002ZM11.2 6.6002C11.2 5.7515 10.8629 4.93757 10.2627 4.33745C9.66263 3.73734 8.84869 3.4002 8 3.4002V5.0002C8.42435 5.0002 8.83131 5.16877 9.13137 5.46882C9.43143 5.76888 9.6 6.17585 9.6 6.6002H11.2ZM8 9.8002C8.84869 9.8002 9.66263 9.46305 10.2627 8.86294C10.8629 8.26282 11.2 7.44889 11.2 6.6002H9.6C9.6 7.02454 9.43143 7.43151 9.13137 7.73157C8.83131 8.03162 8.42435 8.2002 8 8.2002V9.8002ZM8 8.2002C7.57565 8.2002 7.16869 8.03162 6.86863 7.73157C6.56857 7.43151 6.4 7.02454 6.4 6.6002H4.8C4.8 7.44889 5.13714 8.26282 5.73726 8.86294C6.33737 9.46305 7.15131 9.8002 8 9.8002V8.2002ZM2.4 1.8002H21.6V0.200195H2.4V1.8002ZM22.4 2.6002V15.4002H24V2.6002H22.4ZM21.6 16.2002H2.4V17.8002H21.6V16.2002ZM1.6 15.4002V2.6002H0V15.4002H1.6ZM2.4 16.2002C2.18783 16.2002 1.98434 16.1159 1.83431 15.9659C1.68429 15.8159 1.6 15.6124 1.6 15.4002H0C0 16.0367 0.252856 16.6472 0.702944 17.0973C1.15303 17.5473 1.76348 17.8002 2.4 17.8002V16.2002ZM22.4 15.4002C22.4 15.6124 22.3157 15.8159 22.1657 15.9659C22.0157 16.1159 21.8122 16.2002 21.6 16.2002V17.8002C22.2365 17.8002 22.847 17.5473 23.2971 17.0973C23.7471 16.6472 24 16.0367 24 15.4002H22.4ZM21.6 1.8002C21.8122 1.8002 22.0157 1.88448 22.1657 2.03451C22.3157 2.18454 22.4 2.38802 22.4 2.6002H24C24 1.96368 23.7471 1.35323 23.2971 0.903139C22.847 0.453052 22.2365 0.200195 21.6 0.200195V1.8002ZM2.4 0.200195C1.76348 0.200195 1.15303 0.453052 0.702944 0.903139C0.252856 1.35323 0 1.96368 0 2.6002H1.6C1.6 2.38802 1.68429 2.18454 1.83431 2.03451C1.98434 1.88448 2.18783 1.8002 2.4 1.8002V0.200195ZM14.4 6.6002H19.2V5.0002H14.4V6.6002ZM14.4 11.4002H19.2V9.8002H14.4V11.4002Z" fill="#4E50D2"/>
</svg>
