<svg width="19" height="17" viewBox="0 0 19 17" fill="none" xmlns="http://www.w3.org/2000/svg">
<path d="M14.8939 16.2571C13.9013 16.2571 13.0624 15.9144 12.377 15.2291C11.6917 14.5437 11.349 13.7047 11.349 12.7122C11.349 11.7196 11.6917 10.8806 12.377 10.1953C13.0624 9.50991 13.9013 9.16724 14.8939 9.16724C15.8865 9.16724 16.7255 9.50991 17.4108 10.1953C18.0962 10.8806 18.4388 11.7196 18.4388 12.7122C18.4388 13.7047 18.0962 14.5437 17.4108 15.2291C16.7255 15.9144 15.8865 16.2571 14.8939 16.2571ZM14.8939 14.3665C15.3508 14.3665 15.7408 14.205 16.0637 13.882C16.3867 13.559 16.5482 13.1691 16.5482 12.7122C16.5482 12.2553 16.3867 11.8653 16.0637 11.5423C15.7408 11.2194 15.3508 11.0579 14.8939 11.0579C14.437 11.0579 14.0471 11.2194 13.7241 11.5423C13.4011 11.8653 13.2396 12.2553 13.2396 12.7122C13.2396 13.1691 13.4011 13.559 13.7241 13.882C14.0471 14.205 14.437 14.3665 14.8939 14.3665ZM1.89587 13.6575V11.7668H9.45837V13.6575H1.89587ZM4.02283 7.74927C3.03025 7.74927 2.19128 7.40659 1.50593 6.72124C0.820581 6.03589 0.477905 5.19692 0.477905 4.20435C0.477905 3.21177 0.820581 2.3728 1.50593 1.68745C2.19128 1.0021 3.03025 0.659424 4.02283 0.659424C5.01541 0.659424 5.85437 1.0021 6.53972 1.68745C7.22507 2.3728 7.56775 3.21177 7.56775 4.20435C7.56775 5.19692 7.22507 6.03589 6.53972 6.72124C5.85437 7.40659 5.01541 7.74927 4.02283 7.74927ZM4.02283 5.85864C4.47973 5.85864 4.86967 5.69715 5.19265 5.37417C5.51563 5.05119 5.67712 4.66125 5.67712 4.20435C5.67712 3.74744 5.51563 3.3575 5.19265 3.03452C4.86967 2.71154 4.47973 2.55005 4.02283 2.55005C3.56593 2.55005 3.17598 2.71154 2.853 3.03452C2.53002 3.3575 2.36853 3.74744 2.36853 4.20435C2.36853 4.66125 2.53002 5.05119 2.853 5.37417C3.17598 5.69715 3.56593 5.85864 4.02283 5.85864ZM9.45837 5.14966V3.25903H17.0209V5.14966H9.45837Z" fill="white"/>
</svg>
