<svg width="21" height="21" viewBox="0 0 21 21" fill="none" xmlns="http://www.w3.org/2000/svg">
<g clip-path="url(#clip0_306_1885)">
<path d="M2.75 10.0833C2.75 8.475 4.05833 7.16667 5.66667 7.16667C7.275 7.16667 8.58333 8.475 8.58333 10.0833C8.58333 11.6917 7.275 13 5.66667 13C4.05833 13 2.75 11.6917 2.75 10.0833ZM8.16667 14.6667H3.16667C1.55833 14.6667 0.25 15.975 0.25 17.5833V20.5H2.75V17.5833C2.75 17.35 2.93333 17.1667 3.16667 17.1667H8.16667C8.4 17.1667 8.58333 17.35 8.58333 17.5833V20.5H11.0833V17.5833C11.0833 15.975 9.775 14.6667 8.16667 14.6667ZM17.3333 0.5H7.33333C5.725 0.5 4.41667 1.80833 4.41667 3.41667V5.675C4.81667 5.55833 5.23333 5.5 5.66667 5.5C6.1 5.5 6.51667 5.56667 6.91667 5.675V3.41667C6.91667 3.18333 7.1 3 7.33333 3H17.3333C17.5667 3 17.75 3.18333 17.75 3.41667V13H9.2C9.2 13 9.13333 13.0667 9.10833 13.1C10.475 13.3833 11.625 14.2917 12.2417 15.5H20.25V3.41667C20.25 1.80833 18.9417 0.5 17.3333 0.5ZM11.5 11.0167L14.3 8.21667L16.0833 9.96667V5.5C16.0833 5.04167 15.7083 4.66667 15.25 4.66667H10.6667L12.5083 6.475L9.73333 9.25L11.5 11.0167Z" fill="#D9D9D9"/>
</g>
<defs>
<clipPath id="clip0_306_1885">
<rect width="20" height="20" fill="white" transform="translate(0.25 0.5)"/>
</clipPath>
</defs>
</svg>
