<svg width="141" height="154" viewBox="0 0 141 154" fill="none" xmlns="http://www.w3.org/2000/svg">
<path fill-rule="evenodd" clip-rule="evenodd" d="M66.2986 13.498C66.2991 13.4987 66.2996 13.4993 66.3 13.5H66.31C66.73 14.03 66.86 14.76 66.6 15.43L60.35 31.62C59.95 32.65 58.8 33.16 57.78 32.76L41.59 26.51C40.56 26.11 40.05 24.96 40.45 23.94L46.7 7.74995C46.95 7.08999 47.52 6.65 48.1699 6.51997L48.68 5.19995C50.29 1.01995 55.01 -1.07005 59.18 0.549954L62.15 1.69995C66.33 3.30995 68.41 8.01995 66.8 12.2L66.2986 13.498ZM50.9891 7.28745L51.39 6.24995C52.42 3.56995 55.45 2.21995 58.13 3.25995L61.1 4.40995C63.79 5.43995 65.13 8.46995 64.09 11.15L63.6883 12.1899L50.9891 7.28745ZM107.81 134.93C108.909 132.395 107.18 129.129 103.883 127.174L104.153 126.551C104.551 126.538 104.927 126.299 105.1 125.91V125.89C105.274 125.499 105.191 125.061 104.927 124.761L111.358 109.894L113.108 110.652L113.962 108.679L112.211 107.921L112.901 106.326L113.87 106.75L114.73 104.78L113.752 104.358L113.998 103.79L115.74 104.55L116.59 102.58L114.847 101.819C115.028 101.296 114.777 100.71 114.26 100.48C113.746 100.261 113.151 100.477 112.887 100.964L112.81 100.93L111.96 102.9L112.032 102.931L102.947 123.933C102.571 123.966 102.224 124.2 102.06 124.57V124.59C101.895 124.961 101.962 125.375 102.195 125.672L101.945 126.25C97.9884 124.778 93.9607 125.697 92.78 128.42C91.54 131.28 93.91 135.07 98.05 136.86C102.19 138.66 106.57 137.79 107.81 134.93ZM101.35 129.24C99.41 128.4 97.36 128.81 96.78 130.15C96.2 131.49 97.31 133.26 99.25 134.11C101.19 134.95 103.24 134.54 103.83 133.2C104.41 131.86 103.3 130.08 101.36 129.24H101.35ZM17.07 113.52C12.28 109.94 5.55003 110.83 2.06003 115.5C-1.42997 120.17 -0.379965 126.87 4.41003 130.45C8.73884 133.685 14.6521 133.27 18.3265 129.713L40.2946 145.822L38.01 148.86C37.35 149.74 37.53 150.99 38.41 151.65L39.78 152.68C40.66 153.33 41.9 153.16 42.56 152.28L44.8859 149.189L45.16 149.39C45.96 149.98 47.09 149.82 47.69 149.02C48.28 148.22 48.12 147.09 47.32 146.49L47.0602 146.299L47.15 146.18L42.59 142.77L42.4679 142.932L20.4455 126.785C22.6189 122.3 21.309 116.688 17.07 113.52ZM15.61 123.24L15.6356 123.259C16.091 121.367 15.3965 119.275 13.71 118.01C11.47 116.33 8.31003 116.75 6.68003 118.94C5.05003 121.13 5.54003 124.27 7.78004 125.95C9.52796 127.261 11.8361 127.293 13.5403 126.203L13.44 126.13H13.45L15.61 123.24ZM48.88 24.03L54.01 26.01L54 26L55.17 20.67C55.89 20.39 56.49 19.82 56.79 19.05C57.36 17.59 56.63 15.94 55.16 15.37C53.69 14.8 52.05 15.53 51.48 17C51.19 17.78 51.25 18.6 51.59 19.29L48.88 24.03Z" fill="#4E50D2" fill-opacity="0.05"/>
<path d="M46.5 46.6001L26.51 56.6401C19.94 59.9401 16.96 67.7101 19.65 74.5601L29.29 99.1501C31.98 106 39.44 109.68 46.51 107.64L68.01 101.44C76.07 99.1201 80.38 90.3701 77.32 82.5601L66.17 54.1201C63.11 46.3101 54 42.8201 46.51 46.5901L46.5 46.6001ZM43.2 88.8401C38.74 90.5901 33.71 88.3901 31.96 83.9301C30.21 79.4701 32.41 74.4401 36.87 72.7001C41.33 70.9501 46.36 73.1501 48.11 77.6101C49.86 82.0701 47.66 87.1001 43.2 88.8401Z" fill="#4E50D2"/>
<path d="M46.5 46.6001L26.51 56.6401C19.94 59.9401 16.96 67.7101 19.65 74.5601L29.29 99.1501C31.98 106 39.44 109.68 46.51 107.64L68.01 101.44C76.07 99.1201 80.38 90.3701 77.32 82.5601L66.17 54.1201C63.11 46.3101 54 42.8201 46.51 46.5901L46.5 46.6001ZM43.2 88.8401C38.74 90.5901 33.71 88.3901 31.96 83.9301C30.21 79.4701 32.41 74.4401 36.87 72.7001C41.33 70.9501 46.36 73.1501 48.11 77.6101C49.86 82.0701 47.66 87.1001 43.2 88.8401Z" fill="#4E50D2"/>
<path opacity="0.1" d="M77.32 82.5801L66.16 54.1401C63.1 46.3301 53.99 42.8401 46.5 46.6001L40.69 49.5201L36.79 51.4801L26.51 56.6501C19.93 59.9501 16.96 67.7201 19.64 74.5701L29.28 99.1601C31.97 106.01 39.43 109.69 46.5 107.65L68.01 101.45C69.77 100.94 71.35 100.12 72.72 99.0701C73.78 98.2601 74.71 97.3201 75.48 96.2701C78.3 92.4801 79.19 87.3501 77.32 82.5801ZM43.19 88.8401C38.74 90.5901 33.7 88.3901 31.96 83.9301C30.21 79.4801 32.41 74.4401 36.87 72.7001C41.32 70.9501 46.36 73.1501 48.1 77.6001C49.84 82.0601 47.65 87.0901 43.19 88.8301V88.8401Z" fill="white"/>
<path d="M46.71 48.4701L27.96 57.8901C21.79 60.9901 19.01 68.2701 21.52 74.6901L30.56 97.7501C33.08 104.17 40.08 107.63 46.71 105.71L66.88 99.8901C74.44 97.7101 78.48 89.5101 75.61 82.1901L65.15 55.5201C62.28 48.2001 53.73 44.9201 46.71 48.4601V48.4701ZM31.96 83.9201C30.21 79.4601 32.41 74.4301 36.87 72.6901C41.33 70.9401 46.36 73.1401 48.11 77.6001C49.86 82.0601 47.66 87.0901 43.2 88.8301C38.74 90.5801 33.71 88.3801 31.96 83.9201Z" fill="#4E50D2"/>
<path opacity="0.1" d="M46.71 48.4701L27.96 57.8901C21.79 60.9901 19.01 68.2701 21.52 74.6901L30.56 97.7501C33.08 104.17 40.08 107.63 46.71 105.71L66.88 99.8901C74.44 97.7101 78.48 89.5101 75.61 82.1901L65.15 55.5201C62.28 48.2001 53.73 44.9201 46.71 48.4601V48.4701ZM31.96 83.9201C30.21 79.4601 32.41 74.4301 36.87 72.6901C41.33 70.9401 46.36 73.1401 48.11 77.6001C49.86 82.0601 47.66 87.0901 43.2 88.8301C38.74 90.5801 33.71 88.3801 31.96 83.9201Z" fill="#4E50D2"/>
<path d="M139.89 39.5801L139.32 40.6301L139 41.2101L138.1 42.8601L138.48 47.0901C138.5 47.2701 138.48 47.4501 138.42 47.6201C138.3 47.9901 138.02 48.2901 137.65 48.4401L129.75 51.5301C129.38 51.6801 128.97 51.6401 128.63 51.4501C128.52 51.3901 128.42 51.3101 128.33 51.2201L123.86 46.6801H123.85L117.5 49.1501L118.42 51.5001L112.07 53.9901L113.59 57.8601L108.91 59.6901C108.53 59.8401 108.1 59.8101 107.75 59.6301C107.63 59.5701 107.53 59.4901 107.43 59.4001L104.73 56.8601L98.38 59.3501L99.9 63.2201L93.22 65.8401L94.74 69.7201C94.99 70.3501 94.68 71.0701 94.04 71.3201L75.74 78.4801L67.8 58.2301L133.99 32.3201L135.03 32.8501L138.39 34.5701C140.22 35.5101 140.91 37.7701 139.93 39.5701L139.89 39.5801Z" fill="#4E50D2"/>
<g opacity="0.1">
<path d="M139.89 39.5801L139.32 40.6301L139 41.2101L138.1 42.8601L138.48 47.0901C138.5 47.2701 138.48 47.4501 138.42 47.6201C138.3 47.9901 138.02 48.2901 137.65 48.4401L129.75 51.5301C129.38 51.6801 128.97 51.6401 128.63 51.4501C128.52 51.3901 128.42 51.3101 128.33 51.2201L123.86 46.6801H123.85L117.5 49.1501L118.42 51.5001L112.07 53.9901L113.59 57.8601L108.91 59.6901C108.53 59.8401 108.1 59.8101 107.75 59.6301C107.63 59.5701 107.53 59.4901 107.43 59.4001L104.73 56.8601L98.38 59.3501L99.9 63.2201L93.22 65.8401L94.74 69.7201C94.99 70.3501 94.68 71.0701 94.04 71.3201L75.74 78.4801L67.8 58.2301L133.99 32.3201L135.03 32.8501L138.39 34.5701C140.22 35.5101 140.91 37.7701 139.93 39.5701L139.89 39.5801Z" fill="white"/>
</g>
<path d="M139.62 37.2701L68.86 64.9701L66.8 59.7701L134.27 33.3601L137.63 35.0801C138.91 35.7401 139.64 36.3401 139.63 37.2701H139.62Z" fill="#4E50D2"/>
<path opacity="0.1" d="M139.62 37.2701L68.86 64.9701L66.8 59.7701L134.27 33.3601L137.63 35.0801C138.91 35.7401 139.64 36.3401 139.63 37.2701H139.62Z" fill="black"/>
<path d="M138.23 41.1801L137.55 42.7201C137.55 42.7201 137.53 42.7701 137.54 42.8001L137.92 46.9901C137.93 47.1401 137.92 47.2901 137.88 47.4401C137.87 47.4901 137.83 47.5301 137.78 47.5501L129.19 50.9301C129.19 50.9301 129.09 50.9501 129.05 50.9201C128.97 50.8701 128.89 50.8101 128.82 50.7301L123.91 45.7901C123.91 45.7901 123.8 45.7301 123.74 45.7501L116.76 48.5001C116.68 48.5301 116.64 48.6301 116.67 48.7101L117.5 50.8101C117.53 50.8901 117.5 50.9901 117.41 51.0201L111.46 53.3601C111.38 53.3901 111.34 53.4901 111.37 53.5701L112.8 57.2001C112.83 57.2801 112.8 57.3801 112.71 57.4101L108.35 59.1301C108.35 59.1301 108.25 59.1501 108.21 59.1301C108.12 59.0801 108.03 59.0101 107.95 58.9401L104.76 56.0001C104.76 56.0001 104.65 55.9501 104.59 55.9701L97.66 58.7001C97.58 58.7301 97.54 58.8301 97.57 58.9101L99.04 62.6301C99.07 62.7101 99.04 62.8101 98.95 62.8401L72.34 73.3101C72.26 73.3401 72.16 73.3101 72.13 73.2201L69.47 66.5601C69.44 66.4801 69.47 66.3801 69.56 66.3501L138.9 39.0601C139.03 39.0101 139.17 39.1401 139.11 39.2801L138.24 41.2001L138.23 41.1801Z" fill="#4E50D2"/>
<path opacity="0.1" d="M138.23 41.1801L137.55 42.7201C137.55 42.7201 137.53 42.7701 137.54 42.8001L137.92 46.9901C137.93 47.1401 137.92 47.2901 137.88 47.4401C137.87 47.4901 137.83 47.5301 137.78 47.5501L129.19 50.9301C129.19 50.9301 129.09 50.9501 129.05 50.9201C128.97 50.8701 128.89 50.8101 128.82 50.7301L123.91 45.7901C123.91 45.7901 123.8 45.7301 123.74 45.7501L116.76 48.5001C116.68 48.5301 116.64 48.6301 116.67 48.7101L117.5 50.8101C117.53 50.8901 117.5 50.9901 117.41 51.0201L111.46 53.3601C111.38 53.3901 111.34 53.4901 111.37 53.5701L112.8 57.2001C112.83 57.2801 112.8 57.3801 112.71 57.4101L108.35 59.1301C108.35 59.1301 108.25 59.1501 108.21 59.1301C108.12 59.0801 108.03 59.0101 107.95 58.9401L104.76 56.0001C104.76 56.0001 104.65 55.9501 104.59 55.9701L97.66 58.7001C97.58 58.7301 97.54 58.8301 97.57 58.9101L99.04 62.6301C99.07 62.7101 99.04 62.8101 98.95 62.8401L72.34 73.3101C72.26 73.3401 72.16 73.3101 72.13 73.2201L69.47 66.5601C69.44 66.4801 69.47 66.3801 69.56 66.3501L138.9 39.0601C139.03 39.0101 139.17 39.1401 139.11 39.2801L138.24 41.2001L138.23 41.1801Z" fill="black"/>
<path opacity="0.3" d="M36.34 70.5301C30.75 72.7201 27.99 79.0301 30.18 84.6201C32.37 90.2101 38.68 92.9701 44.28 90.7801C49.87 88.5901 52.63 82.2801 50.44 76.6901C48.25 71.1001 41.94 68.3401 36.34 70.5301ZM43.2 88.8301C38.74 90.5801 33.71 88.3801 31.96 83.9201C30.21 79.4601 32.41 74.4301 36.87 72.6901C41.33 70.9401 46.36 73.1401 48.11 77.6001C49.86 82.0601 47.66 87.0901 43.2 88.8301Z" fill="white"/>
</svg>
