<svg width="18" height="16" viewBox="0 0 18 16" fill="none" xmlns="http://www.w3.org/2000/svg">
<g clip-path="url(#clip0_54_1220)">
<path d="M7.5 4.50537C7.5 3.70972 7.18393 2.94666 6.62132 2.38405C6.05871 1.82144 5.29565 1.50537 4.5 1.50537C3.70435 1.50537 2.94129 1.82144 2.37868 2.38405C1.81607 2.94666 1.5 3.70972 1.5 4.50537C1.5 5.30102 1.81607 6.06408 2.37868 6.62669C2.94129 7.1893 3.70435 7.50537 4.5 7.50537C5.29565 7.50537 6.05871 7.1893 6.62132 6.62669C7.18393 6.06408 7.5 5.30102 7.5 4.50537ZM8.8875 5.50537C8.43437 7.5085 6.64062 9.00537 4.5 9.00537C2.01562 9.00537 0 6.98975 0 4.50537C0 2.021 2.01562 0.00537109 4.5 0.00537109C6.64062 0.00537109 8.43437 1.50225 8.8875 3.50537H11.1313C11.4062 3.19912 11.8062 3.00537 12.25 3.00537H15.5C16.3281 3.00537 17 3.67725 17 4.50537C17 5.3335 16.3281 6.00537 15.5 6.00537H12.25C11.8062 6.00537 11.4062 5.81162 11.1313 5.50537H8.8875ZM4.5 2.50537C5.03043 2.50537 5.53914 2.71608 5.91421 3.09116C6.28929 3.46623 6.5 3.97494 6.5 4.50537C6.5 5.0358 6.28929 5.54451 5.91421 5.91958C5.53914 6.29466 5.03043 6.50537 4.5 6.50537C3.96957 6.50537 3.46086 6.29466 3.08579 5.91958C2.71071 5.54451 2.5 5.0358 2.5 4.50537C2.5 3.97494 2.71071 3.46623 3.08579 3.09116C3.46086 2.71608 3.96957 2.50537 4.5 2.50537ZM12.5 7.50537C12.9156 7.50537 13.25 7.83975 13.25 8.25537V8.50537H16.25C16.6656 8.50537 17 8.83975 17 9.25537C17 9.671 16.6656 10.0054 16.25 10.0054H8.75C8.33438 10.0054 8 9.671 8 9.25537C8 8.83975 8.33438 8.50537 8.75 8.50537H11.75V8.25537C11.75 7.83975 12.0844 7.50537 12.5 7.50537ZM9 14.5054V11.0054H16V14.5054C16 15.3335 15.3281 16.0054 14.5 16.0054H10.5C9.67188 16.0054 9 15.3335 9 14.5054ZM1.5 10.0054H5.5C6.32812 10.0054 7 10.6772 7 11.5054C7 12.3335 6.32812 13.0054 5.5 13.0054H5C5 13.5585 4.55312 14.0054 4 14.0054H2C1.44687 14.0054 1 13.5585 1 13.0054V10.5054C1 10.2304 1.225 10.0054 1.5 10.0054ZM5.5 12.0054C5.775 12.0054 6 11.7804 6 11.5054C6 11.2304 5.775 11.0054 5.5 11.0054H5V12.0054H5.5ZM0.75 14.5054H6.25C6.66563 14.5054 7 14.8397 7 15.2554C7 15.671 6.66563 16.0054 6.25 16.0054H0.75C0.334375 16.0054 0 15.671 0 15.2554C0 14.8397 0.334375 14.5054 0.75 14.5054Z" fill="#4E50D2"/>
</g>
<defs>
<clipPath id="clip0_54_1220">
<rect width="18" height="16" fill="white" transform="translate(0 0.00537109)"/>
</clipPath>
</defs>
</svg>
