<svg xmlns="http://www.w3.org/2000/svg" xmlns:xlink="http://www.w3.org/1999/xlink" width="500" zoomAndPan="magnify" viewBox="0 0 375 374.999991" height="500" preserveAspectRatio="xMidYMid meet" version="1.0"><defs><clipPath id="f75f07cee8"><path d="M 3 28.59375 L 370 28.59375 L 370 344 L 3 344 Z M 3 28.59375 " clip-rule="nonzero"/></clipPath></defs><path fill="#a9aeb2" d="M 217.355469 75.3125 C 216.832031 76.128906 216.351562 76.949219 215.875 77.789062 C 216.339844 76.960938 216.84375 76.140625 217.355469 75.3125 " fill-opacity="1" fill-rule="nonzero"/><g clip-path="url(#f75f07cee8)"><path fill="#a9aeb2" d="M 337.953125 102.476562 C 327.839844 111.914062 313.042969 119.011719 296.324219 122.453125 C 295.519531 122.617188 294.726562 122.765625 293.917969 122.917969 C 293.148438 123.058594 292.390625 123.1875 291.632812 123.316406 C 291.597656 123.316406 291.550781 123.316406 291.515625 123.328125 C 290.722656 123.457031 289.917969 123.570312 289.125 123.675781 C 288.332031 123.78125 287.539062 123.886719 286.742188 123.96875 C 285.914062 124.0625 285.085938 124.144531 284.257812 124.214844 C 283.417969 124.296875 282.601562 124.355469 281.785156 124.402344 C 280.957031 124.457031 280.152344 124.492188 279.324219 124.527344 C 278.519531 124.5625 277.714844 124.585938 276.917969 124.585938 L 276.894531 124.585938 C 276.195312 124.597656 275.507812 124.597656 274.832031 124.585938 C 274.644531 124.597656 274.457031 124.585938 274.269531 124.585938 C 273.535156 124.574219 272.824219 124.550781 272.101562 124.515625 C 271.238281 124.492188 270.386719 124.445312 269.535156 124.378906 C 268.855469 124.34375 268.191406 124.285156 267.527344 124.226562 C 265.882812 124.074219 264.273438 123.875 262.683594 123.617188 C 262.382812 123.570312 262.066406 123.523438 261.75 123.46875 C 258.777344 122.964844 255.882812 122.300781 253.128906 121.460938 C 252.8125 121.367188 252.523438 121.273438 252.21875 121.179688 C 251.542969 120.957031 250.867188 120.726562 250.199219 120.492188 C 249.910156 120.375 249.605469 120.269531 249.289062 120.140625 C 248.976562 120.023438 248.660156 119.898438 248.320312 119.769531 C 248.296875 119.757812 248.261719 119.746094 248.230469 119.734375 C 247.9375 119.617188 247.632812 119.488281 247.320312 119.347656 C 246.96875 119.207031 246.628906 119.054688 246.28125 118.894531 C 245.695312 118.625 245.089844 118.34375 244.484375 118.03125 C 244.261719 117.914062 244.050781 117.808594 243.828125 117.691406 C 243.5625 117.550781 243.292969 117.398438 243.011719 117.25 C 242.652344 117.050781 242.277344 116.839844 241.90625 116.617188 C 241.730469 116.511719 241.542969 116.394531 241.355469 116.28125 C 240.621094 115.835938 239.898438 115.347656 239.175781 114.832031 C 238.953125 114.65625 238.71875 114.496094 238.496094 114.320312 C 238.242188 114.132812 237.996094 113.933594 237.761719 113.734375 C 237.527344 113.550781 237.308594 113.375 237.097656 113.175781 C 236.539062 112.710938 236 112.207031 235.5 111.683594 C 235.324219 111.519531 235.171875 111.367188 235.019531 111.191406 C 234.878906 111.050781 234.742188 110.890625 234.601562 110.738281 C 234.484375 110.609375 234.355469 110.457031 234.238281 110.316406 C 234.085938 110.140625 233.957031 109.980469 233.808594 109.792969 C 227.726562 113.78125 220.121094 114.960938 213.050781 112.90625 C 210.679688 112.230469 208.371094 111.167969 206.199219 109.746094 C 202.398438 107.25 199.503906 103.898438 197.601562 100.109375 C 193.671875 92.324219 193.902344 82.699219 199.046875 74.894531 C 201.394531 71.324219 204.496094 68.546875 208.007812 66.644531 C 213.539062 63.644531 220.074219 62.78125 226.246094 64.359375 C 228.894531 65.035156 231.484375 66.144531 233.890625 67.742188 C 237.378906 70.050781 240.109375 73.074219 242.007812 76.480469 C 241.765625 76.703125 241.53125 76.925781 241.296875 77.132812 C 241.53125 76.925781 241.765625 76.703125 242.007812 76.492188 C 244.601562 81.148438 245.660156 86.527344 245.007812 91.824219 C 244.667969 94.625 243.851562 97.390625 242.523438 100.015625 C 243.5625 103.058594 248.136719 106.410156 254.449219 108.683594 C 262.765625 111.683594 272.894531 112.699219 283.675781 111.671875 L 273.933594 72.570312 L 270.875 60.367188 C 272.324219 59.890625 273.804688 59.445312 275.296875 59.015625 C 276.148438 58.769531 277 58.535156 277.863281 58.324219 C 279.535156 57.894531 281.214844 57.507812 282.917969 57.160156 C 299.648438 53.730469 316.03125 54.417969 329.050781 59.117188 C 335.632812 61.488281 346.996094 67.042969 349.15625 77.578125 C 351.324219 88.125 343.066406 97.703125 337.953125 102.476562 Z M 278.984375 37.953125 C 278.378906 38.082031 277.78125 38.210938 277.1875 38.339844 C 276.699219 38.445312 276.207031 38.558594 275.730469 38.664062 C 274.972656 38.839844 274.234375 39.015625 273.488281 39.214844 C 273.058594 39.320312 272.625 39.421875 272.195312 39.539062 C 271.972656 39.585938 271.761719 39.65625 271.539062 39.714844 C 271.085938 39.832031 270.617188 39.960938 270.152344 40.089844 C 268.4375 40.578125 266.734375 41.09375 265.078125 41.628906 C 262.417969 37.59375 258.8125 34.3125 254.644531 32.039062 C 250.667969 29.867188 246.152344 28.621094 241.4375 28.480469 L 144.828125 44.617188 C 140.40625 44.5 136.195312 46.472656 133.441406 49.949219 L 7.019531 214.90625 C 0.566406 223.0625 2.492188 234.988281 11.160156 240.707031 L 162.667969 340.605469 C 171.335938 346.320312 183.0625 343.382812 188 334.246094 L 288.0625 156.148438 L 290.269531 152.214844 C 291.808594 149.40625 292.296875 146.183594 291.75 143.105469 C 292.460938 143.011719 293.160156 142.90625 293.875 142.800781 C 294.246094 142.742188 294.632812 142.683594 295.015625 142.613281 C 295.390625 142.554688 295.761719 142.496094 296.148438 142.425781 C 297.511719 142.195312 298.890625 141.9375 300.265625 141.644531 C 344.417969 132.589844 374.324219 102.710938 368.359375 73.644531 C 362.386719 44.570312 323.136719 28.886719 278.984375 37.953125 " fill-opacity="1" fill-rule="nonzero"/></g></svg>