<svg width="30" height="24" viewBox="0 0 30 24" fill="none" xmlns="http://www.w3.org/2000/svg">
<path d="M20.3395 14.7448H16.1827C16.124 14.7479 16.0652 14.739 16.01 14.7187C15.9548 14.6984 15.9043 14.667 15.8616 14.6265C15.8189 14.586 15.7849 14.5373 15.7617 14.4832C15.7385 14.4292 15.7265 14.371 15.7265 14.3121C15.7265 14.2533 15.7385 14.1951 15.7617 14.1411C15.7849 14.087 15.8189 14.0382 15.8616 13.9978C15.9043 13.9573 15.9548 13.9259 16.01 13.9056C16.0652 13.8853 16.124 13.8764 16.1827 13.8795H20.3395C20.3983 13.8764 20.4571 13.8853 20.5123 13.9056C20.5675 13.9259 20.618 13.9573 20.6606 13.9978C20.7033 14.0382 20.7373 14.087 20.7606 14.1411C20.7838 14.1951 20.7958 14.2533 20.7958 14.3121C20.7958 14.371 20.7838 14.4292 20.7606 14.4832C20.7373 14.5373 20.7033 14.586 20.6606 14.6265C20.618 14.667 20.5675 14.6984 20.5123 14.7187C20.4571 14.739 20.3983 14.7479 20.3395 14.7448Z" fill="#222222" fill-opacity="0.5"/>
<path d="M29.1342 23.9933H23.1211C23.0103 23.9874 22.906 23.9392 22.8297 23.8588C22.7533 23.7783 22.7108 23.6716 22.7108 23.5606C22.7108 23.4497 22.7533 23.343 22.8297 23.2625C22.906 23.182 23.0103 23.1339 23.1211 23.128H28.7021V20.0403L23.2785 14.6166C23.2092 14.5336 23.1735 14.4276 23.1784 14.3196C23.1833 14.2116 23.2284 14.1093 23.3049 14.0328C23.3813 13.9563 23.4836 13.9112 23.5917 13.9063C23.6997 13.9015 23.8057 13.9372 23.8887 14.0064L29.4405 19.5582C29.5198 19.6399 29.5636 19.7495 29.5625 19.8633V23.5637C29.5625 23.6786 29.5169 23.7888 29.4356 23.87C29.3544 23.9513 29.2442 23.9969 29.1293 23.9969" fill="#222222" fill-opacity="0.5"/>
<path d="M22.2545 23.9933H0.456256C0.341981 23.9933 0.232332 23.9481 0.151185 23.8677C0.070038 23.7872 0.0239655 23.678 0.0229998 23.5637V19.8633C0.0219045 19.7495 0.065762 19.6399 0.145044 19.5582L5.69683 14.0064C5.77849 13.9271 5.88813 13.8833 6.00194 13.8844H8.7821C8.84085 13.8812 8.89962 13.8901 8.95483 13.9105C9.01003 13.9308 9.06052 13.9622 9.10321 14.0026C9.1459 14.0431 9.1799 14.0919 9.20313 14.1459C9.22636 14.2 9.23835 14.2582 9.23835 14.317C9.23835 14.3758 9.22636 14.4341 9.20313 14.4881C9.1799 14.5422 9.1459 14.5909 9.10321 14.6314C9.06052 14.6719 9.01003 14.7032 8.95483 14.7236C8.89962 14.7439 8.84085 14.7528 8.7821 14.7497H6.18622L0.889513 20.0464V23.1341H22.2545C22.3133 23.131 22.3721 23.1398 22.4273 23.1602C22.4825 23.1805 22.533 23.2119 22.5757 23.2524C22.6183 23.2928 22.6523 23.3416 22.6756 23.3956C22.6988 23.4497 22.7108 23.5079 22.7108 23.5667C22.7108 23.6256 22.6988 23.6838 22.6756 23.7378C22.6523 23.7919 22.6183 23.8406 22.5757 23.8811C22.533 23.9216 22.4825 23.953 22.4273 23.9733C22.3721 23.9936 22.3133 24.0025 22.2545 23.9994" fill="#222222" fill-opacity="0.5"/>
<path d="M13.4076 14.7448H9.64988C9.59113 14.7479 9.53236 14.739 9.47715 14.7187C9.42195 14.6984 9.37146 14.667 9.32877 14.6265C9.28608 14.586 9.25208 14.5373 9.22885 14.4832C9.20562 14.4292 9.19363 14.371 9.19363 14.3121C9.19363 14.2533 9.20562 14.1951 9.22885 14.1411C9.25208 14.087 9.28608 14.0382 9.32877 13.9978C9.37146 13.9573 9.42195 13.9259 9.47715 13.9056C9.53236 13.8853 9.59113 13.8764 9.64988 13.8795H13.4076C13.5184 13.8854 13.6227 13.9335 13.699 14.014C13.7753 14.0945 13.8179 14.2012 13.8179 14.3121C13.8179 14.4231 13.7753 14.5298 13.699 14.6103C13.6227 14.6908 13.5184 14.7389 13.4076 14.7448Z" fill="#222222" fill-opacity="0.5"/>
<path d="M29.1342 20.2941H0.456243C0.397494 20.2972 0.338725 20.2884 0.283519 20.268C0.228312 20.2477 0.177825 20.2163 0.135136 20.1759C0.092446 20.1354 0.0584483 20.0866 0.0352151 20.0326C0.0119818 19.9785 0 19.9203 0 19.8615C0 19.8026 0.0119818 19.7444 0.0352151 19.6904C0.0584483 19.6363 0.092446 19.5876 0.135136 19.5471C0.177825 19.5066 0.228312 19.4753 0.283519 19.4549C0.338725 19.4346 0.397494 19.4257 0.456243 19.4288H29.1366C29.2474 19.4347 29.3517 19.4829 29.428 19.5634C29.5043 19.6438 29.5469 19.7506 29.5469 19.8615C29.5469 19.9724 29.5043 20.0791 29.428 20.1596C29.3517 20.2401 29.2474 20.2882 29.1366 20.2941" fill="#222222" fill-opacity="0.5"/>
<path d="M16.1842 3.64366C16.0693 3.64366 15.9591 3.59801 15.8778 3.51676C15.7966 3.43551 15.7509 3.32531 15.7509 3.2104V1.79225H13.8409V3.2104C13.8441 3.26915 13.8352 3.32792 13.8149 3.38312C13.7945 3.43833 13.7632 3.48882 13.7227 3.53151C13.6822 3.5742 13.6334 3.6082 13.5794 3.63143C13.5253 3.65466 13.4671 3.66664 13.4083 3.66664C13.3495 3.66664 13.2912 3.65466 13.2372 3.63143C13.1831 3.6082 13.1344 3.5742 13.0939 3.53151C13.0534 3.48882 13.0221 3.43833 13.0017 3.38312C12.9814 3.32792 12.9725 3.26915 12.9756 3.2104V1.36021C12.9756 1.24531 13.0213 1.13511 13.1025 1.05385C13.1838 0.972603 13.294 0.926956 13.4089 0.926956H16.1842C16.2991 0.926956 16.4093 0.972603 16.4905 1.05385C16.5718 1.13511 16.6174 1.24531 16.6174 1.36021V3.2104C16.6174 3.32531 16.5718 3.43551 16.4905 3.51676C16.4093 3.59801 16.2991 3.64366 16.1842 3.64366Z" fill="#222222" fill-opacity="0.5"/>
<path d="M16.1839 17.5201H13.4025C13.2876 17.5201 13.1774 17.4744 13.0961 17.3932C13.0149 17.3119 12.9692 17.2017 12.9692 17.0868V10.6112C12.9661 10.5524 12.975 10.4936 12.9953 10.4384C13.0157 10.3832 13.047 10.3327 13.0875 10.29C13.128 10.2474 13.1767 10.2134 13.2308 10.1901C13.2848 10.1669 13.3431 10.1549 13.4019 10.1549C13.4607 10.1549 13.5189 10.1669 13.573 10.1901C13.627 10.2134 13.6758 10.2474 13.7163 10.29C13.7567 10.3327 13.7881 10.3832 13.8084 10.4384C13.8288 10.4936 13.8377 10.5524 13.8345 10.6112V16.6548H15.7445V10.6112C15.7504 10.5004 15.7986 10.3961 15.879 10.3198C15.9595 10.2434 16.0662 10.2009 16.1772 10.2009C16.2881 10.2009 16.3948 10.2434 16.4753 10.3198C16.5558 10.3961 16.6039 10.5004 16.6098 10.6112V17.0868C16.6098 17.2017 16.5642 17.3119 16.4829 17.3932C16.4017 17.4744 16.2915 17.5201 16.1766 17.5201" fill="#222222" fill-opacity="0.5"/>
<path d="M20.3458 11.0444H9.23984C9.12493 11.0444 9.01473 10.9987 8.93348 10.9175C8.85223 10.8362 8.80658 10.726 8.80658 10.6111V3.21161C8.80642 3.15467 8.81752 3.09826 8.83923 3.04562C8.86095 2.99298 8.89286 2.94515 8.93312 2.90489C8.97338 2.86463 9.02121 2.83272 9.07385 2.811C9.12648 2.78929 9.1829 2.77819 9.23984 2.77835H20.3458C20.4027 2.77835 20.4591 2.78956 20.5116 2.81133C20.5642 2.83311 20.612 2.86502 20.6522 2.90525C20.6924 2.94548 20.7243 2.99324 20.7461 3.04581C20.7679 3.09837 20.7791 3.15471 20.7791 3.21161V10.6124C20.7791 10.7273 20.7335 10.8375 20.6522 10.9187C20.571 11 20.4608 11.0444 20.3458 11.0444ZM9.67676 10.1803H19.9126V3.64365H9.67676V10.1803Z" fill="#222222" fill-opacity="0.5"/>
<path d="M20.3471 9.19421H18.0282C17.9175 9.18833 17.8132 9.14018 17.7369 9.05969C17.6605 8.97919 17.618 8.87249 17.618 8.76157C17.618 8.65064 17.6605 8.54394 17.7369 8.46344C17.8132 8.38295 17.9175 8.3348 18.0282 8.32892H20.3471C20.4058 8.3258 20.4646 8.33467 20.5198 8.35501C20.575 8.37534 20.6255 8.4067 20.6682 8.44718C20.7109 8.48767 20.7449 8.53642 20.7681 8.59047C20.7913 8.64452 20.8033 8.70273 20.8033 8.76157C20.8033 8.8204 20.7913 8.87861 20.7681 8.93266C20.7449 8.98671 20.7109 9.03546 20.6682 9.07594C20.6255 9.11643 20.575 9.14779 20.5198 9.16812C20.4646 9.18846 20.4058 9.19733 20.3471 9.19421Z" fill="#222222" fill-opacity="0.5"/>
<path d="M13.4076 5.49261H9.24463C9.18589 5.49573 9.12712 5.48686 9.07191 5.46652C9.0167 5.44619 8.96622 5.41483 8.92353 5.37435C8.88084 5.33386 8.84684 5.28511 8.82361 5.23106C8.80037 5.17701 8.78839 5.1188 8.78839 5.05997C8.78839 5.00113 8.80037 4.94292 8.82361 4.88887C8.84684 4.83482 8.88084 4.78607 8.92353 4.74559C8.96622 4.7051 9.0167 4.67374 9.07191 4.65341C9.12712 4.63307 9.18589 4.6242 9.24463 4.62732H13.4076C13.4663 4.6242 13.5251 4.63307 13.5803 4.65341C13.6355 4.67374 13.686 4.7051 13.7287 4.74559C13.7714 4.78607 13.8054 4.83482 13.8286 4.88887C13.8518 4.94292 13.8638 5.00113 13.8638 5.05997C13.8638 5.1188 13.8518 5.17701 13.8286 5.23106C13.8054 5.28511 13.7714 5.33386 13.7287 5.37435C13.686 5.41483 13.6355 5.44619 13.5803 5.46652C13.5251 5.48686 13.4663 5.49573 13.4076 5.49261Z" fill="#222222" fill-opacity="0.5"/>
<path d="M23.5835 14.7448C23.5266 14.7449 23.4701 14.7338 23.4175 14.7121C23.3649 14.6904 23.317 14.6585 23.2768 14.6182C23.2365 14.578 23.2046 14.5301 23.1829 14.4775C23.1612 14.4249 23.1501 14.3685 23.1502 14.3115C23.1515 13.2151 23.588 12.164 24.3638 11.3892C25.1395 10.6143 26.1911 10.1791 27.2875 10.1791C27.4024 10.1791 27.5126 10.2248 27.5939 10.306C27.6751 10.3873 27.7208 10.4975 27.7208 10.6124C27.7195 11.708 27.2837 12.7583 26.509 13.533C25.7343 14.3077 24.684 14.7435 23.5884 14.7448M26.8225 11.0835C26.1247 11.1854 25.4783 11.5098 24.9796 12.0085C24.4809 12.5072 24.1565 13.1535 24.0546 13.8514C24.7525 13.7495 25.3988 13.4251 25.8975 12.9264C26.3962 12.4277 26.7206 11.7813 26.8225 11.0835Z" fill="#222222" fill-opacity="0.5"/>
<path d="M23.5836 16.5938C22.488 16.5925 21.4377 16.1567 20.663 15.382C19.8883 14.6073 19.4525 13.5569 19.4512 12.4613C19.4512 12.3464 19.4968 12.2362 19.5781 12.155C19.6594 12.0737 19.7696 12.0281 19.8845 12.0281C20.9801 12.0291 22.0307 12.4647 22.8054 13.2395C23.5802 14.0143 24.0159 15.0648 24.0169 16.1605C24.017 16.2174 24.0059 16.2739 23.9842 16.3265C23.9625 16.3791 23.9306 16.427 23.8903 16.4672C23.8501 16.5075 23.8022 16.5394 23.7496 16.5611C23.697 16.5828 23.6406 16.5939 23.5836 16.5938ZM20.3494 12.9324C20.4514 13.6303 20.7758 14.2767 21.2745 14.7754C21.7732 15.2741 22.4195 15.5985 23.1174 15.7004C23.0153 15.0026 22.6908 14.3564 22.1922 13.8577C21.6935 13.359 21.0472 13.0345 20.3494 12.9324Z" fill="#222222" fill-opacity="0.5"/>
<path d="M23.5836 17.9826C23.4687 17.9826 23.3585 17.937 23.2772 17.8557C23.196 17.7745 23.1503 17.6643 23.1503 17.5494V10.6124C23.1472 10.5536 23.1561 10.4949 23.1764 10.4396C23.1968 10.3844 23.2281 10.334 23.2686 10.2913C23.3091 10.2486 23.3578 10.2146 23.4119 10.1913C23.4659 10.1681 23.5241 10.1561 23.583 10.1561C23.6418 10.1561 23.7 10.1681 23.7541 10.1913C23.8081 10.2146 23.8569 10.2486 23.8974 10.2913C23.9378 10.334 23.9692 10.3844 23.9895 10.4396C24.0099 10.4949 24.0187 10.5536 24.0156 10.6124V17.5506C24.0156 17.6655 23.97 17.7757 23.8887 17.8569C23.8075 17.9382 23.6973 17.9838 23.5824 17.9838" fill="#222222" fill-opacity="0.5"/>
<path d="M16.0961 22.1456H15.2284C15.1696 22.1487 15.1109 22.1398 15.0557 22.1195C15.0005 22.0991 14.95 22.0678 14.9073 22.0273C14.8646 21.9868 14.8306 21.9381 14.8074 21.884C14.7841 21.83 14.7722 21.7718 14.7722 21.7129C14.7722 21.6541 14.7841 21.5959 14.8074 21.5418C14.8306 21.4878 14.8646 21.439 14.9073 21.3985C14.95 21.3581 15.0005 21.3267 15.0557 21.3064C15.1109 21.286 15.1696 21.2772 15.2284 21.2803H16.0961C16.1549 21.2772 16.2137 21.286 16.2689 21.3064C16.3241 21.3267 16.3745 21.3581 16.4172 21.3985C16.4599 21.439 16.4939 21.4878 16.5172 21.5418C16.5404 21.5959 16.5524 21.6541 16.5524 21.7129C16.5524 21.7718 16.5404 21.83 16.5172 21.884C16.4939 21.9381 16.4599 21.9868 16.4172 22.0273C16.3745 22.0678 16.3241 22.0991 16.2689 22.1195C16.2137 22.1398 16.1549 22.1487 16.0961 22.1456Z" fill="#222222" fill-opacity="0.5"/>
<path d="M14.3605 22.1456H13.4928C13.434 22.1487 13.3753 22.1398 13.32 22.1195C13.2648 22.0991 13.2144 22.0678 13.1717 22.0273C13.129 21.9868 13.095 21.9381 13.0717 21.884C13.0485 21.83 13.0365 21.7718 13.0365 21.7129C13.0365 21.6541 13.0485 21.5959 13.0717 21.5418C13.095 21.4878 13.129 21.439 13.1717 21.3985C13.2144 21.3581 13.2648 21.3267 13.32 21.3064C13.3753 21.286 13.434 21.2772 13.4928 21.2803H14.3605C14.4193 21.2772 14.478 21.286 14.5332 21.3064C14.5884 21.3267 14.6389 21.3581 14.6816 21.3985C14.7243 21.439 14.7583 21.4878 14.7815 21.5418C14.8048 21.5959 14.8167 21.6541 14.8167 21.7129C14.8167 21.7718 14.8048 21.83 14.7815 21.884C14.7583 21.9381 14.7243 21.9868 14.6816 22.0273C14.6389 22.0678 14.5884 22.0991 14.5332 22.1195C14.478 22.1398 14.4193 22.1487 14.3605 22.1456Z" fill="#222222" fill-opacity="0.5"/>
</svg>
