<svg width="20" height="20" viewBox="0 0 20 20" fill="none" xmlns="http://www.w3.org/2000/svg">
<path d="M5.7 9.00537C6.1 7.00537 7.9 5.50537 10 5.50537C11.5 5.50537 12.7 6.20537 13.5 7.30537L15.2 5.30537C14 3.90537 12.1 3.00537 10 3.00537C6.5 3.00537 3.6 5.60537 3.1 9.00537H1L4.5 13.0054L8 9.00537H5.7ZM15.5 7.00537L12 11.0054H14.3C13.8 13.0054 12.1 14.5054 10 14.5054C8.5 14.5054 7.3 13.8054 6.5 12.7054L4.8 14.6054C6 16.1054 7.9 17.0054 10 17.0054C13.5 17.0054 16.4 14.4054 16.9 11.0054H19L15.5 7.00537Z" fill="#4E50D2"/>
</svg>
