<svg width="18" height="18" viewBox="0 0 18 18" fill="none" xmlns="http://www.w3.org/2000/svg">
<g clip-path="url(#clip0_68_1300)">
<path d="M15.7554 0.00463867L15.75 18.0046L2.24998 18.0006L2.25537 0.000597086L15.7554 0.00463867ZM3.37532 16.8759L14.6253 16.8793L14.63 1.1293L3.38004 1.12593L3.37532 16.8759ZM8.25684 4.88032L7.50121 4.12424L9.56726 2.05064L11.6321 4.12547L10.876 4.88111L10.1291 4.13381L10.128 7.87795L9.00301 7.87762L9.00413 4.13348L8.25684 4.88032ZM8.25437 13.1245L9.00122 13.8718L9.00234 10.1276L10.1273 10.128L10.1262 13.8721L10.8735 13.1252L11.6291 13.8813L9.5631 15.9549L7.49829 13.8801L8.25437 13.1245Z" fill="#4E50D2"/>
</g>
<defs>
<clipPath id="clip0_68_1300">
<rect width="18" height="18" fill="white" transform="translate(18.0054 0.00537109) rotate(90.0172)"/>
</clipPath>
</defs>
</svg>
