<svg width="24" height="24" viewBox="0 0 24 24" fill="none" xmlns="http://www.w3.org/2000/svg">
<g clip-path="url(#clip0_677_8823)">
<path d="M21.3333 4H2.66667C2.31304 4 1.9739 4.14048 1.72386 4.39052C1.47381 4.64057 1.33333 4.97971 1.33333 5.33333V18.6667C1.33333 19.0203 1.47381 19.3594 1.72386 19.6095C1.9739 19.8595 2.31304 20 2.66667 20H12.6667L13.0467 19.5333L13.6667 18.7733L13.6067 18.6667H2.66667V5.33333H21.3333V11.04C21.8399 11.3678 22.2901 11.7752 22.6667 12.2467V5.33333C22.6667 4.97971 22.5262 4.64057 22.2761 4.39052C22.0261 4.14048 21.687 4 21.3333 4Z" fill="#4E50D2"/>
<path d="M4.66667 8H16V9.06667H4.66667V8Z" fill="#4E50D2"/>
<path d="M4.66667 10.667H12V11.7337H4.66667V10.667Z" fill="#4E50D2"/>
<path d="M4.66667 15.333H11.3333V16.3997H4.66667V15.333Z" fill="#4E50D2"/>
<path d="M18.3067 11.4865C17.4536 11.4797 16.6182 11.7304 15.9099 12.2059C15.2015 12.6814 14.6531 13.3595 14.3363 14.1516C14.0194 14.9438 13.9489 15.813 14.1339 16.6459C14.3189 17.4787 14.7509 18.2363 15.3733 18.8198L14.08 20.3998L14.68 22.8065L17.12 19.8331C17.8924 20.0615 18.7143 20.0615 19.4867 19.8331L21.9267 22.8065L22.5267 20.3998L21.2333 18.8198C21.8558 18.2363 22.2877 17.4787 22.4728 16.6459C22.6578 15.813 22.5873 14.9438 22.2704 14.1516C21.9536 13.3595 21.4051 12.6814 20.6968 12.2059C19.9884 11.7304 19.1531 11.4797 18.3 11.4865H18.3067ZM18.3067 18.6065C17.7401 18.5986 17.1886 18.4234 16.7214 18.1029C16.2541 17.7824 15.8921 17.331 15.6807 16.8053C15.4694 16.2796 15.4182 15.7032 15.5335 15.1485C15.6489 14.5937 15.9256 14.0855 16.329 13.6877C16.7324 13.2898 17.2444 13.0201 17.8007 12.9124C18.3569 12.8048 18.9326 12.864 19.4553 13.0826C19.978 13.3012 20.4244 13.6694 20.7384 14.141C21.0524 14.6126 21.2199 15.1666 21.22 15.7331C21.213 16.4999 20.9025 17.2327 20.3565 17.7712C19.8105 18.3097 19.0735 18.61 18.3067 18.6065Z" fill="#4E50D2"/>
</g>
<defs>
<clipPath id="clip0_677_8823">
<rect width="24" height="24" fill="white"/>
</clipPath>
</defs>
</svg>
