<svg width="24" height="24" viewBox="0 0 24 24" fill="none" xmlns="http://www.w3.org/2000/svg">
<path d="M5.039 19.3514C4.89633 19.3514 4.77733 19.3037 4.682 19.2084C4.586 19.113 4.538 18.994 4.538 18.8514V17.8514H4C3.436 17.8514 2.96167 17.659 2.577 17.2744C2.19233 16.8897 2 16.4154 2 15.8514V10.8514C2 10.43 2.14467 10.0747 2.434 9.78535C2.72267 9.49602 3.078 9.35135 3.5 9.35135C3.922 9.35135 4.27733 9.49602 4.566 9.78535C4.85533 10.0747 5 10.43 5 10.8514V14.3514H19V10.8514C19 10.43 19.1447 10.0747 19.434 9.78535C19.7227 9.49602 20.078 9.35135 20.5 9.35135C20.922 9.35135 21.2773 9.49602 21.566 9.78535C21.8553 10.0747 22 10.43 22 10.8514V15.8514C22 16.4154 21.8077 16.8897 21.423 17.2744C21.0383 17.659 20.564 17.8514 20 17.8514H19.462V18.8514C19.462 18.9807 19.4173 19.0964 19.328 19.1984C19.2387 19.3004 19.1293 19.3514 19 19.3514C18.858 19.3514 18.739 19.3037 18.643 19.2084C18.5477 19.1124 18.5 18.9934 18.5 18.8514V17.8514H5.539V18.8514C5.539 18.994 5.491 19.113 5.395 19.2084C5.29967 19.3037 5.18167 19.3514 5.039 19.3514ZM6 13.3514V10.8514C6 10.23 5.81367 9.67535 5.441 9.18735C5.069 8.69935 4.58867 8.42068 4 8.35135V7.23635C4 6.67235 4.19233 6.19802 4.577 5.81335C4.96167 5.42868 5.436 5.23602 6 5.23535H18C18.564 5.23535 19.0383 5.42769 19.423 5.81235C19.8077 6.19702 20 6.67135 20 7.23535V8.35035C19.4073 8.41702 18.926 8.69302 18.556 9.17835C18.1853 9.66435 18 10.222 18 10.8514V13.3514H6Z" fill="#4E50D2"/>
</svg>
