<svg width="16" height="18" viewBox="0 0 16 18" fill="none" xmlns="http://www.w3.org/2000/svg">
<path d="M7.66571 17.105C7.20105 17.105 6.75541 16.9204 6.42685 16.5918C6.09829 16.2633 5.9137 15.8176 5.9137 15.353H9.4137C9.41343 15.8169 9.22931 16.2617 8.90167 16.5901C8.57403 16.9185 8.12959 17.1037 7.66571 17.105ZM14.6737 15.353H0.658691V14.477L2.41071 12.725V8.34499C2.38449 7.08279 2.74303 5.8425 3.43869 4.78899C4.12658 3.78614 5.16699 3.07921 6.35269 2.80899V2.20899C6.35269 1.86049 6.49116 1.52627 6.73758 1.27985C6.984 1.03343 7.31822 0.894989 7.66672 0.894989C8.01521 0.894989 8.34943 1.03343 8.59586 1.27985C8.84228 1.52627 8.98071 1.86049 8.98071 2.20899V2.80899C10.1653 3.08125 11.204 3.78912 11.8907 4.79199C12.588 5.84385 12.9479 7.08328 12.9227 8.34499V12.725L14.6747 14.477L14.6737 15.353Z" stroke="white" stroke-linecap="round" stroke-linejoin="round"/>
</svg>
