<svg width="28" height="21" viewBox="0 0 28 21" fill="none" xmlns="http://www.w3.org/2000/svg">
<path d="M14 0C8.16667 0 3.5 4.66667 3.5 10.5C3.5 16.3333 8.16667 21 14 21C19.8333 21 24.5 16.3333 24.5 10.5C24.5 4.66667 19.8333 0 14 0ZM14 18.6667C9.45 18.6667 5.83333 15.05 5.83333 10.5C5.83333 5.95 9.45 2.33333 14 2.33333C18.55 2.33333 22.1667 5.95 22.1667 10.5C22.1667 15.05 18.55 18.6667 14 18.6667ZM23.9167 20.4167C26.4833 17.85 28 14.35 28 10.5C28 6.65 26.4833 3.15 23.9167 0.583333L22.6333 1.86667C24.85 4.08333 26.25 7.11667 26.25 10.5C26.25 13.8833 24.85 16.9167 22.6333 19.1333L23.9167 20.4167ZM5.36667 19.1333C3.15 16.9167 1.75 13.8833 1.75 10.5C1.75 7.11667 3.15 4.08333 5.36667 1.86667L4.08333 0.583333C1.51667 3.15 0 6.65 0 10.5C0 14.35 1.51667 17.85 4.08333 20.4167L5.36667 19.1333ZM11.0833 4.66667V16.3333H13.4167V11.6667H15.75C16.3688 11.6667 16.9623 11.4208 17.3999 10.9832C17.8375 10.5457 18.0833 9.95217 18.0833 9.33333V7C18.0833 6.38116 17.8375 5.78767 17.3999 5.35008C16.9623 4.9125 16.3688 4.66667 15.75 4.66667H11.0833ZM13.4167 7H15.75V9.33333H13.4167V7Z" fill="#4E50D2"/>
</svg>
