<svg width="21" height="21" viewBox="0 0 21 21" fill="none" xmlns="http://www.w3.org/2000/svg">
<path d="M3.96875 17.625C4.42512 17.1139 6.5625 14.7618 7.18886 14.7618H13.8115C14.7192 14.7618 16.5721 16.7115 17.0312 17.3988M20 10.5C20 15.7467 15.7467 20 10.5 20C5.2533 20 1 15.7467 1 10.5C1 5.2533 5.2533 1 10.5 1C15.7467 1 20 5.2533 20 10.5ZM13.903 7.26204C13.903 5.44961 12.373 3.96875 10.5003 3.96875C8.62762 3.96875 7.09755 5.44961 7.09755 7.26204C7.09755 9.07448 8.62762 10.5553 10.5003 10.5553C12.3729 10.5553 13.903 9.07448 13.903 7.26204Z" stroke="white"/>
</svg>
