<svg width="24" height="24" viewBox="0 0 24 24" fill="none" xmlns="http://www.w3.org/2000/svg">
<mask id="mask0_86_1328" style="mask-type:luminance" maskUnits="userSpaceOnUse" x="1" y="1" width="22" height="23">
<path d="M11 4.00537V10.0054C11 11.1104 8.985 12.0054 6.5 12.0054C4.015 12.0054 2 11.1104 2 10.0054V4.00537" stroke="white" stroke-width="2" stroke-linecap="round" stroke-linejoin="round"/>
<path d="M11 7.00537C11 8.11037 8.985 9.00537 6.5 9.00537C4.015 9.00537 2 8.11037 2 7.00537" stroke="white" stroke-width="2" stroke-linecap="round" stroke-linejoin="round"/>
<path d="M11 4.00537C11 5.11037 8.985 6.00537 6.5 6.00537C4.015 6.00537 2 5.11037 2 4.00537C2 2.90037 4.015 2.00537 6.5 2.00537C8.985 2.00537 11 2.90037 11 4.00537Z" fill="#555555" stroke="white" stroke-width="2" stroke-linecap="round" stroke-linejoin="round"/>
<path d="M16 3.00537H19C19.5304 3.00537 20.0391 3.21608 20.4142 3.59116C20.7893 3.96623 21 4.47494 21 5.00537V8.00537M8 21.0054H5C4.46957 21.0054 3.96086 20.7947 3.58579 20.4196C3.21071 20.0445 3 19.5358 3 19.0054V16.0054" stroke="white" stroke-width="2" stroke-linecap="round" stroke-linejoin="round"/>
<path d="M17.5 17.0054C18.8807 17.0054 20 15.8861 20 14.5054C20 13.1247 18.8807 12.0054 17.5 12.0054C16.1193 12.0054 15 13.1247 15 14.5054C15 15.8861 16.1193 17.0054 17.5 17.0054Z" fill="#555555" stroke="white" stroke-width="2" stroke-linecap="round" stroke-linejoin="round"/>
<path d="M22 22.0054H13C13 21.4144 13.1164 20.8293 13.3425 20.2833C13.5687 19.7373 13.9002 19.2413 14.318 18.8234C14.7359 18.4055 15.232 18.0741 15.7779 17.8479C16.3239 17.6218 16.9091 17.5054 17.5 17.5054C18.0909 17.5054 18.6761 17.6218 19.2221 17.8479C19.768 18.0741 20.2641 18.4055 20.682 18.8234C21.0998 19.2413 21.4313 19.7373 21.6575 20.2833C21.8836 20.8293 22 21.4144 22 22.0054Z" fill="#555555" stroke="white" stroke-width="2" stroke-linecap="round" stroke-linejoin="round"/>
</mask>
<g mask="url(#mask0_86_1328)">
<path d="M0 0.00537109H24V24.0054H0V0.00537109Z" fill="#4E50D2"/>
</g>
</svg>
