<svg width="65" height="57" viewBox="0 0 65 57" fill="none" xmlns="http://www.w3.org/2000/svg">
<path d="M11.5561 17.2744L10.7007 8.75238L1 9.50378" stroke="#4E50D2" stroke-miterlimit="13.33"/>
<path d="M54.1141 39.1201L54.9695 47.6421L64.6702 46.8907" stroke="#4E50D2" stroke-miterlimit="13.33"/>
<path d="M54.9486 47.6421C60.6022 42.6755 64.1069 35.8029 64.1069 28.1973C64.1069 13.0226 50.0878 0.706894 32.8142 0.706894" stroke="#4E50D2" stroke-miterlimit="13.33"/>
<path d="M10.7007 8.75238C5.04717 13.719 1.54239 20.5916 1.54239 28.1972C1.54239 43.3719 15.5615 55.6876 32.8351 55.6876" stroke="#4E50D2" stroke-miterlimit="13.33"/>
<path d="M46.6039 28.1973C46.6039 21.5263 40.4496 16.1015 32.8351 16.1015C25.2205 16.1015 19.0663 21.5079 19.0663 28.1973C19.0663 34.8866 25.2205 40.293 32.8351 40.293C40.4496 40.293 46.6039 34.8866 46.6039 28.1973Z" stroke="#4E50D2" stroke-miterlimit="13.33"/>
<path d="M38.8016 28.1972C38.8016 25.3016 36.1313 22.9557 32.8351 22.9557C29.5389 22.9557 26.8686 25.3016 26.8686 28.1972C26.8686 31.0929 29.5389 33.4387 32.8351 33.4387C36.1313 33.4387 38.8016 31.0929 38.8016 28.1972Z" stroke="#4E50D2" stroke-miterlimit="13.33"/>
<path d="M32.8351 16.1015V10.97" stroke="#4E50D2" stroke-miterlimit="13.33"/>
<path d="M24.7407 18.4107L21.2985 14.2505" stroke="#4E50D2" stroke-miterlimit="13.33"/>
<path d="M19.7339 24.4585L14.1847 22.8641" stroke="#4E50D2" stroke-miterlimit="13.33"/>
<path d="M19.7339 31.9359L14.1847 33.5304" stroke="#4E50D2" stroke-miterlimit="13.33"/>
<path d="M24.7407 37.9839L21.2985 42.1441" stroke="#4E50D2" stroke-miterlimit="13.33"/>
<path d="M32.8351 40.2931V45.4246" stroke="#4E50D2" stroke-miterlimit="13.33"/>
<path d="M40.9295 37.9839L44.3717 42.1441" stroke="#4E50D2" stroke-miterlimit="13.33"/>
<path d="M45.9154 31.9359L51.4647 33.5304" stroke="#4E50D2" stroke-miterlimit="13.33"/>
<path d="M45.9154 24.4585L51.4647 22.8641" stroke="#4E50D2" stroke-miterlimit="13.33"/>
<path d="M40.9295 18.4107L44.3717 14.2505" stroke="#4E50D2" stroke-miterlimit="13.33"/>
</svg>
