<svg width="16" height="16" viewBox="0 0 16 16" fill="none" xmlns="http://www.w3.org/2000/svg">
<g clip-path="url(#clip0_54_1216)">
<path d="M2 1.00537C2 0.740155 2.10536 0.485801 2.29289 0.298264C2.48043 0.110728 2.73478 0.00537109 3 0.00537109L13 0.00537109C13.2652 0.00537109 13.5196 0.110728 13.7071 0.298264C13.8946 0.485801 14 0.740155 14 1.00537V7.50537C14 7.63798 13.9473 7.76516 13.8536 7.85892C13.7598 7.95269 13.6326 8.00537 13.5 8.00537C13.3674 8.00537 13.2402 7.95269 13.1464 7.85892C13.0527 7.76516 13 7.63798 13 7.50537V1.00537H3V15.0054H6V12.5054C6 12.3728 6.05268 12.2456 6.14645 12.1518C6.24021 12.058 6.36739 12.0054 6.5 12.0054H8V16.0054H3C2.73478 16.0054 2.48043 15.9 2.29289 15.7125C2.10536 15.5249 2 15.2706 2 15.0054V1.00537Z" fill="#4E50D2"/>
<path d="M4.5 2.00537C4.36739 2.00537 4.24021 2.05805 4.14645 2.15182C4.05268 2.24559 4 2.37276 4 2.50537V3.50537C4 3.63798 4.05268 3.76516 4.14645 3.85892C4.24021 3.95269 4.36739 4.00537 4.5 4.00537H5.5C5.63261 4.00537 5.75979 3.95269 5.85355 3.85892C5.94732 3.76516 6 3.63798 6 3.50537V2.50537C6 2.37276 5.94732 2.24559 5.85355 2.15182C5.75979 2.05805 5.63261 2.00537 5.5 2.00537H4.5ZM7.5 2.00537C7.36739 2.00537 7.24021 2.05805 7.14645 2.15182C7.05268 2.24559 7 2.37276 7 2.50537V3.50537C7 3.63798 7.05268 3.76516 7.14645 3.85892C7.24021 3.95269 7.36739 4.00537 7.5 4.00537H8.5C8.63261 4.00537 8.75979 3.95269 8.85355 3.85892C8.94732 3.76516 9 3.63798 9 3.50537V2.50537C9 2.37276 8.94732 2.24559 8.85355 2.15182C8.75979 2.05805 8.63261 2.00537 8.5 2.00537H7.5ZM10.5 2.00537C10.3674 2.00537 10.2402 2.05805 10.1464 2.15182C10.0527 2.24559 10 2.37276 10 2.50537V3.50537C10 3.63798 10.0527 3.76516 10.1464 3.85892C10.2402 3.95269 10.3674 4.00537 10.5 4.00537H11.5C11.6326 4.00537 11.7598 3.95269 11.8536 3.85892C11.9473 3.76516 12 3.63798 12 3.50537V2.50537C12 2.37276 11.9473 2.24559 11.8536 2.15182C11.7598 2.05805 11.6326 2.00537 11.5 2.00537H10.5ZM4.5 5.00537C4.36739 5.00537 4.24021 5.05805 4.14645 5.15182C4.05268 5.24559 4 5.37276 4 5.50537V6.50537C4 6.63798 4.05268 6.76516 4.14645 6.85892C4.24021 6.95269 4.36739 7.00537 4.5 7.00537H5.5C5.63261 7.00537 5.75979 6.95269 5.85355 6.85892C5.94732 6.76516 6 6.63798 6 6.50537V5.50537C6 5.37276 5.94732 5.24559 5.85355 5.15182C5.75979 5.05805 5.63261 5.00537 5.5 5.00537H4.5ZM7.5 5.00537C7.36739 5.00537 7.24021 5.05805 7.14645 5.15182C7.05268 5.24559 7 5.37276 7 5.50537V6.50537C7 6.63798 7.05268 6.76516 7.14645 6.85892C7.24021 6.95269 7.36739 7.00537 7.5 7.00537H8.5C8.63261 7.00537 8.75979 6.95269 8.85355 6.85892C8.94732 6.76516 9 6.63798 9 6.50537V5.50537C9 5.37276 8.94732 5.24559 8.85355 5.15182C8.75979 5.05805 8.63261 5.00537 8.5 5.00537H7.5ZM10.5 5.00537C10.3674 5.00537 10.2402 5.05805 10.1464 5.15182C10.0527 5.24559 10 5.37276 10 5.50537V6.50537C10 6.63798 10.0527 6.76516 10.1464 6.85892C10.2402 6.95269 10.3674 7.00537 10.5 7.00537H11.5C11.6326 7.00537 11.7598 6.95269 11.8536 6.85892C11.9473 6.76516 12 6.63798 12 6.50537V5.50537C12 5.37276 11.9473 5.24559 11.8536 5.15182C11.7598 5.05805 11.6326 5.00537 11.5 5.00537H10.5ZM4.5 8.00537C4.36739 8.00537 4.24021 8.05805 4.14645 8.15182C4.05268 8.24559 4 8.37276 4 8.50537V9.50537C4 9.63798 4.05268 9.76516 4.14645 9.85892C4.24021 9.95269 4.36739 10.0054 4.5 10.0054H5.5C5.63261 10.0054 5.75979 9.95269 5.85355 9.85892C5.94732 9.76516 6 9.63798 6 9.50537V8.50537C6 8.37276 5.94732 8.24559 5.85355 8.15182C5.75979 8.05805 5.63261 8.00537 5.5 8.00537H4.5ZM7.5 8.00537C7.36739 8.00537 7.24021 8.05805 7.14645 8.15182C7.05268 8.24559 7 8.37276 7 8.50537V9.50537C7 9.63798 7.05268 9.76516 7.14645 9.85892C7.24021 9.95269 7.36739 10.0054 7.5 10.0054H8.5C8.63261 10.0054 8.75979 9.95269 8.85355 9.85892C8.94732 9.76516 9 9.63798 9 9.50537V8.50537C9 8.37276 8.94732 8.24559 8.85355 8.15182C8.75979 8.05805 8.63261 8.00537 8.5 8.00537H7.5ZM11.886 9.46537C12.066 8.85237 12.934 8.85237 13.115 9.46537L13.158 9.61337C13.1849 9.70518 13.232 9.78979 13.2958 9.861C13.3597 9.93221 13.4387 9.98819 13.5271 10.0248C13.6154 10.0615 13.7109 10.0779 13.8064 10.0728C13.9019 10.0677 13.9951 10.0412 14.079 9.99537L14.215 9.92137C14.776 9.61537 15.39 10.2294 15.085 10.7904L15.01 10.9264C14.9643 11.0103 14.938 11.1034 14.933 11.1987C14.928 11.2941 14.9445 11.3895 14.9811 11.4777C15.0177 11.5659 15.0736 11.6448 15.1448 11.7086C15.2159 11.7724 15.3003 11.8195 15.392 11.8464L15.541 11.8914C16.153 12.0714 16.153 12.9394 15.541 13.1204L15.391 13.1634C15.2994 13.1905 15.215 13.2377 15.144 13.3017C15.073 13.3656 15.0172 13.4447 14.9808 13.533C14.9444 13.6213 14.9282 13.7167 14.9334 13.8121C14.9386 13.9075 14.9651 14.0006 15.011 14.0844L15.085 14.2204C15.39 14.7814 14.776 15.3954 14.215 15.0904L14.079 15.0154C13.9951 14.9697 13.902 14.9434 13.8066 14.9384C13.7112 14.9334 13.6159 14.9498 13.5277 14.9865C13.4395 15.0231 13.3606 15.079 13.2968 15.1501C13.233 15.2212 13.1859 15.3057 13.159 15.3974L13.114 15.5464C12.934 16.1584 12.066 16.1584 11.885 15.5464L11.842 15.3964C11.8149 15.3047 11.7677 15.2203 11.7037 15.1494C11.6397 15.0784 11.5607 15.0226 11.4724 14.9862C11.384 14.9497 11.2887 14.9335 11.1933 14.9388C11.0978 14.944 11.0048 14.9705 10.921 15.0164L10.785 15.0904C10.224 15.3954 9.61 14.7814 9.915 14.2204L9.99 14.0844C10.0357 14.0005 10.062 13.9074 10.067 13.812C10.072 13.7166 10.0555 13.6213 10.0189 13.5331C9.98227 13.4448 9.92635 13.3659 9.85525 13.3021C9.78415 13.2383 9.69967 13.1913 9.608 13.1644L9.46 13.1194C8.847 12.9394 8.847 12.0714 9.46 11.8904L9.608 11.8474C9.6998 11.8205 9.78442 11.7734 9.85563 11.7096C9.92684 11.6457 9.98282 11.5667 10.0195 11.4783C10.0561 11.39 10.0725 11.2945 10.0674 11.199C10.0623 11.1035 10.0358 11.0103 9.99 10.9264L9.916 10.7904C9.61 10.2294 10.224 9.61537 10.785 9.92037L10.921 9.99537C11.0049 10.041 11.098 10.0673 11.1934 10.0723C11.2888 10.0773 11.3841 10.0609 11.4723 10.0243C11.5605 9.98764 11.6394 9.93172 11.7032 9.86062C11.767 9.78952 11.8141 9.70504 11.841 9.61337L11.886 9.46537ZM14 12.5054C14 12.3084 13.9612 12.1133 13.8858 11.9313C13.8104 11.7494 13.6999 11.584 13.5607 11.4447C13.4214 11.3054 13.256 11.1949 13.074 11.1196C12.892 11.0442 12.697 11.0054 12.5 11.0054C12.303 11.0054 12.108 11.0442 11.926 11.1196C11.744 11.1949 11.5786 11.3054 11.4393 11.4447C11.3001 11.584 11.1896 11.7494 11.1142 11.9313C11.0388 12.1133 11 12.3084 11 12.5054C11 12.9032 11.158 13.2847 11.4393 13.566C11.7206 13.8473 12.1022 14.0054 12.5 14.0054C12.8978 14.0054 13.2794 13.8473 13.5607 13.566C13.842 13.2847 14 12.9032 14 12.5054Z" fill="#4E50D2"/>
</g>
<defs>
<clipPath id="clip0_54_1216">
<rect width="16" height="16" fill="white" transform="translate(0 0.00537109)"/>
</clipPath>
</defs>
</svg>
