<svg width="63" height="57" viewBox="0 0 63 57" fill="none" xmlns="http://www.w3.org/2000/svg">
<path d="M20.2568 25.9975H5.52838V56.4386H20.2568V25.9975Z" stroke="#4E50D2" stroke-miterlimit="10.04"/>
<path d="M57.057 25.9975H42.3286V56.4386H57.057V25.9975Z" stroke="#4E50D2" stroke-miterlimit="10.04"/>
<path d="M42.3494 19.5281H20.2568V56.4385H42.3494V19.5281Z" stroke="#4E50D2" stroke-miterlimit="10.04"/>
<path d="M20.2568 19.5281H42.3286" stroke="#4E50D2" stroke-miterlimit="10.04"/>
<path d="M0 56.4569H62.5854" stroke="#4E50D2" stroke-miterlimit="10.04"/>
<path d="M12.8926 33.1451V36.3706" stroke="#4E50D2" stroke-miterlimit="10.04"/>
<path d="M12.8926 39.6144V42.84" stroke="#4E50D2" stroke-miterlimit="10.04"/>
<path d="M12.8926 46.0839V49.3094" stroke="#4E50D2" stroke-miterlimit="10.04"/>
<path d="M49.6928 33.1451V36.3706" stroke="#4E50D2" stroke-miterlimit="10.04"/>
<path d="M49.6928 39.6144V42.84" stroke="#4E50D2" stroke-miterlimit="10.04"/>
<path d="M49.6928 46.0839V49.3094" stroke="#4E50D2" stroke-miterlimit="10.04"/>
<path d="M34.9644 56.4569H27.6002V42.1802C27.6002 40.4025 29.2482 38.9547 31.2718 38.9547C33.2954 38.9547 34.9435 40.4025 34.9435 42.1802V56.4569H34.9644Z" stroke="#4E50D2" stroke-miterlimit="10.04"/>
<path d="M25.7643 25.9975H36.8211" stroke="#4E50D2" stroke-miterlimit="10.04"/>
<path d="M25.7643 32.4669H36.8211" stroke="#4E50D2" stroke-miterlimit="10.04"/>
<path d="M31.2927 1.87931L33.2746 4.95823L36.8419 5.65465L34.4846 8.25708L34.9435 11.7758L31.2927 10.2914L27.6419 11.7758L28.1008 8.25708L25.7435 5.65465L29.3108 4.95823L31.2927 1.87931Z" stroke="#4E50D2" stroke-miterlimit="10.04"/>
<path d="M8.86627 5.01324L10.8481 8.09216L14.4155 8.78858L12.0581 11.391L12.5171 14.8914L8.86627 13.4253L5.21546 14.8914L5.67441 11.391L3.31703 8.78858L6.8844 8.09216L8.86627 5.01324Z" stroke="#4E50D2" stroke-miterlimit="10.04"/>
<path d="M53.7191 5.01324L55.701 8.09216L59.2684 8.78858L56.911 11.391L57.37 14.8914L53.7191 13.4253L50.0683 14.8914L50.5273 11.391L48.1699 8.78858L51.7373 8.09216L53.7191 5.01324Z" stroke="#4E50D2" stroke-miterlimit="10.04"/>
</svg>
