<svg width="23" height="22" viewBox="0 0 23 22" fill="none" xmlns="http://www.w3.org/2000/svg">
<path d="M6.59934 11.9078L9.901 8.6061L1.711 0.427766C0.836993 1.3043 0.346191 2.49161 0.346191 3.72943C0.346191 4.96725 0.836993 6.15457 1.711 7.0311L6.59934 11.9078ZM14.5093 9.7961C16.2943 10.6244 18.8027 10.0411 20.6577 8.1861C22.886 5.95777 23.3177 2.7611 21.6027 1.0461C19.8993 -0.657234 16.7027 -0.237234 14.4627 1.9911C12.6077 3.8461 12.0243 6.35443 12.8527 8.13943L1.466 19.5261L3.111 21.1711L11.1493 13.1561L19.176 21.1828L20.821 19.5378L12.7943 11.5111L14.5093 9.7961Z" fill="#4E50D2"/>
</svg>
