<svg width="17" height="18" viewBox="0 0 17 18" fill="none" xmlns="http://www.w3.org/2000/svg">
<path fill-rule="evenodd" clip-rule="evenodd" d="M9.97179 2.2537C9.59643 0.712795 7.40357 0.712795 7.02821 2.2537C6.97217 2.48525 6.86225 2.7003 6.7074 2.88134C6.55255 3.06238 6.35714 3.20431 6.13708 3.29557C5.91702 3.38683 5.67852 3.42484 5.44099 3.40651C5.20346 3.38819 4.97361 3.31404 4.77015 3.1901C3.41492 2.36433 1.86411 3.91512 2.68989 5.27033C3.22329 6.14549 2.75014 7.28734 1.75446 7.52934C0.212542 7.90371 0.212542 10.0975 1.75446 10.4709C1.98608 10.527 2.20116 10.637 2.38221 10.792C2.56325 10.947 2.70514 11.1425 2.79631 11.3627C2.88748 11.5829 2.92537 11.8215 2.90687 12.059C2.88838 12.2966 2.81403 12.5265 2.68989 12.7299C1.86411 14.0851 3.41492 15.6359 4.77015 14.8101C4.97357 14.686 5.20344 14.6117 5.44103 14.5932C5.67863 14.5747 5.91723 14.6126 6.13741 14.7037C6.35759 14.7949 6.55313 14.9368 6.7081 15.1178C6.86307 15.2989 6.97309 15.5139 7.0292 15.7456C7.40357 17.2875 9.59742 17.2875 9.9708 15.7456C10.0271 15.5141 10.1372 15.2991 10.2922 15.1182C10.4472 14.9373 10.6427 14.7955 10.8629 14.7044C11.083 14.6132 11.3215 14.5753 11.559 14.5937C11.7965 14.6121 12.0264 14.6862 12.2299 14.8101C13.5851 15.6359 15.1359 14.0851 14.3101 12.7299C14.1862 12.5264 14.112 12.2966 14.0936 12.0591C14.0753 11.8216 14.1132 11.583 14.2043 11.3629C14.2955 11.1428 14.4373 10.9473 14.6182 10.7923C14.7991 10.6373 15.014 10.5272 15.2455 10.4709C16.7875 10.0965 16.7875 7.90272 15.2455 7.52934C15.0139 7.47323 14.7988 7.36322 14.6178 7.20825C14.4367 7.05328 14.2949 6.85775 14.2037 6.63757C14.1125 6.41739 14.0746 6.17879 14.0931 5.9412C14.1116 5.70361 14.186 5.47375 14.3101 5.27033C15.1359 3.91512 13.5851 2.36433 12.2299 3.1901C12.0264 3.31425 11.7966 3.38859 11.559 3.40708C11.3214 3.42558 11.0828 3.3877 10.8626 3.29652C10.6424 3.20535 10.4469 3.06347 10.2919 2.88243C10.1369 2.70138 10.0269 2.4863 9.9708 2.25469L9.97179 2.2537Z" stroke="white"/>
<path d="M10.256 9C10.256 9.96981 9.46981 10.756 8.5 10.756C7.53019 10.756 6.74401 9.96981 6.74401 9C6.74401 8.03019 7.53019 7.24401 8.5 7.24401C9.46981 7.24401 10.256 8.03019 10.256 9Z" stroke="white"/>
</svg>
