<svg xmlns="http://www.w3.org/2000/svg" xmlns:xlink="http://www.w3.org/1999/xlink" width="500" zoomAndPan="magnify" viewBox="0 0 375 374.999991" height="500" preserveAspectRatio="xMidYMid meet" version="1.0"><defs><clipPath id="fd6962296e"><path d="M 0 2.1875 L 75 2.1875 L 75 45 L 0 45 Z M 0 2.1875 " clip-rule="nonzero"/></clipPath><clipPath id="076c12f8fc"><path d="M 80 301 L 123 301 L 123 374.9375 L 80 374.9375 Z M 80 301 " clip-rule="nonzero"/></clipPath><clipPath id="47f6fe0ddf"><path d="M 332 301 L 375 301 L 375 374.9375 L 332 374.9375 Z M 332 301 " clip-rule="nonzero"/></clipPath></defs><g clip-path="url(#fd6962296e)"><path fill="#a9aeb2" d="M 68.902344 44.15625 C 68.222656 44.15625 67.566406 44.027344 66.941406 43.765625 C 66.3125 43.507812 65.757812 43.136719 65.277344 42.65625 L 37.183594 14.558594 L 9.085938 42.65625 C 8.847656 42.894531 8.585938 43.105469 8.308594 43.292969 C 8.027344 43.480469 7.734375 43.636719 7.421875 43.765625 C 7.109375 43.894531 6.789062 43.992188 6.460938 44.058594 C 6.132812 44.121094 5.796875 44.15625 5.460938 44.15625 C 5.125 44.15625 4.792969 44.121094 4.460938 44.058594 C 4.132812 43.992188 3.8125 43.894531 3.5 43.765625 C 3.191406 43.636719 2.894531 43.480469 2.613281 43.292969 C 2.335938 43.105469 2.074219 42.894531 1.839844 42.65625 C 1.601562 42.417969 1.386719 42.15625 1.199219 41.878906 C 1.015625 41.597656 0.855469 41.304688 0.726562 40.992188 C 0.597656 40.683594 0.5 40.359375 0.4375 40.03125 C 0.371094 39.703125 0.335938 39.367188 0.335938 39.03125 C 0.335938 38.695312 0.371094 38.363281 0.4375 38.03125 C 0.5 37.703125 0.597656 37.382812 0.726562 37.070312 C 0.855469 36.761719 1.015625 36.464844 1.199219 36.183594 C 1.386719 35.90625 1.601562 35.644531 1.839844 35.410156 L 33.558594 3.6875 C 34.039062 3.207031 34.59375 2.835938 35.21875 2.578125 C 35.847656 2.316406 36.503906 2.1875 37.183594 2.1875 C 37.859375 2.1875 38.515625 2.316406 39.144531 2.578125 C 39.769531 2.835938 40.324219 3.207031 40.804688 3.6875 L 72.523438 35.410156 C 72.882812 35.765625 73.179688 36.167969 73.421875 36.617188 C 73.660156 37.0625 73.828125 37.535156 73.925781 38.03125 C 74.027344 38.527344 74.050781 39.03125 74 39.535156 C 73.949219 40.039062 73.828125 40.523438 73.636719 40.992188 C 73.441406 41.460938 73.183594 41.890625 72.863281 42.28125 C 72.539062 42.675781 72.167969 43.011719 71.746094 43.292969 C 71.328125 43.574219 70.875 43.789062 70.386719 43.933594 C 69.902344 44.082031 69.40625 44.15625 68.902344 44.15625 Z M 68.902344 44.15625 " fill-opacity="1" fill-rule="nonzero"/></g><path fill="#a9aeb2" d="M 37.183594 295.953125 C 36.503906 295.953125 35.847656 295.824219 35.21875 295.5625 C 34.59375 295.304688 34.039062 294.933594 33.558594 294.453125 L 1.839844 262.730469 C 1.597656 262.496094 1.386719 262.234375 1.199219 261.957031 C 1.011719 261.675781 0.855469 261.378906 0.722656 261.070312 C 0.59375 260.757812 0.496094 260.4375 0.433594 260.109375 C 0.367188 259.777344 0.332031 259.445312 0.332031 259.109375 C 0.332031 258.769531 0.363281 258.4375 0.429688 258.105469 C 0.496094 257.777344 0.59375 257.457031 0.722656 257.144531 C 0.851562 256.832031 1.007812 256.539062 1.195312 256.257812 C 1.382812 255.976562 1.59375 255.71875 1.832031 255.480469 C 2.070312 255.242188 2.332031 255.03125 2.609375 254.84375 C 2.890625 254.65625 3.1875 254.5 3.496094 254.371094 C 3.808594 254.242188 4.128906 254.144531 4.460938 254.078125 C 4.789062 254.011719 5.125 253.980469 5.460938 253.980469 C 5.796875 253.980469 6.128906 254.015625 6.460938 254.078125 C 6.789062 254.144531 7.109375 254.242188 7.421875 254.371094 C 7.734375 254.5 8.027344 254.660156 8.308594 254.847656 C 8.589844 255.035156 8.847656 255.246094 9.085938 255.484375 L 37.183594 283.582031 L 65.277344 255.484375 C 65.515625 255.246094 65.773438 255.035156 66.054688 254.847656 C 66.332031 254.660156 66.628906 254.5 66.941406 254.371094 C 67.25 254.242188 67.570312 254.144531 67.902344 254.082031 C 68.230469 254.015625 68.566406 253.980469 68.902344 253.980469 C 69.238281 253.980469 69.574219 254.011719 69.902344 254.078125 C 70.234375 254.144531 70.554688 254.242188 70.863281 254.371094 C 71.175781 254.5 71.472656 254.65625 71.75 254.84375 C 72.03125 255.03125 72.289062 255.242188 72.527344 255.480469 C 72.765625 255.71875 72.980469 255.980469 73.164062 256.257812 C 73.351562 256.539062 73.511719 256.835938 73.640625 257.144531 C 73.769531 257.457031 73.867188 257.777344 73.929688 258.109375 C 73.996094 258.4375 74.027344 258.769531 74.027344 259.109375 C 74.027344 259.445312 73.996094 259.777344 73.929688 260.109375 C 73.863281 260.4375 73.765625 260.757812 73.636719 261.070312 C 73.507812 261.378906 73.351562 261.675781 73.164062 261.957031 C 72.976562 262.234375 72.761719 262.496094 72.523438 262.730469 L 40.804688 294.453125 C 40.324219 294.933594 39.769531 295.304688 39.144531 295.5625 C 38.515625 295.824219 37.859375 295.953125 37.183594 295.953125 Z M 37.183594 295.953125 " fill-opacity="1" fill-rule="nonzero"/><path fill="#a9aeb2" d="M 37.183594 286.515625 C 36.84375 286.515625 36.511719 286.484375 36.183594 286.417969 C 35.851562 286.351562 35.53125 286.257812 35.222656 286.128906 C 34.910156 286 34.613281 285.839844 34.335938 285.652344 C 34.054688 285.46875 33.796875 285.253906 33.558594 285.015625 C 33.320312 284.777344 33.109375 284.519531 32.921875 284.238281 C 32.734375 283.960938 32.578125 283.664062 32.449219 283.355469 C 32.320312 283.042969 32.222656 282.722656 32.15625 282.394531 C 32.089844 282.0625 32.058594 281.730469 32.058594 281.394531 L 32.058594 10.144531 C 32.058594 9.808594 32.089844 9.476562 32.15625 9.144531 C 32.222656 8.816406 32.320312 8.496094 32.449219 8.183594 C 32.578125 7.875 32.734375 7.578125 32.921875 7.300781 C 33.109375 7.019531 33.320312 6.761719 33.558594 6.523438 C 33.796875 6.285156 34.054688 6.074219 34.335938 5.886719 C 34.613281 5.699219 34.910156 5.542969 35.222656 5.414062 C 35.53125 5.285156 35.851562 5.1875 36.183594 5.121094 C 36.511719 5.054688 36.84375 5.023438 37.183594 5.023438 C 37.519531 5.023438 37.851562 5.054688 38.179688 5.121094 C 38.511719 5.1875 38.832031 5.285156 39.140625 5.414062 C 39.453125 5.542969 39.75 5.699219 40.027344 5.886719 C 40.308594 6.074219 40.566406 6.285156 40.804688 6.523438 C 41.042969 6.761719 41.253906 7.019531 41.441406 7.300781 C 41.628906 7.578125 41.785156 7.875 41.914062 8.183594 C 42.042969 8.496094 42.140625 8.816406 42.207031 9.144531 C 42.273438 9.476562 42.304688 9.808594 42.304688 10.144531 L 42.304688 281.394531 C 42.304688 281.730469 42.273438 282.0625 42.207031 282.394531 C 42.140625 282.722656 42.042969 283.042969 41.914062 283.355469 C 41.785156 283.664062 41.628906 283.960938 41.441406 284.238281 C 41.253906 284.519531 41.042969 284.777344 40.804688 285.015625 C 40.566406 285.253906 40.308594 285.46875 40.027344 285.652344 C 39.75 285.839844 39.453125 286 39.140625 286.128906 C 38.832031 286.257812 38.511719 286.351562 38.179688 286.417969 C 37.851562 286.484375 37.519531 286.515625 37.183594 286.515625 Z M 37.183594 286.515625 " fill-opacity="1" fill-rule="nonzero"/><g clip-path="url(#076c12f8fc)"><path fill="#a9aeb2" d="M 117.554688 375.003906 C 116.875 375.003906 116.222656 374.875 115.59375 374.613281 C 114.964844 374.355469 114.410156 373.984375 113.929688 373.5 L 82.210938 341.78125 C 81.972656 341.542969 81.761719 341.285156 81.574219 341.007812 C 81.386719 340.726562 81.230469 340.429688 81.101562 340.121094 C 80.972656 339.808594 80.875 339.488281 80.808594 339.160156 C 80.742188 338.828125 80.710938 338.496094 80.710938 338.160156 C 80.710938 337.824219 80.742188 337.488281 80.808594 337.160156 C 80.875 336.828125 80.972656 336.507812 81.101562 336.199219 C 81.230469 335.886719 81.386719 335.59375 81.574219 335.3125 C 81.761719 335.03125 81.972656 334.773438 82.210938 334.535156 L 113.929688 302.816406 C 114.167969 302.578125 114.429688 302.367188 114.707031 302.179688 C 114.988281 301.992188 115.28125 301.835938 115.59375 301.707031 C 115.90625 301.578125 116.226562 301.484375 116.554688 301.417969 C 116.882812 301.351562 117.21875 301.320312 117.554688 301.320312 C 117.890625 301.320312 118.222656 301.351562 118.550781 301.417969 C 118.882812 301.484375 119.203125 301.582031 119.511719 301.710938 C 119.824219 301.839844 120.117188 301.996094 120.398438 302.183594 C 120.675781 302.371094 120.933594 302.582031 121.171875 302.820312 C 121.410156 303.058594 121.621094 303.316406 121.808594 303.597656 C 121.996094 303.875 122.15625 304.171875 122.28125 304.480469 C 122.410156 304.792969 122.507812 305.113281 122.574219 305.441406 C 122.640625 305.769531 122.671875 306.105469 122.675781 306.441406 C 122.675781 306.777344 122.640625 307.109375 122.578125 307.4375 C 122.511719 307.769531 122.414062 308.089844 122.285156 308.398438 C 122.15625 308.710938 122 309.003906 121.8125 309.285156 C 121.628906 309.566406 121.414062 309.824219 121.179688 310.0625 L 93.082031 338.160156 L 121.179688 366.253906 C 121.535156 366.613281 121.835938 367.015625 122.074219 367.464844 C 122.3125 367.910156 122.480469 368.382812 122.582031 368.878906 C 122.679688 369.375 122.703125 369.875 122.65625 370.378906 C 122.605469 370.886719 122.484375 371.371094 122.289062 371.839844 C 122.09375 372.308594 121.835938 372.738281 121.515625 373.128906 C 121.195312 373.519531 120.824219 373.859375 120.402344 374.140625 C 119.980469 374.421875 119.527344 374.632812 119.042969 374.78125 C 118.558594 374.929688 118.0625 375.003906 117.554688 375.003906 Z M 117.554688 375.003906 " fill-opacity="1" fill-rule="nonzero"/></g><g clip-path="url(#47f6fe0ddf)"><path fill="#a9aeb2" d="M 337.632812 375.003906 C 337.125 375.003906 336.628906 374.929688 336.144531 374.78125 C 335.660156 374.632812 335.207031 374.421875 334.785156 374.140625 C 334.363281 373.855469 333.992188 373.519531 333.671875 373.128906 C 333.347656 372.738281 333.089844 372.308594 332.898438 371.839844 C 332.703125 371.371094 332.582031 370.886719 332.53125 370.378906 C 332.484375 369.875 332.507812 369.375 332.605469 368.878906 C 332.703125 368.382812 332.875 367.910156 333.113281 367.464844 C 333.351562 367.015625 333.648438 366.613281 334.007812 366.253906 L 362.105469 338.160156 L 334.007812 310.0625 C 333.769531 309.824219 333.558594 309.566406 333.371094 309.285156 C 333.183594 309.003906 333.027344 308.710938 332.898438 308.398438 C 332.769531 308.089844 332.675781 307.769531 332.609375 307.4375 C 332.542969 307.109375 332.511719 306.777344 332.511719 306.441406 C 332.511719 306.101562 332.542969 305.769531 332.609375 305.441406 C 332.675781 305.109375 332.773438 304.789062 332.902344 304.480469 C 333.03125 304.167969 333.1875 303.875 333.375 303.59375 C 333.5625 303.316406 333.773438 303.054688 334.011719 302.816406 C 334.25 302.582031 334.507812 302.367188 334.789062 302.179688 C 335.066406 301.996094 335.363281 301.835938 335.671875 301.707031 C 335.984375 301.578125 336.304688 301.480469 336.632812 301.417969 C 336.964844 301.351562 337.296875 301.316406 337.632812 301.316406 C 337.96875 301.316406 338.300781 301.351562 338.632812 301.414062 C 338.960938 301.480469 339.28125 301.578125 339.59375 301.707031 C 339.902344 301.835938 340.199219 301.992188 340.476562 302.179688 C 340.757812 302.367188 341.015625 302.578125 341.253906 302.816406 L 372.976562 334.535156 C 373.214844 334.773438 373.425781 335.03125 373.613281 335.3125 C 373.800781 335.59375 373.957031 335.886719 374.085938 336.199219 C 374.214844 336.507812 374.3125 336.828125 374.378906 337.160156 C 374.441406 337.488281 374.476562 337.824219 374.476562 338.160156 C 374.476562 338.496094 374.441406 338.828125 374.378906 339.160156 C 374.3125 339.488281 374.214844 339.808594 374.085938 340.121094 C 373.957031 340.429688 373.800781 340.726562 373.613281 341.003906 C 373.425781 341.285156 373.214844 341.542969 372.976562 341.78125 L 341.253906 373.5 C 340.773438 373.984375 340.222656 374.355469 339.59375 374.613281 C 338.964844 374.875 338.3125 375.003906 337.632812 375.003906 Z M 337.632812 375.003906 " fill-opacity="1" fill-rule="nonzero"/></g><path fill="#a9aeb2" d="M 359.917969 343.28125 L 88.667969 343.28125 C 88.332031 343.28125 88 343.25 87.667969 343.183594 C 87.339844 343.117188 87.019531 343.023438 86.707031 342.894531 C 86.398438 342.765625 86.101562 342.605469 85.820312 342.417969 C 85.542969 342.230469 85.285156 342.019531 85.046875 341.78125 C 84.808594 341.542969 84.59375 341.285156 84.410156 341.003906 C 84.222656 340.726562 84.0625 340.429688 83.933594 340.121094 C 83.804688 339.808594 83.710938 339.488281 83.644531 339.160156 C 83.578125 338.828125 83.546875 338.496094 83.546875 338.160156 C 83.546875 337.824219 83.578125 337.488281 83.644531 337.160156 C 83.710938 336.828125 83.804688 336.507812 83.933594 336.199219 C 84.0625 335.886719 84.222656 335.59375 84.410156 335.3125 C 84.59375 335.03125 84.808594 334.773438 85.046875 334.535156 C 85.285156 334.296875 85.542969 334.085938 85.820312 333.898438 C 86.101562 333.710938 86.398438 333.554688 86.707031 333.425781 C 87.019531 333.296875 87.339844 333.199219 87.667969 333.132812 C 88 333.066406 88.332031 333.035156 88.667969 333.035156 L 359.917969 333.035156 C 360.253906 333.035156 360.585938 333.066406 360.914062 333.132812 C 361.246094 333.199219 361.566406 333.296875 361.875 333.425781 C 362.1875 333.554688 362.484375 333.710938 362.761719 333.898438 C 363.042969 334.085938 363.300781 334.296875 363.539062 334.535156 C 363.777344 334.773438 363.988281 335.03125 364.175781 335.3125 C 364.363281 335.59375 364.519531 335.886719 364.648438 336.199219 C 364.777344 336.507812 364.875 336.828125 364.941406 337.160156 C 365.007812 337.488281 365.039062 337.824219 365.039062 338.160156 C 365.039062 338.496094 365.007812 338.828125 364.941406 339.160156 C 364.875 339.488281 364.777344 339.808594 364.648438 340.121094 C 364.519531 340.429688 364.363281 340.726562 364.175781 341.003906 C 363.988281 341.285156 363.777344 341.542969 363.539062 341.78125 C 363.300781 342.019531 363.042969 342.230469 362.761719 342.417969 C 362.484375 342.605469 362.1875 342.765625 361.875 342.894531 C 361.566406 343.023438 361.246094 343.117188 360.914062 343.183594 C 360.585938 343.25 360.253906 343.28125 359.917969 343.28125 Z M 359.917969 343.28125 " fill-opacity="1" fill-rule="nonzero"/><path fill="#a9aeb2" d="M 248.886719 283.332031 L 110.636719 283.332031 C 110.300781 283.332031 109.96875 283.296875 109.640625 283.234375 C 109.308594 283.167969 108.988281 283.070312 108.679688 282.941406 C 108.367188 282.8125 108.070312 282.65625 107.792969 282.46875 C 107.511719 282.28125 107.253906 282.070312 107.015625 281.832031 C 106.777344 281.59375 106.566406 281.332031 106.378906 281.054688 C 106.191406 280.773438 106.035156 280.480469 105.90625 280.167969 C 105.777344 279.855469 105.679688 279.535156 105.613281 279.207031 C 105.546875 278.875 105.515625 278.542969 105.515625 278.207031 L 105.515625 19.953125 C 105.515625 19.617188 105.546875 19.285156 105.613281 18.953125 C 105.679688 18.625 105.777344 18.304688 105.90625 17.992188 C 106.035156 17.679688 106.191406 17.386719 106.378906 17.105469 C 106.566406 16.828125 106.777344 16.566406 107.015625 16.328125 C 107.253906 16.09375 107.511719 15.878906 107.792969 15.691406 C 108.070312 15.503906 108.367188 15.347656 108.679688 15.21875 C 108.988281 15.089844 109.308594 14.992188 109.640625 14.925781 C 109.96875 14.863281 110.300781 14.828125 110.636719 14.828125 L 248.886719 14.828125 C 249.222656 14.828125 249.554688 14.863281 249.882812 14.925781 C 250.214844 14.992188 250.535156 15.089844 250.847656 15.21875 C 251.15625 15.347656 251.453125 15.503906 251.730469 15.691406 C 252.011719 15.878906 252.269531 16.09375 252.507812 16.328125 C 252.746094 16.566406 252.957031 16.828125 253.144531 17.105469 C 253.332031 17.386719 253.488281 17.679688 253.617188 17.992188 C 253.746094 18.304688 253.84375 18.625 253.910156 18.953125 C 253.976562 19.285156 254.007812 19.617188 254.007812 19.953125 L 254.007812 278.207031 C 254.007812 278.542969 253.976562 278.875 253.910156 279.207031 C 253.84375 279.535156 253.746094 279.855469 253.617188 280.167969 C 253.488281 280.480469 253.332031 280.773438 253.144531 281.054688 C 252.957031 281.332031 252.746094 281.59375 252.507812 281.832031 C 252.269531 282.070312 252.011719 282.28125 251.730469 282.46875 C 251.453125 282.65625 251.15625 282.8125 250.847656 282.941406 C 250.535156 283.070312 250.214844 283.167969 249.882812 283.234375 C 249.554688 283.296875 249.222656 283.332031 248.886719 283.332031 Z M 115.761719 273.082031 L 243.761719 273.082031 L 243.761719 25.078125 L 115.761719 25.078125 Z M 115.761719 273.082031 " fill-opacity="1" fill-rule="nonzero"/><path fill="#a9aeb2" d="M 344.535156 257.589844 L 254.113281 257.589844 C 253.777344 257.589844 253.445312 257.554688 253.113281 257.492188 C 252.785156 257.425781 252.464844 257.328125 252.152344 257.199219 C 251.84375 257.070312 251.546875 256.914062 251.265625 256.726562 C 250.988281 256.539062 250.726562 256.324219 250.492188 256.089844 C 250.253906 255.851562 250.039062 255.589844 249.851562 255.3125 C 249.667969 255.03125 249.507812 254.738281 249.378906 254.425781 C 249.25 254.113281 249.152344 253.792969 249.089844 253.464844 C 249.023438 253.136719 248.988281 252.800781 248.988281 252.464844 C 248.988281 252.128906 249.023438 251.796875 249.089844 251.464844 C 249.152344 251.136719 249.25 250.816406 249.378906 250.503906 C 249.507812 250.195312 249.667969 249.898438 249.851562 249.617188 C 250.039062 249.339844 250.253906 249.082031 250.492188 248.84375 C 250.726562 248.605469 250.988281 248.390625 251.265625 248.203125 C 251.546875 248.019531 251.84375 247.859375 252.152344 247.730469 C 252.464844 247.601562 252.785156 247.503906 253.113281 247.441406 C 253.445312 247.375 253.777344 247.339844 254.113281 247.339844 L 339.410156 247.339844 L 339.410156 52.40625 L 254.113281 52.40625 C 253.777344 52.40625 253.445312 52.375 253.113281 52.308594 C 252.785156 52.242188 252.464844 52.144531 252.152344 52.015625 C 251.84375 51.886719 251.546875 51.730469 251.269531 51.542969 C 250.988281 51.355469 250.730469 51.140625 250.492188 50.90625 C 250.253906 50.667969 250.042969 50.40625 249.855469 50.128906 C 249.667969 49.847656 249.511719 49.554688 249.382812 49.242188 C 249.253906 48.929688 249.15625 48.609375 249.089844 48.28125 C 249.027344 47.953125 248.992188 47.617188 248.992188 47.28125 C 248.992188 46.945312 249.027344 46.613281 249.089844 46.28125 C 249.15625 45.953125 249.253906 45.632812 249.382812 45.320312 C 249.511719 45.011719 249.667969 44.714844 249.855469 44.4375 C 250.042969 44.15625 250.253906 43.898438 250.492188 43.660156 C 250.730469 43.421875 250.988281 43.210938 251.269531 43.023438 C 251.546875 42.835938 251.84375 42.679688 252.152344 42.550781 C 252.464844 42.421875 252.785156 42.324219 253.113281 42.257812 C 253.445312 42.191406 253.777344 42.160156 254.113281 42.15625 L 344.535156 42.15625 C 344.871094 42.15625 345.203125 42.191406 345.535156 42.257812 C 345.863281 42.320312 346.183594 42.417969 346.496094 42.546875 C 346.804688 42.675781 347.101562 42.835938 347.382812 43.023438 C 347.660156 43.207031 347.917969 43.421875 348.15625 43.660156 C 348.394531 43.898438 348.609375 44.15625 348.792969 44.433594 C 348.980469 44.714844 349.140625 45.011719 349.269531 45.320312 C 349.398438 45.632812 349.492188 45.953125 349.558594 46.28125 C 349.625 46.613281 349.65625 46.945312 349.65625 47.28125 L 349.65625 252.464844 C 349.65625 252.800781 349.625 253.136719 349.558594 253.464844 C 349.492188 253.792969 349.398438 254.117188 349.269531 254.425781 C 349.140625 254.738281 348.980469 255.03125 348.792969 255.3125 C 348.609375 255.589844 348.394531 255.851562 348.15625 256.089844 C 347.917969 256.328125 347.660156 256.539062 347.382812 256.726562 C 347.101562 256.914062 346.804688 257.070312 346.496094 257.199219 C 346.183594 257.328125 345.863281 257.425781 345.535156 257.492188 C 345.203125 257.554688 344.871094 257.589844 344.535156 257.589844 Z M 344.535156 257.589844 " fill-opacity="1" fill-rule="nonzero"/><path fill="#a9aeb2" d="M 344.558594 99.699219 C 343.910156 99.699219 343.34375 99.484375 342.859375 99.050781 L 337.394531 94.203125 C 337.140625 93.976562 336.9375 93.710938 336.789062 93.40625 C 336.640625 93.101562 336.558594 92.777344 336.535156 92.4375 C 336.515625 92.097656 336.5625 91.769531 336.671875 91.449219 C 336.785156 91.128906 336.953125 90.839844 337.179688 90.585938 C 337.402344 90.332031 337.667969 90.128906 337.972656 89.980469 C 338.28125 89.832031 338.601562 89.75 338.941406 89.730469 C 339.28125 89.707031 339.609375 89.753906 339.933594 89.863281 C 340.253906 89.976562 340.539062 90.144531 340.792969 90.371094 L 346.257812 95.21875 C 346.65625 95.574219 346.917969 96.007812 347.046875 96.523438 C 347.171875 97.042969 347.144531 97.550781 346.953125 98.046875 C 346.765625 98.542969 346.453125 98.945312 346.011719 99.246094 C 345.574219 99.546875 345.089844 99.699219 344.558594 99.699219 Z M 344.558594 99.699219 " fill-opacity="1" fill-rule="nonzero"/><path fill="#a9aeb2" d="M 344.558594 125.730469 C 343.910156 125.730469 343.347656 125.515625 342.863281 125.089844 L 307.882812 94.207031 C 307.628906 93.980469 307.425781 93.71875 307.273438 93.410156 C 307.125 93.105469 307.039062 92.785156 307.019531 92.445312 C 306.996094 92.105469 307.042969 91.773438 307.152344 91.453125 C 307.261719 91.128906 307.429688 90.84375 307.65625 90.585938 C 307.878906 90.332031 308.144531 90.128906 308.449219 89.980469 C 308.757812 89.832031 309.078125 89.746094 309.417969 89.726562 C 309.757812 89.703125 310.089844 89.75 310.410156 89.859375 C 310.730469 89.972656 311.019531 90.140625 311.273438 90.363281 L 346.253906 121.246094 C 346.652344 121.597656 346.917969 122.035156 347.046875 122.550781 C 347.175781 123.066406 347.144531 123.574219 346.957031 124.074219 C 346.765625 124.574219 346.453125 124.972656 346.015625 125.277344 C 345.574219 125.578125 345.089844 125.730469 344.558594 125.730469 Z M 344.558594 125.730469 " fill-opacity="1" fill-rule="nonzero"/><path fill="#a9aeb2" d="M 344.558594 151.828125 C 343.910156 151.828125 343.34375 151.613281 342.859375 151.183594 L 278.433594 94.203125 C 278.179688 93.980469 277.980469 93.714844 277.832031 93.410156 C 277.683594 93.105469 277.597656 92.78125 277.578125 92.441406 C 277.554688 92.105469 277.601562 91.773438 277.710938 91.453125 C 277.824219 91.132812 277.988281 90.84375 278.214844 90.589844 C 278.441406 90.335938 278.703125 90.132812 279.011719 89.984375 C 279.316406 89.835938 279.636719 89.75 279.976562 89.730469 C 280.316406 89.710938 280.644531 89.753906 280.964844 89.863281 C 281.289062 89.976562 281.574219 90.140625 281.828125 90.367188 L 346.257812 147.347656 C 346.65625 147.699219 346.917969 148.132812 347.046875 148.652344 C 347.171875 149.167969 347.144531 149.675781 346.953125 150.171875 C 346.765625 150.671875 346.453125 151.070312 346.015625 151.375 C 345.574219 151.675781 345.089844 151.828125 344.558594 151.828125 Z M 344.558594 151.828125 " fill-opacity="1" fill-rule="nonzero"/><path fill="#a9aeb2" d="M 344.558594 177.859375 C 343.910156 177.859375 343.34375 177.644531 342.859375 177.214844 L 247.210938 92.632812 C 246.957031 92.40625 246.753906 92.140625 246.605469 91.835938 C 246.457031 91.53125 246.371094 91.210938 246.351562 90.871094 C 246.332031 90.53125 246.375 90.199219 246.484375 89.878906 C 246.597656 89.558594 246.765625 89.269531 246.988281 89.015625 C 247.214844 88.761719 247.480469 88.558594 247.785156 88.410156 C 248.089844 88.261719 248.414062 88.175781 248.753906 88.15625 C 249.09375 88.136719 249.421875 88.179688 249.742188 88.292969 C 250.066406 88.402344 250.351562 88.570312 250.605469 88.796875 L 346.257812 173.375 C 346.65625 173.730469 346.917969 174.164062 347.046875 174.679688 C 347.171875 175.199219 347.144531 175.707031 346.953125 176.203125 C 346.765625 176.703125 346.453125 177.101562 346.015625 177.40625 C 345.574219 177.707031 345.089844 177.859375 344.558594 177.859375 Z M 344.558594 177.859375 " fill-opacity="1" fill-rule="nonzero"/><path fill="#a9aeb2" d="M 344.558594 203.886719 C 343.910156 203.890625 343.347656 203.675781 342.863281 203.246094 L 247.214844 118.734375 C 246.957031 118.507812 246.757812 118.242188 246.605469 117.9375 C 246.457031 117.632812 246.375 117.308594 246.351562 116.972656 C 246.332031 116.632812 246.375 116.300781 246.488281 115.980469 C 246.597656 115.660156 246.765625 115.371094 246.988281 115.117188 C 247.214844 114.863281 247.480469 114.660156 247.785156 114.511719 C 248.089844 114.363281 248.414062 114.277344 248.75 114.257812 C 249.089844 114.234375 249.421875 114.28125 249.742188 114.390625 C 250.0625 114.5 250.351562 114.667969 250.605469 114.894531 L 346.253906 199.40625 C 346.65625 199.757812 346.917969 200.195312 347.046875 200.710938 C 347.175781 201.226562 347.144531 201.734375 346.953125 202.234375 C 346.765625 202.730469 346.453125 203.132812 346.015625 203.433594 C 345.574219 203.738281 345.089844 203.886719 344.558594 203.886719 Z M 344.558594 203.886719 " fill-opacity="1" fill-rule="nonzero"/><path fill="#a9aeb2" d="M 344.558594 229.917969 C 343.910156 229.921875 343.347656 229.707031 342.863281 229.277344 L 247.214844 144.832031 C 246.960938 144.609375 246.757812 144.34375 246.609375 144.039062 C 246.457031 143.730469 246.375 143.410156 246.351562 143.070312 C 246.332031 142.730469 246.375 142.402344 246.488281 142.082031 C 246.597656 141.757812 246.765625 141.472656 246.988281 141.214844 C 247.214844 140.960938 247.480469 140.761719 247.785156 140.609375 C 248.089844 140.460938 248.410156 140.375 248.75 140.355469 C 249.089844 140.332031 249.417969 140.378906 249.742188 140.488281 C 250.0625 140.597656 250.351562 140.765625 250.605469 140.992188 L 346.253906 225.4375 C 346.652344 225.789062 346.917969 226.222656 347.046875 226.742188 C 347.175781 227.257812 347.144531 227.765625 346.957031 228.265625 C 346.765625 228.761719 346.453125 229.164062 346.015625 229.464844 C 345.574219 229.769531 345.089844 229.917969 344.558594 229.917969 Z M 344.558594 229.917969 " fill-opacity="1" fill-rule="nonzero"/><path fill="#a9aeb2" d="M 343.394531 255.058594 C 342.75 255.0625 342.183594 254.847656 341.699219 254.417969 L 247.210938 170.863281 C 246.957031 170.636719 246.757812 170.371094 246.609375 170.066406 C 246.460938 169.761719 246.375 169.4375 246.355469 169.101562 C 246.332031 168.761719 246.378906 168.429688 246.488281 168.109375 C 246.601562 167.789062 246.765625 167.5 246.992188 167.246094 C 247.21875 166.992188 247.480469 166.789062 247.789062 166.640625 C 248.09375 166.492188 248.414062 166.40625 248.753906 166.386719 C 249.09375 166.367188 249.421875 166.410156 249.742188 166.519531 C 250.0625 166.628906 250.351562 166.796875 250.605469 167.023438 L 345.09375 250.578125 C 345.492188 250.933594 345.757812 251.367188 345.882812 251.882812 C 346.011719 252.402344 345.980469 252.910156 345.792969 253.40625 C 345.605469 253.90625 345.289062 254.304688 344.851562 254.605469 C 344.414062 254.910156 343.929688 255.0625 343.394531 255.058594 Z M 343.394531 255.058594 " fill-opacity="1" fill-rule="nonzero"/><path fill="#a9aeb2" d="M 313.949219 255.058594 C 313.304688 255.0625 312.738281 254.847656 312.253906 254.417969 L 247.210938 196.890625 C 246.957031 196.667969 246.753906 196.402344 246.605469 196.09375 C 246.457031 195.789062 246.371094 195.46875 246.351562 195.128906 C 246.328125 194.789062 246.375 194.457031 246.484375 194.136719 C 246.59375 193.816406 246.761719 193.527344 246.988281 193.273438 C 247.214844 193.019531 247.480469 192.816406 247.785156 192.667969 C 248.089844 192.519531 248.414062 192.433594 248.753906 192.414062 C 249.089844 192.394531 249.421875 192.4375 249.742188 192.546875 C 250.066406 192.660156 250.351562 192.828125 250.605469 193.054688 L 315.648438 250.578125 C 316.046875 250.933594 316.3125 251.367188 316.4375 251.882812 C 316.566406 252.402344 316.535156 252.910156 316.347656 253.40625 C 316.160156 253.90625 315.84375 254.304688 315.40625 254.605469 C 314.96875 254.910156 314.484375 255.0625 313.949219 255.058594 Z M 313.949219 255.058594 " fill-opacity="1" fill-rule="nonzero"/><path fill="#a9aeb2" d="M 284.503906 255.058594 C 283.855469 255.0625 283.292969 254.847656 282.808594 254.417969 L 247.210938 222.921875 C 246.957031 222.695312 246.753906 222.429688 246.605469 222.125 C 246.457031 221.820312 246.371094 221.496094 246.351562 221.160156 C 246.328125 220.820312 246.375 220.488281 246.484375 220.167969 C 246.59375 219.847656 246.761719 219.558594 246.988281 219.304688 C 247.214844 219.046875 247.480469 218.847656 247.785156 218.699219 C 248.089844 218.550781 248.414062 218.464844 248.753906 218.445312 C 249.089844 218.421875 249.421875 218.46875 249.742188 218.578125 C 250.066406 218.691406 250.351562 218.859375 250.605469 219.082031 L 286.203125 250.578125 C 286.601562 250.933594 286.863281 251.367188 286.992188 251.882812 C 287.121094 252.402344 287.089844 252.910156 286.902344 253.40625 C 286.710938 253.90625 286.398438 254.304688 285.960938 254.605469 C 285.523438 254.910156 285.035156 255.0625 284.503906 255.058594 Z M 284.503906 255.058594 " fill-opacity="1" fill-rule="nonzero"/><path fill="#a9aeb2" d="M 248.910156 41.078125 C 248.261719 41.078125 247.695312 40.863281 247.210938 40.433594 L 226.234375 21.851562 C 225.980469 21.625 225.78125 21.359375 225.632812 21.054688 C 225.484375 20.75 225.398438 20.425781 225.378906 20.089844 C 225.355469 19.75 225.402344 19.417969 225.511719 19.097656 C 225.625 18.777344 225.792969 18.488281 226.019531 18.234375 C 226.242188 17.980469 226.507812 17.777344 226.8125 17.628906 C 227.121094 17.480469 227.441406 17.398438 227.78125 17.375 C 228.121094 17.355469 228.449219 17.402344 228.773438 17.511719 C 229.09375 17.621094 229.378906 17.789062 229.632812 18.015625 L 250.609375 36.601562 C 251.007812 36.953125 251.269531 37.386719 251.398438 37.90625 C 251.523438 38.421875 251.492188 38.929688 251.304688 39.425781 C 251.117188 39.925781 250.800781 40.324219 250.363281 40.625 C 249.925781 40.929688 249.441406 41.078125 248.910156 41.078125 Z M 248.910156 41.078125 " fill-opacity="1" fill-rule="nonzero"/><path fill="#a9aeb2" d="M 248.910156 67.109375 C 248.261719 67.109375 247.695312 66.894531 247.214844 66.46875 L 196.722656 21.855469 C 196.46875 21.628906 196.265625 21.363281 196.117188 21.058594 C 195.96875 20.753906 195.882812 20.429688 195.863281 20.09375 C 195.84375 19.753906 195.886719 19.421875 195.996094 19.101562 C 196.109375 18.78125 196.273438 18.492188 196.5 18.238281 C 196.726562 17.984375 196.988281 17.78125 197.296875 17.632812 C 197.601562 17.484375 197.921875 17.398438 198.261719 17.375 C 198.601562 17.355469 198.929688 17.402344 199.253906 17.511719 C 199.574219 17.621094 199.863281 17.789062 200.117188 18.015625 L 250.605469 62.628906 C 251.003906 62.980469 251.269531 63.414062 251.398438 63.933594 C 251.523438 64.449219 251.496094 64.957031 251.304688 65.453125 C 251.117188 65.953125 250.804688 66.351562 250.363281 66.65625 C 249.925781 66.957031 249.441406 67.109375 248.910156 67.109375 Z M 248.910156 67.109375 " fill-opacity="1" fill-rule="nonzero"/><path fill="#a9aeb2" d="M 250.820312 94.847656 C 250.191406 94.847656 249.632812 94.644531 249.15625 94.230469 L 247.242188 92.589844 L 167.277344 21.851562 C 167.023438 21.628906 166.820312 21.363281 166.671875 21.058594 C 166.523438 20.75 166.441406 20.429688 166.417969 20.089844 C 166.398438 19.753906 166.445312 19.421875 166.554688 19.101562 C 166.664062 18.78125 166.832031 18.492188 167.058594 18.238281 C 167.28125 17.984375 167.546875 17.785156 167.851562 17.632812 C 168.15625 17.484375 168.480469 17.402344 168.816406 17.378906 C 169.15625 17.359375 169.488281 17.402344 169.808594 17.511719 C 170.128906 17.625 170.417969 17.789062 170.671875 18.015625 L 250.605469 88.726562 L 252.488281 90.339844 C 252.898438 90.6875 253.167969 91.125 253.300781 91.640625 C 253.4375 92.160156 253.410156 92.671875 253.226562 93.175781 C 253.039062 93.679688 252.726562 94.082031 252.285156 94.386719 C 251.847656 94.695312 251.359375 94.847656 250.820312 94.847656 Z M 250.820312 94.847656 " fill-opacity="1" fill-rule="nonzero"/><path fill="#a9aeb2" d="M 221.375 94.847656 C 220.730469 94.847656 220.164062 94.632812 219.679688 94.207031 L 137.761719 21.855469 C 137.507812 21.628906 137.304688 21.363281 137.15625 21.058594 C 137.007812 20.753906 136.921875 20.429688 136.902344 20.09375 C 136.878906 19.753906 136.925781 19.421875 137.035156 19.101562 C 137.144531 18.78125 137.3125 18.492188 137.539062 18.238281 C 137.761719 17.984375 138.027344 17.78125 138.335938 17.632812 C 138.640625 17.480469 138.960938 17.398438 139.300781 17.375 C 139.640625 17.355469 139.96875 17.398438 140.292969 17.511719 C 140.613281 17.621094 140.902344 17.789062 141.15625 18.011719 L 223.074219 90.367188 C 223.472656 90.71875 223.734375 91.152344 223.863281 91.671875 C 223.992188 92.1875 223.960938 92.695312 223.773438 93.191406 C 223.582031 93.691406 223.269531 94.089844 222.832031 94.394531 C 222.394531 94.695312 221.90625 94.847656 221.375 94.847656 Z M 221.375 94.847656 " fill-opacity="1" fill-rule="nonzero"/><path fill="#a9aeb2" d="M 191.859375 94.847656 C 191.214844 94.847656 190.648438 94.632812 190.164062 94.207031 L 108.929688 22.398438 C 108.675781 22.175781 108.472656 21.910156 108.324219 21.605469 C 108.175781 21.300781 108.089844 20.976562 108.070312 20.636719 C 108.046875 20.296875 108.09375 19.96875 108.203125 19.648438 C 108.3125 19.324219 108.480469 19.035156 108.707031 18.78125 C 108.929688 18.527344 109.195312 18.324219 109.5 18.175781 C 109.808594 18.027344 110.128906 17.941406 110.46875 17.921875 C 110.808594 17.902344 111.136719 17.945312 111.460938 18.058594 C 111.78125 18.167969 112.070312 18.335938 112.324219 18.5625 L 193.558594 90.367188 C 193.957031 90.71875 194.222656 91.152344 194.347656 91.671875 C 194.476562 92.1875 194.445312 92.695312 194.257812 93.195312 C 194.070312 93.691406 193.753906 94.09375 193.316406 94.394531 C 192.878906 94.695312 192.394531 94.847656 191.859375 94.847656 Z M 191.859375 94.847656 " fill-opacity="1" fill-rule="nonzero"/><path fill="#a9aeb2" d="M 162.34375 94.847656 C 161.699219 94.847656 161.132812 94.632812 160.648438 94.207031 L 108.929688 48.5 C 108.675781 48.273438 108.476562 48.007812 108.328125 47.703125 C 108.175781 47.398438 108.09375 47.078125 108.074219 46.738281 C 108.050781 46.398438 108.097656 46.070312 108.207031 45.746094 C 108.316406 45.425781 108.484375 45.140625 108.710938 44.886719 C 108.933594 44.628906 109.199219 44.429688 109.503906 44.28125 C 109.808594 44.128906 110.132812 44.046875 110.46875 44.023438 C 110.808594 44.003906 111.136719 44.046875 111.460938 44.15625 C 111.78125 44.265625 112.070312 44.433594 112.324219 44.660156 L 164.042969 90.367188 C 164.441406 90.71875 164.707031 91.152344 164.832031 91.671875 C 164.960938 92.1875 164.929688 92.695312 164.742188 93.191406 C 164.554688 93.691406 164.238281 94.089844 163.800781 94.394531 C 163.363281 94.695312 162.878906 94.847656 162.34375 94.847656 Z M 162.34375 94.847656 " fill-opacity="1" fill-rule="nonzero"/><path fill="#a9aeb2" d="M 132.832031 94.847656 C 132.183594 94.847656 131.621094 94.632812 131.136719 94.207031 L 108.929688 74.597656 C 108.675781 74.375 108.472656 74.109375 108.324219 73.804688 C 108.175781 73.496094 108.089844 73.175781 108.066406 72.835938 C 108.046875 72.496094 108.089844 72.167969 108.203125 71.84375 C 108.3125 71.523438 108.480469 71.234375 108.703125 70.980469 C 108.929688 70.726562 109.195312 70.523438 109.5 70.375 C 109.804688 70.226562 110.128906 70.140625 110.46875 70.117188 C 110.804688 70.097656 111.136719 70.144531 111.457031 70.253906 C 111.78125 70.363281 112.066406 70.53125 112.324219 70.757812 L 134.527344 90.367188 C 134.925781 90.71875 135.191406 91.152344 135.320312 91.667969 C 135.449219 92.1875 135.417969 92.695312 135.230469 93.191406 C 135.039062 93.691406 134.726562 94.089844 134.289062 94.394531 C 133.847656 94.695312 133.363281 94.847656 132.832031 94.847656 Z M 132.832031 94.847656 " fill-opacity="1" fill-rule="nonzero"/><path fill="#a9aeb2" d="M 344.535156 97.40625 L 110.636719 97.40625 C 110.300781 97.40625 109.96875 97.375 109.640625 97.308594 C 109.308594 97.242188 108.988281 97.144531 108.675781 97.015625 C 108.367188 96.886719 108.070312 96.730469 107.792969 96.542969 C 107.511719 96.355469 107.253906 96.144531 107.015625 95.90625 C 106.777344 95.667969 106.566406 95.410156 106.378906 95.128906 C 106.191406 94.847656 106.035156 94.554688 105.90625 94.242188 C 105.777344 93.933594 105.679688 93.613281 105.613281 93.28125 C 105.546875 92.953125 105.515625 92.617188 105.515625 92.28125 C 105.515625 91.945312 105.546875 91.613281 105.613281 91.28125 C 105.679688 90.953125 105.777344 90.632812 105.90625 90.320312 C 106.035156 90.011719 106.191406 89.714844 106.378906 89.433594 C 106.566406 89.15625 106.777344 88.898438 107.015625 88.660156 C 107.253906 88.421875 107.511719 88.207031 107.792969 88.023438 C 108.070312 87.835938 108.367188 87.675781 108.675781 87.546875 C 108.988281 87.417969 109.308594 87.320312 109.640625 87.257812 C 109.96875 87.191406 110.300781 87.15625 110.636719 87.15625 L 344.535156 87.15625 C 344.871094 87.15625 345.203125 87.191406 345.535156 87.257812 C 345.863281 87.320312 346.183594 87.417969 346.496094 87.546875 C 346.804688 87.675781 347.101562 87.835938 347.382812 88.023438 C 347.660156 88.207031 347.917969 88.421875 348.15625 88.660156 C 348.394531 88.898438 348.609375 89.15625 348.792969 89.433594 C 348.980469 89.714844 349.140625 90.011719 349.269531 90.320312 C 349.398438 90.632812 349.496094 90.953125 349.558594 91.28125 C 349.625 91.613281 349.660156 91.945312 349.660156 92.28125 C 349.660156 92.617188 349.625 92.953125 349.558594 93.28125 C 349.496094 93.613281 349.398438 93.933594 349.269531 94.242188 C 349.140625 94.554688 348.980469 94.847656 348.792969 95.128906 C 348.609375 95.410156 348.394531 95.667969 348.15625 95.90625 C 347.917969 96.144531 347.660156 96.355469 347.382812 96.542969 C 347.101562 96.730469 346.804688 96.886719 346.496094 97.015625 C 346.183594 97.144531 345.863281 97.242188 345.535156 97.308594 C 345.203125 97.375 344.871094 97.40625 344.535156 97.40625 Z M 344.535156 97.40625 " fill-opacity="1" fill-rule="nonzero"/></svg>