<svg width="129" height="110" viewBox="0 0 129 110" fill="none" xmlns="http://www.w3.org/2000/svg">
<path d="M87.459 4.60636C87.459 4.60636 69.9381 26.7997 41.9043 13.562C13.8704 0.324316 -14.1631 36.1442 9.97679 57.9482C34.1166 79.7523 10.494 91.7334 26.8939 105.096C45.5334 120.284 61.7613 89.4861 76.5568 96.4946C109.211 111.962 133.403 105.839 127.952 87.9288C118.383 56.4893 106.148 54.444 115.493 38.091C124.837 21.7381 104.214 -12.2639 87.459 4.60636Z" fill="#DEE9FF"/>
<path d="M57.5247 74.2406C57.5247 89.3107 69.7398 101.526 84.8099 101.526C88.3191 101.532 91.796 100.856 95.0477 99.5367C95.1147 99.5446 95.182 99.5485 95.2495 99.5485H107.192C107.576 99.5488 107.956 99.4732 108.312 99.3262C108.667 99.1793 108.989 98.9637 109.261 98.692C109.533 98.4202 109.748 98.0975 109.895 97.7424C110.042 97.3873 110.118 97.0067 110.118 96.6224V84.4508C111.429 81.2068 112.101 77.7397 112.095 74.2406C112.095 59.1705 99.8799 46.9554 84.8099 46.9554C69.7398 46.9554 57.5247 59.1705 57.5247 74.2406Z" fill="#A2BDFF"/>
<path d="M95.7311 54.9004C95.7311 73.8065 80.4068 89.1308 61.5007 89.1308C57.0982 89.1382 52.7362 88.2907 48.6568 86.6354C48.5728 86.6454 48.4884 86.6503 48.4038 86.6503H33.4217C32.9395 86.6506 32.462 86.5558 32.0165 86.3714C31.571 86.187 31.1662 85.9166 30.8252 85.5757C30.4843 85.2347 30.2139 84.8299 30.0295 84.3844C29.8451 83.9389 29.7503 83.4614 29.7506 82.9792V67.7095C28.1054 63.6398 27.2631 59.2903 27.2701 54.9006C27.2701 35.9945 42.5944 20.6703 61.5005 20.6703C80.4067 20.6703 95.7311 35.9943 95.7311 54.9004Z" fill="#4E50D2"/>
<path d="M45.6257 61.8455C48.3655 61.8455 50.5866 59.6244 50.5866 56.8846C50.5866 54.1448 48.3655 51.9237 45.6257 51.9237C42.8859 51.9237 40.6648 54.1448 40.6648 56.8846C40.6648 59.6244 42.8859 61.8455 45.6257 61.8455Z" fill="white"/>
<path d="M60.012 61.8455C62.7518 61.8455 64.9729 59.6244 64.9729 56.8846C64.9729 54.1448 62.7518 51.9237 60.012 51.9237C57.2722 51.9237 55.0511 54.1448 55.0511 56.8846C55.0511 59.6244 57.2722 61.8455 60.012 61.8455Z" fill="white"/>
<path d="M74.8952 61.8455C77.635 61.8455 79.8561 59.6244 79.8561 56.8846C79.8561 54.1448 77.635 51.9237 74.8952 51.9237C72.1553 51.9237 69.9343 54.1448 69.9343 56.8846C69.9343 59.6244 72.1553 61.8455 74.8952 61.8455Z" fill="white"/>
<path d="M90.2738 38.5291C95.2055 38.5291 99.2034 34.5312 99.2034 29.5995C99.2034 24.6677 95.2055 20.6698 90.2738 20.6698C85.3421 20.6698 81.3441 24.6677 81.3441 29.5995C81.3441 34.5312 85.3421 38.5291 90.2738 38.5291Z" fill="#4E50D2" stroke="white" stroke-width="15" stroke-miterlimit="10"/>
<path d="M93.112 26.9529C92.9944 26.4987 92.7834 26.0742 92.4924 25.7062C92.2356 25.3962 91.9026 25.1585 91.526 25.0164C90.7135 24.7361 89.8304 24.7361 89.0179 25.0164C88.6419 25.1576 88.3098 25.3956 88.0552 25.7062C87.7614 26.0724 87.5501 26.4976 87.4355 26.9529C87.2789 27.566 87.2057 28.1975 87.2179 28.8303V30.3352C87.2052 30.9694 87.2796 31.6024 87.4392 32.2164C87.555 32.6752 87.7675 33.1041 88.0626 33.4741C88.3188 33.7873 88.6518 34.0287 89.029 34.1749C89.8373 34.4651 90.7214 34.4651 91.5297 34.1749C91.9048 34.0285 92.2353 33.787 92.4887 33.4741C92.7792 33.1022 92.9889 32.6738 93.1047 32.2164C93.2611 31.6019 93.3342 30.9692 93.3223 30.3352H93.3297V28.8303C93.3419 28.1975 93.2687 27.566 93.112 26.9529V26.9529ZM91.7658 30.5601C91.7709 30.9618 91.7388 31.3631 91.6699 31.7589C91.6233 32.0403 91.5272 32.3113 91.386 32.5592C91.2772 32.7505 91.1159 32.9066 90.9213 33.0092C90.7213 33.1056 90.5014 33.1536 90.2795 33.1494C90.0576 33.1527 89.8379 33.1048 89.6376 33.0092C89.4404 32.9061 89.2756 32.7503 89.1617 32.5592C89.0174 32.3117 88.9175 32.0408 88.8666 31.7589C88.7912 31.3639 88.7566 30.9621 88.7633 30.5601V28.5905C88.7569 28.1899 88.7902 27.7896 88.8629 27.3955C88.9114 27.1192 89.0102 26.8542 89.1543 26.6135C89.2687 26.4296 89.4322 26.2814 89.6264 26.1857C89.8278 26.0981 90.045 26.0529 90.2645 26.0529C90.4841 26.0529 90.7013 26.0981 90.9026 26.1857C91.0984 26.2791 91.2626 26.4278 91.3747 26.6135C91.5188 26.8542 91.6176 27.1192 91.6662 27.3955C91.739 27.7895 91.7723 28.1899 91.7657 28.5905V30.5602L91.7658 30.5601Z" fill="white"/>
</svg>
