<svg width="24" height="23" viewBox="0 0 24 23" fill="none" xmlns="http://www.w3.org/2000/svg">
<path d="M22.0236 22.997H2.10055C2.0064 22.997 1.9161 22.9596 1.84953 22.893C1.78295 22.8265 1.74554 22.7362 1.74554 22.642V5.982C1.75037 5.89124 1.78982 5.80578 1.85577 5.74324C1.92173 5.6807 2.00916 5.64584 2.10005 5.64584C2.19094 5.64584 2.27837 5.6807 2.34432 5.74324C2.41027 5.80578 2.44973 5.89124 2.45455 5.982V22.29H21.6685V5.982C21.666 5.93387 21.6733 5.88571 21.6899 5.84048C21.7066 5.79524 21.7323 5.75388 21.7654 5.7189C21.7986 5.68392 21.8386 5.65606 21.8829 5.63702C21.9271 5.61799 21.9748 5.60817 22.023 5.60817C22.0713 5.60817 22.119 5.61799 22.1632 5.63702C22.2075 5.65606 22.2475 5.68392 22.2806 5.7189C22.3138 5.75388 22.3395 5.79524 22.3562 5.84048C22.3728 5.88571 22.3801 5.93387 22.3775 5.982V22.645C22.3775 22.7392 22.3402 22.8295 22.2736 22.896C22.207 22.9626 22.1167 23 22.0225 23" fill="#222222" fill-opacity="0.5"/>
<path d="M12.0635 17.928H3.5505C3.45635 17.928 3.36605 17.8906 3.29948 17.824C3.2329 17.7574 3.1955 17.6672 3.1955 17.573V9.967C3.19537 9.92034 3.20446 9.87412 3.22225 9.83099C3.24005 9.78786 3.26619 9.74867 3.29918 9.71568C3.33217 9.68269 3.37136 9.65655 3.41449 9.63875C3.45762 9.62096 3.50384 9.61187 3.5505 9.612H12.0635C12.1577 9.612 12.2479 9.6494 12.3145 9.71598C12.3811 9.78255 12.4185 9.87285 12.4185 9.967V17.574C12.4185 17.6682 12.3811 17.7584 12.3145 17.825C12.2479 17.8916 12.1577 17.929 12.0635 17.929M3.9045 17.218H11.7045V10.318H3.9045V17.218Z" fill="#222222" fill-opacity="0.5"/>
<path d="M14.9604 16.298C14.8663 16.298 14.776 16.2606 14.7094 16.194C14.6428 16.1275 14.6054 16.0372 14.6054 15.943V14.857C14.6029 14.8089 14.6101 14.7607 14.6268 14.7155C14.6434 14.6702 14.6692 14.6289 14.7023 14.5939C14.7355 14.5589 14.7754 14.5311 14.8197 14.512C14.864 14.493 14.9117 14.4832 14.9599 14.4832C15.0081 14.4832 15.0558 14.493 15.1001 14.512C15.1444 14.5311 15.1843 14.5589 15.2175 14.5939C15.2507 14.6289 15.2764 14.6702 15.293 14.7155C15.3097 14.7607 15.317 14.8089 15.3144 14.857V15.944C15.3144 16.0382 15.277 16.1285 15.2104 16.195C15.1439 16.2616 15.0536 16.299 14.9594 16.299" fill="#222222" fill-opacity="0.5"/>
<path d="M20.5757 21.188C20.4815 21.188 20.3912 21.1506 20.3246 21.084C20.2581 21.0174 20.2206 20.9272 20.2206 20.833V10.318H13.8667V20.834C13.8618 20.9248 13.8224 21.0102 13.7564 21.0728C13.6905 21.1353 13.603 21.1702 13.5122 21.1702C13.4213 21.1702 13.3338 21.1353 13.2679 21.0728C13.2019 21.0102 13.1625 20.9248 13.1577 20.834V9.966C13.1577 9.91943 13.1668 9.87331 13.1847 9.8303C13.2025 9.78729 13.2287 9.74822 13.2617 9.71533C13.2947 9.68245 13.3338 9.65639 13.3769 9.63866C13.4199 9.62093 13.4661 9.61187 13.5126 9.612H20.5767C20.6232 9.61187 20.6694 9.62093 20.7124 9.63866C20.7555 9.65639 20.7946 9.68245 20.8276 9.71533C20.8606 9.74822 20.8868 9.78729 20.9046 9.8303C20.9225 9.87331 20.9317 9.91943 20.9317 9.966V20.834C20.9317 20.9282 20.8943 21.0184 20.8277 21.085C20.7611 21.1516 20.6708 21.189 20.5767 21.189" fill="#222222" fill-opacity="0.5"/>
<path d="M22.0255 4.525C21.9789 4.525 21.9327 4.51582 21.8897 4.49798C21.8466 4.48014 21.8075 4.45399 21.7745 4.42103C21.7415 4.38806 21.7154 4.34893 21.6975 4.30586C21.6797 4.26279 21.6705 4.21662 21.6705 4.17V0.721005H8.70751C8.65937 0.723563 8.61122 0.71629 8.56599 0.699629C8.52075 0.682969 8.47938 0.657271 8.4444 0.624101C8.40943 0.590931 8.38157 0.550985 8.36253 0.506698C8.3435 0.462411 8.33368 0.41471 8.33368 0.366505C8.33368 0.3183 8.3435 0.270599 8.36253 0.226312C8.38157 0.182025 8.40943 0.142079 8.4444 0.108909C8.47938 0.0757394 8.52075 0.0500411 8.56599 0.0333808C8.61122 0.0167206 8.65937 0.00944758 8.70751 0.0120051H22.0255C22.0721 0.0120051 22.1183 0.0211875 22.1614 0.0390279C22.2044 0.0568683 22.2436 0.0830174 22.2765 0.115982C22.3095 0.148947 22.3357 0.188082 22.3535 0.231153C22.3713 0.274223 22.3805 0.320386 22.3805 0.367005V4.16701C22.3805 4.26116 22.3431 4.35145 22.2765 4.41803C22.21 4.4846 22.1197 4.52201 22.0255 4.52201" fill="#222222" fill-opacity="0.5"/>
<path d="M2.10055 4.525C2.05393 4.525 2.00777 4.51582 1.9647 4.49798C1.92163 4.48014 1.88249 4.45399 1.84953 4.42103C1.81656 4.38806 1.79041 4.34893 1.77257 4.30586C1.75473 4.26279 1.74554 4.21662 1.74554 4.17V0.367005C1.74554 0.320386 1.75473 0.274223 1.77257 0.231153C1.79041 0.188082 1.81656 0.148947 1.84953 0.115982C1.88249 0.0830174 1.92163 0.0568683 1.9647 0.0390279C2.00777 0.0211875 2.05393 0.0120051 2.10055 0.0120051H7.13755C7.18569 0.00944758 7.23384 0.0167206 7.27908 0.0333808C7.32431 0.0500411 7.36568 0.0757394 7.40066 0.108909C7.43564 0.142079 7.46349 0.182025 7.48253 0.226312C7.50157 0.270599 7.51138 0.3183 7.51138 0.366505C7.51138 0.41471 7.50157 0.462411 7.48253 0.506698C7.46349 0.550985 7.43564 0.590931 7.40066 0.624101C7.36568 0.657271 7.32431 0.682969 7.27908 0.699629C7.23384 0.71629 7.18569 0.723563 7.13755 0.721005H2.45455V4.17C2.45455 4.21662 2.44537 4.26279 2.42753 4.30586C2.40969 4.34893 2.38354 4.38806 2.35057 4.42103C2.31761 4.45399 2.27847 4.48014 2.2354 4.49798C2.19233 4.51582 2.14717 4.525 2.10055 4.525Z" fill="#222222" fill-opacity="0.5"/>
<path d="M23.2015 6.336H18.6125C18.5644 6.33856 18.5163 6.33129 18.471 6.31463C18.4258 6.29797 18.3844 6.27227 18.3494 6.2391C18.3145 6.20593 18.2866 6.16598 18.2676 6.1217C18.2485 6.07741 18.2387 6.02971 18.2387 5.9815C18.2387 5.9333 18.2485 5.8856 18.2676 5.84131C18.2866 5.79702 18.3145 5.75708 18.3494 5.72391C18.3844 5.69074 18.4258 5.66504 18.471 5.64838C18.5163 5.63172 18.5644 5.62444 18.6125 5.627H22.8425V4.527H1.27754V5.627H17.0425C17.1333 5.63182 17.2188 5.67128 17.2813 5.73723C17.3438 5.80318 17.3787 5.89061 17.3787 5.9815C17.3787 6.07239 17.3438 6.15982 17.2813 6.22578C17.2188 6.29173 17.1333 6.33118 17.0425 6.336H0.923538C0.876919 6.336 0.83076 6.32682 0.787689 6.30898C0.744619 6.29114 0.705481 6.26499 0.672516 6.23203C0.639551 6.19906 0.613406 6.15993 0.595566 6.11685C0.577725 6.07378 0.568542 6.02762 0.568542 5.981V4.17C0.568542 4.07585 0.60594 3.98555 0.672516 3.91898C0.739091 3.8524 0.829386 3.815 0.923538 3.815H23.2015C23.2957 3.815 23.386 3.8524 23.4526 3.91898C23.5191 3.98555 23.5565 4.07585 23.5565 4.17V5.981C23.5565 6.02762 23.5474 6.07378 23.5295 6.11685C23.5117 6.15993 23.4855 6.19906 23.4526 6.23203C23.4196 6.26499 23.3805 6.29114 23.3374 6.30898C23.2943 6.32682 23.2482 6.336 23.2015 6.336Z" fill="#222222" fill-opacity="0.5"/>
<path d="M16.5916 8.14201H7.53564C7.4875 8.14457 7.43935 8.13729 7.39411 8.12063C7.34888 8.10397 7.30751 8.07828 7.27253 8.04511C7.23755 8.01194 7.2097 7.97199 7.19066 7.9277C7.17162 7.88342 7.1618 7.83572 7.1618 7.78751C7.1618 7.7393 7.17162 7.6916 7.19066 7.64732C7.2097 7.60303 7.23755 7.56308 7.27253 7.52991C7.30751 7.49674 7.34888 7.47105 7.39411 7.45439C7.43935 7.43773 7.4875 7.43045 7.53564 7.43301H16.5916C16.6398 7.43045 16.6879 7.43773 16.7332 7.45439C16.7784 7.47105 16.8198 7.49674 16.8547 7.52991C16.8897 7.56308 16.9176 7.60303 16.9366 7.64732C16.9557 7.6916 16.9655 7.7393 16.9655 7.78751C16.9655 7.83572 16.9557 7.88342 16.9366 7.9277C16.9176 7.97199 16.8897 8.01194 16.8547 8.04511C16.8198 8.07828 16.7784 8.10397 16.7332 8.12063C16.6879 8.13729 16.6398 8.14457 16.5916 8.14201Z" fill="#222222" fill-opacity="0.5"/>
<path d="M22.0245 21.188H7.72453C7.63377 21.1832 7.54831 21.1437 7.48577 21.0778C7.42323 21.0118 7.38837 20.9244 7.38837 20.8335C7.38837 20.7426 7.42323 20.6552 7.48577 20.5892C7.54831 20.5233 7.63377 20.4838 7.72453 20.479H22.0245C22.0727 20.4764 22.1208 20.4837 22.1661 20.5004C22.2113 20.517 22.2527 20.5427 22.2876 20.5759C22.3226 20.6091 22.3505 20.649 22.3695 20.6933C22.3885 20.7376 22.3984 20.7853 22.3984 20.8335C22.3984 20.8817 22.3885 20.9294 22.3695 20.9737C22.3505 21.018 22.3226 21.0579 22.2876 21.0911C22.2527 21.1243 22.2113 21.15 22.1661 21.1666C22.1208 21.1833 22.0727 21.1906 22.0245 21.188Z" fill="#222222" fill-opacity="0.5"/>
<path d="M6.15158 21.188H2.10058C2.05244 21.1906 2.00429 21.1833 1.95905 21.1666C1.91382 21.15 1.87245 21.1243 1.83747 21.0911C1.80249 21.0579 1.77464 21.018 1.7556 20.9737C1.73656 20.9294 1.72675 20.8817 1.72675 20.8335C1.72675 20.7853 1.73656 20.7376 1.7556 20.6933C1.77464 20.649 1.80249 20.6091 1.83747 20.5759C1.87245 20.5427 1.91382 20.517 1.95905 20.5004C2.00429 20.4837 2.05244 20.4764 2.10058 20.479H6.15158C6.24234 20.4838 6.3278 20.5233 6.39034 20.5892C6.45288 20.6552 6.48775 20.7426 6.48775 20.8335C6.48775 20.9244 6.45288 21.0118 6.39034 21.0778C6.3278 21.1437 6.24234 21.1832 6.15158 21.188Z" fill="#222222" fill-opacity="0.5"/>
<path d="M4.99943 12.538C4.92922 12.538 4.86059 12.5172 4.80222 12.4782C4.74385 12.4391 4.69836 12.3837 4.67149 12.3188C4.64463 12.254 4.63759 12.1826 4.65129 12.1138C4.66498 12.0449 4.69879 11.9816 4.74843 11.932L5.51742 11.164C5.58478 11.1031 5.67297 11.0704 5.76375 11.0727C5.85453 11.075 5.94096 11.112 6.00517 11.1763C6.06938 11.2405 6.10646 11.3269 6.10874 11.4177C6.11102 11.5085 6.07833 11.5966 6.01742 11.664L5.24943 12.433C5.18227 12.4982 5.09202 12.5342 4.99843 12.533" fill="#222222" fill-opacity="0.5"/>
<path d="M5.76749 13.819C5.69729 13.819 5.62866 13.7982 5.57029 13.7592C5.51192 13.7201 5.46642 13.6647 5.43956 13.5998C5.41269 13.535 5.40566 13.4636 5.41936 13.3948C5.43305 13.3259 5.46685 13.2626 5.51649 13.213L6.79749 11.933C6.86485 11.8721 6.95303 11.8394 7.04381 11.8417C7.13459 11.844 7.22103 11.881 7.28524 11.9453C7.34945 12.0095 7.38653 12.0959 7.38881 12.1867C7.39109 12.2775 7.3584 12.3656 7.29749 12.433L6.01749 13.714C5.95034 13.7792 5.86009 13.8152 5.76649 13.814" fill="#222222" fill-opacity="0.5"/>
</svg>
