<svg width="46" height="47" viewBox="0 0 46 47" fill="none" xmlns="http://www.w3.org/2000/svg">
<g clip-path="url(#clip0_108_2835)">
<path d="M6.74182 42.9386V46.4928H38.0578V42.9386C38.0578 37.4869 30.3707 34.7197 22.5184 34.7305C14.7128 34.7413 6.74182 37.1671 6.74182 42.9386Z" fill="#424242"/>
<path d="M22.3998 32.9336H19.1367V36.38C19.1367 37.9397 20.4664 39.2047 22.1052 39.2047H22.6981C24.3369 39.2047 25.6666 37.9397 25.6666 36.38V32.9336H22.3998Z" fill="#E49500"/>
<path d="M25.9361 46.4997H18.8636V34.8919L22.3999 39.2044L25.9361 34.8919V46.4997Z" fill="#424242"/>
<path d="M33.9863 19.3096C33.9863 19.3096 36.103 19.6762 36.103 21.9582C36.103 23.9707 34.5577 24.7649 33.0124 24.7649V19.3096H33.9863ZM10.8856 19.3096C10.8856 19.3096 8.76892 19.6762 8.76892 21.9582C8.76892 23.9707 10.3142 24.7649 11.8595 24.7649V19.3096H10.8856Z" fill="#E39400"/>
<path d="M22.436 4.3703C13.3079 4.3703 10.9216 11.4464 10.9216 21.3867C10.9216 31.6936 17.5449 34.3601 22.436 34.3601C27.2552 34.3601 33.9504 31.7726 33.9504 21.3867C33.954 11.4464 31.5641 4.3703 22.436 4.3703Z" fill="#FAC01B"/>
<path d="M18.6445 22.3111C18.6445 23.3389 17.9581 24.1691 17.1064 24.1691C16.2583 24.1691 15.5647 23.3353 15.5647 22.3111C15.5647 21.2833 16.2547 20.4495 17.1064 20.4495C17.9581 20.4495 18.6445 21.2797 18.6445 22.3111ZM26.2274 22.3111C26.2274 23.3389 26.9138 24.1691 27.7691 24.1691C28.6172 24.1691 29.3072 23.3353 29.3072 22.3111C29.3072 21.2833 28.6172 20.4495 27.7691 20.4495C26.9138 20.4495 26.2274 21.2797 26.2274 22.3111Z" fill="#444444"/>
<path d="M25.7707 28.5888H19.1079C18.727 28.5888 18.5616 28.844 18.8132 29.2321C19.1654 29.7711 20.4807 30.8061 22.4393 30.8061C24.3979 30.8061 25.7132 29.7711 26.0654 29.2321C26.317 28.844 26.1516 28.5888 25.7707 28.5888Z" fill="#513F35"/>
<path d="M24.0459 25.7568C23.4781 25.9186 22.8887 25.994 22.4359 25.994C21.9831 25.994 21.3937 25.915 20.8259 25.7568C20.5851 25.6886 20.4881 25.9186 20.5743 26.0695C20.754 26.3857 21.4799 27.0254 22.4359 27.0254C23.3918 27.0254 24.1177 26.3857 24.2974 26.0695C24.3837 25.915 24.2903 25.685 24.0459 25.7568Z" fill="#E39400"/>
<path d="M22.7123 3.07357C22.7123 3.07357 22.5326 3.06638 22.4571 3.06998C22.3817 3.06998 22.202 3.07357 22.202 3.07357C12.3515 3.26404 9.38306 9.19013 9.38306 13.2978C9.38306 17.2904 9.38665 20.2265 9.38665 20.2265C9.38665 20.2265 9.54478 20.0648 9.83228 19.8384C10.1413 19.5976 10.4827 19.4647 10.4827 19.4647L10.9787 22.7997L14.2598 15.9428C14.2813 15.8997 14.3245 15.8745 14.3712 15.8817L16.3154 16.0973C18.2704 16.3129 20.2362 16.4208 22.1984 16.4244V16.4279C22.2846 16.4279 22.3673 16.4244 22.4535 16.4244C22.5398 16.4244 22.6224 16.4279 22.7087 16.4279V16.4208C24.6709 16.4136 26.6367 16.3094 28.5917 16.0937L30.5359 15.8781C30.5826 15.8745 30.6257 15.8997 30.6473 15.9392L33.9284 22.7961L34.4243 19.4611C34.4243 19.4611 34.7657 19.5976 35.0748 19.8348C35.3659 20.0612 35.5204 20.2229 35.5204 20.2229C35.5204 20.2229 35.524 17.2904 35.524 13.2942C35.5312 9.19013 32.5627 3.26404 22.7123 3.07357Z" fill="#6D4C41"/>
<path d="M22.4106 0.5L4.49219 3.81344L22.4573 0.507187L22.4106 0.5Z" fill="#262626"/>
<path d="M22.5113 0.503594L22.5005 0.5L22.4574 0.507187L22.5113 0.517969V0.503594Z" fill="#424143"/>
<path d="M22.6122 0.5L40.5342 3.81344L22.5691 0.507187L22.6122 0.5Z" fill="#262626"/>
<path d="M40.5412 4.7258L40.534 3.81299L22.5257 6.42205H22.5042L4.4923 3.81299L4.48511 4.7258L11.6978 5.98721L11.0796 7.73377C12.4021 8.31596 17.1926 10.2494 22.5114 10.3896C27.8301 10.2458 32.4517 8.31596 33.7742 7.73377L33.156 5.98721L40.5412 4.7258Z" fill="#262626"/>
<path d="M22.5115 0.503594L22.5258 0.5L22.569 0.507187L22.5115 0.517969V0.503594Z" fill="#424143"/>
<path d="M22.5687 0.507019L22.5112 0.5178L22.4573 0.507019L4.49219 3.81327L22.5005 6.42233L22.5112 6.41874L22.5256 6.42233L40.5339 3.81327L22.5687 0.507019Z" fill="#424143"/>
<path d="M40.861 16.9948C40.498 16.9948 40.2069 17.2894 40.2069 17.6488V20.4627C40.2069 20.6362 40.2758 20.8026 40.3985 20.9252C40.5212 21.0479 40.6875 21.1168 40.861 21.1168C41.0345 21.1168 41.2008 21.0479 41.3235 20.9252C41.4461 20.8026 41.5151 20.6362 41.5151 20.4627V17.6488C41.5151 17.2894 41.224 16.9948 40.861 16.9948ZM39.5529 16.9948C39.1899 16.9948 38.8988 17.2894 38.8988 17.6488V20.4627C38.8988 20.6362 38.9677 20.8026 39.0904 20.9252C39.213 21.0479 39.3794 21.1168 39.5529 21.1168C39.7263 21.1168 39.8927 21.0479 40.0154 20.9252C40.138 20.8026 40.2069 20.6362 40.2069 20.4627V17.6488C40.2069 17.2894 39.9158 16.9948 39.5529 16.9948Z" fill="#FBC11B"/>
<path d="M39.9699 16.9948C39.6069 16.9948 39.3158 17.2894 39.3158 17.6488V20.4627C39.3158 20.6362 39.3847 20.8026 39.5074 20.9252C39.63 21.0479 39.7964 21.1168 39.9699 21.1168C40.1433 21.1168 40.3097 21.0479 40.4324 20.9252C40.555 20.8026 40.6239 20.6362 40.6239 20.4627V17.6488C40.6239 17.2894 40.3328 16.9948 39.9699 16.9948Z" fill="#E49500"/>
<path d="M40.4689 16.9948C40.1059 16.9948 39.8148 17.2894 39.8148 17.6488V20.4627C39.8148 20.8257 40.1095 21.1168 40.4689 21.1168C40.8283 21.1168 41.1229 20.8221 41.1229 20.4627V17.6488C41.1229 17.2894 40.8319 16.9948 40.4689 16.9948Z" fill="#E49500"/>
<path d="M40.207 16.9948C39.8441 16.9948 39.553 17.2894 39.553 17.6488V21.0701C39.553 21.2435 39.6219 21.4099 39.7445 21.5326C39.8672 21.6552 40.0336 21.7241 40.207 21.7241C40.3805 21.7241 40.5469 21.6552 40.6695 21.5326C40.7922 21.4099 40.8611 21.2435 40.8611 21.0701V17.6488C40.8611 17.2894 40.57 16.9948 40.207 16.9948Z" fill="#FBC11B"/>
<path d="M40.207 17.5489C40.6158 17.5489 40.9473 17.2174 40.9473 16.8086C40.9473 16.3997 40.6158 16.0682 40.207 16.0682C39.7981 16.0682 39.4667 16.3997 39.4667 16.8086C39.4667 17.2174 39.7981 17.5489 40.207 17.5489Z" fill="#E49500"/>
<path d="M40.207 17.3579C40.6158 17.3579 40.9473 17.0265 40.9473 16.6176C40.9473 16.2088 40.6158 15.8773 40.207 15.8773C39.7981 15.8773 39.4667 16.2088 39.4667 16.6176C39.4667 17.0265 39.7981 17.3579 40.207 17.3579Z" fill="#FBC11B"/>
<path d="M39.8836 3.89581V16.456H39.8908C39.9052 16.6213 40.0417 16.7542 40.2106 16.7542C40.3795 16.7542 40.5161 16.6249 40.5305 16.456H40.5377V3.89581H39.8836Z" fill="#262626"/>
</g>
<defs>
<clipPath id="clip0_108_2835">
<rect width="46" height="46" fill="white" transform="translate(0 0.5)"/>
</clipPath>
</defs>
</svg>
