<svg width="23" height="23" viewBox="0 0 23 23" fill="none" xmlns="http://www.w3.org/2000/svg">
<path fill-rule="evenodd" clip-rule="evenodd" d="M13.0834 19.2918V4.396C13.0834 3.72866 13.0815 3.296 13.0394 2.97883C12.999 2.68091 12.934 2.58741 12.8817 2.53516C12.8295 2.48291 12.736 2.41783 12.438 2.3775C12.12 2.33533 11.6882 2.3335 11.0209 2.3335C10.3535 2.3335 9.92087 2.33533 9.60371 2.3775C9.30579 2.41783 9.21229 2.48291 9.16004 2.53516C9.10779 2.58741 9.04271 2.68091 9.00237 2.97883C8.96021 3.29691 8.95837 3.72866 8.95837 4.396V19.2918H13.0834Z" fill="#D9D9D9"/>
<path opacity="0.7" d="M7.58337 8.521C7.58337 8.33866 7.51094 8.16379 7.38201 8.03486C7.25308 7.90593 7.07821 7.8335 6.89587 7.8335H4.14587C3.96354 7.8335 3.78867 7.90593 3.65974 8.03486C3.53081 8.16379 3.45837 8.33866 3.45837 8.521V19.2918H7.58337V8.521ZM18.5834 13.1043C18.5834 12.922 18.5109 12.7471 18.382 12.6182C18.2531 12.4893 18.0782 12.4168 17.8959 12.4168H15.1459C14.9635 12.4168 14.7887 12.4893 14.6597 12.6182C14.5308 12.7471 14.4584 12.922 14.4584 13.1043V19.2918H18.5834V13.1043Z" fill="#D9D9D9"/>
<path opacity="0.5" d="M1.85413 19.2915C1.67179 19.2915 1.49692 19.3639 1.36799 19.4929C1.23906 19.6218 1.16663 19.7967 1.16663 19.979C1.16663 20.1613 1.23906 20.3362 1.36799 20.4651C1.49692 20.5941 1.67179 20.6665 1.85413 20.6665H20.1875C20.3698 20.6665 20.5447 20.5941 20.6736 20.4651C20.8025 20.3362 20.875 20.1613 20.875 19.979C20.875 19.7967 20.8025 19.6218 20.6736 19.4929C20.5447 19.3639 20.3698 19.2915 20.1875 19.2915H1.85413Z" fill="#D9D9D9"/>
</svg>
