<svg width="24" height="21" viewBox="0 0 24 21" fill="none" xmlns="http://www.w3.org/2000/svg">
<path fill-rule="evenodd" clip-rule="evenodd" d="M17.9564 12.8258C18.9196 12.7961 19.3865 12.4234 20.0209 11.9166L20.0213 11.9162C20.8134 11.2828 21.7992 10.4944 23.6667 10.4944V12.8277C22.618 12.8277 22.1641 13.1905 21.4782 13.7388L21.478 13.7389L21.4757 13.7407C20.7881 14.2898 19.9555 14.9547 18.5288 15.1216C18.3206 15.8091 17.8145 16.2944 17.223 16.2944C16.5414 16.2944 15.973 15.6498 15.8436 14.794C15.1448 14.5072 14.6335 14.0984 14.1845 13.7393L14.184 13.7389C13.5225 13.2104 13.043 12.8277 11.993 12.8277C10.9454 12.8277 10.4915 13.1894 9.80671 13.7377C9.01454 14.3724 8.02754 15.1611 6.16087 15.1611C4.29421 15.1611 3.30954 14.3724 2.51737 13.7377L2.51452 13.7355C1.83128 13.1896 1.37842 12.8277 0.333374 12.8277V10.4944C2.19916 10.4944 3.18261 11.2823 3.97459 11.9168L3.97571 11.9177L3.97855 11.92C4.6618 12.4659 5.11466 12.8277 6.16087 12.8277C7.20846 12.8277 7.66029 12.4666 8.34364 11.9204L8.34837 11.9166L8.35032 11.915C9.14215 11.2818 10.1267 10.4944 11.993 10.4944C13.8602 10.4944 14.846 11.2815 15.6389 11.9147L15.6412 11.9166L15.6414 11.9167C16.0414 12.2365 16.3625 12.4931 16.7688 12.6515C16.9113 12.5869 17.0641 12.5519 17.223 12.5519C17.4917 12.5519 17.7428 12.652 17.9564 12.8258ZM15.6414 17.7501C16.3273 18.2983 16.7811 18.6611 17.8299 18.6611C18.8799 18.6611 19.3594 18.2784 20.0209 17.7499L20.0213 17.7495C20.8134 17.1161 21.7992 16.3277 23.6667 16.3277V18.6611C22.618 18.6611 22.1641 19.0238 21.4782 19.5721L21.478 19.5722L21.4757 19.5741C20.6828 20.2073 19.6971 20.9944 17.8299 20.9944C15.9624 20.9944 14.9766 20.206 14.1845 19.5726L14.184 19.5722C13.5225 19.0437 13.043 18.6611 11.993 18.6611C10.9454 18.6611 10.4915 19.0227 9.80671 19.5711C9.01454 20.2057 8.02754 20.9944 6.16087 20.9944C4.29421 20.9944 3.30954 20.2057 2.51737 19.5711L2.51453 19.5688C1.83128 19.0229 1.37842 18.6611 0.333374 18.6611V16.3277C2.19916 16.3277 3.18261 17.1157 3.97459 17.7502L3.97571 17.7511L3.97856 17.7533C4.6618 18.2992 5.11466 18.6611 6.16087 18.6611C7.20845 18.6611 7.66029 18.2999 8.34363 17.7537L8.34837 17.7499L8.35031 17.7484C9.14215 17.1151 10.1267 16.3277 11.993 16.3277C13.8602 16.3277 14.846 17.1149 15.6389 17.7481L15.6412 17.7499L15.6414 17.7501ZM13.288 5.27123L10.8334 2.81657L6.99154 6.6584L5.34187 5.00873L10.0085 0.342068C10.1168 0.233631 10.2454 0.147604 10.3869 0.0889081C10.5284 0.0302122 10.6802 0 10.8334 0C10.9866 0 11.1383 0.0302122 11.2799 0.0889081C11.4214 0.147604 11.55 0.233631 11.6582 0.342068L18.0749 6.75874L18.069 6.76457L20.5144 9.2029C20.3405 9.33007 20.1749 9.46074 20.0209 9.58323C19.3594 10.1117 18.8799 10.4944 17.8299 10.4944C16.7811 10.4944 16.3273 10.1316 15.6414 9.58338L15.6412 9.58323L15.6389 9.58139C14.846 8.94821 13.8602 8.16107 11.993 8.16107C11.5835 8.16107 11.2219 8.20424 10.8882 8.26957L13.288 5.27123Z" fill="#4E50D2"/>
</svg>
