<svg width="46" height="46" viewBox="0 0 46 46" fill="none" xmlns="http://www.w3.org/2000/svg">
<g clip-path="url(#clip0_108_2861)">
<path d="M0.898438 0.898438H45.1016V31.2045H0.898438V0.898438Z" fill="#26A69A"/>
<path d="M44.2031 1.79687V30.3061H1.79688V1.79687H44.2031ZM46 0H0V32.103H46V0Z" fill="#5D4037"/>
<path d="M2.875 42.4175V46.0005H34.1909V42.4175C34.1909 36.9658 26.5039 34.1986 18.6516 34.2094C10.8495 34.2166 2.875 36.6424 2.875 42.4175Z" fill="#546E7A"/>
<path d="M16.0959 37.8103H21.0014L18.493 48.3544L16.0959 37.8103Z" fill="#455A64"/>
<path d="M18.5148 32.4084H15.2517V35.8548C15.2517 37.4145 16.5814 38.6795 18.2201 38.6795H18.8131C20.4519 38.6795 21.7816 37.4145 21.7816 35.8548V32.4084H18.5148Z" fill="#E49500"/>
<path d="M30.1013 18.7378C30.1013 18.7378 32.218 19.1044 32.218 21.3864C32.218 23.3989 30.6727 24.1931 29.1274 24.1931V18.7378H30.1013ZM7.00063 18.7378C7.00063 18.7378 4.88391 19.1044 4.88391 21.3864C4.88391 23.3989 6.42922 24.1931 7.97454 24.1931V18.7378H7.00063Z" fill="#E39400"/>
<path d="M18.551 3.79859C9.42287 3.79859 7.03662 10.8747 7.03662 20.815C7.03662 31.1219 13.6599 33.7884 18.551 33.7884C23.3702 33.7884 30.0654 31.2009 30.0654 20.815C30.0654 10.8747 27.6755 3.79859 18.551 3.79859Z" fill="#FAC01B"/>
<path d="M14.756 21.7381C14.756 22.766 14.0696 23.5961 13.2179 23.5961C12.3697 23.5961 11.6761 22.7624 11.6761 21.7381C11.6761 20.7103 12.3661 19.8766 13.2179 19.8766C14.0696 19.8766 14.756 20.7067 14.756 21.7381ZM22.3388 21.7381C22.3388 22.766 23.0252 23.5961 23.8805 23.5961C24.7286 23.5961 25.4186 22.7624 25.4186 21.7381C25.4186 20.7103 24.7286 19.8766 23.8805 19.8766C23.0288 19.8766 22.3388 20.7067 22.3388 21.7381Z" fill="#444444"/>
<path d="M21.882 28.0173H15.2192C14.8383 28.0173 14.673 28.2725 14.9245 28.6606C15.2767 29.1997 16.592 30.2347 18.5506 30.2347C20.5092 30.2347 21.8245 29.1997 22.1767 28.6606C22.4283 28.2725 22.263 28.0173 21.882 28.0173Z" fill="#513F35"/>
<path d="M20.1609 25.1851C19.5931 25.3468 19.0037 25.4223 18.5509 25.4223C18.0981 25.4223 17.5087 25.3432 16.9409 25.1851C16.7001 25.1168 16.6031 25.3468 16.6893 25.4977C16.869 25.814 17.5949 26.4537 18.5509 26.4537C19.5068 26.4537 20.2327 25.814 20.4124 25.4977C20.4987 25.3432 20.4016 25.1132 20.1609 25.1851Z" fill="#E39400"/>
<path d="M18.8236 2.50046C18.8236 2.50046 18.6439 2.49327 18.5684 2.49687C18.493 2.49687 18.3133 2.50046 18.3133 2.50046C8.46282 2.69093 5.49438 8.61702 5.49438 12.7247C5.49438 16.7173 5.49798 19.6534 5.49798 19.6534C5.49798 19.6534 5.6561 19.4917 5.9436 19.2653C6.25267 19.0245 6.59407 18.8916 6.59407 18.8916L7.09001 22.2266L10.3711 15.3697C10.3927 15.3266 10.4358 15.3014 10.4825 15.3086L12.4267 15.5242C14.3817 15.7398 16.3475 15.8476 18.3097 15.8512V15.8548C18.3959 15.8548 18.4786 15.8512 18.5649 15.8512C18.6511 15.8512 18.7338 15.8548 18.82 15.8548V15.8476C20.7822 15.8405 22.748 15.7362 24.703 15.5206L26.6472 15.305C26.6939 15.3014 26.737 15.3266 26.7586 15.3661L30.0397 22.223L30.5356 18.888C30.5356 18.888 30.877 19.0245 31.1861 19.2617C31.4772 19.4881 31.6317 19.6498 31.6317 19.6498C31.6317 19.6498 31.6353 16.7173 31.6353 12.7211C31.6425 8.61702 28.6741 2.69093 18.8236 2.50046Z" fill="#6D4C41"/>
<path d="M14.7591 21.8001C14.7591 22.8208 14.0763 23.6509 13.2281 23.6509C12.3836 23.6509 11.6936 22.8244 11.6936 21.8001C11.6936 20.7759 12.38 19.9494 13.2281 19.9494C14.0763 19.9494 14.7591 20.7759 14.7591 21.8001ZM22.3059 21.8001C22.3059 22.8208 22.9888 23.6509 23.8405 23.6509C24.685 23.6509 25.3714 22.8244 25.3714 21.8001C25.3714 20.7759 24.685 19.9494 23.8405 19.9494C22.9888 19.9494 22.3059 20.7759 22.3059 21.8001Z" fill="#444444"/>
<path d="M11.3021 41.1448L14.1088 38.9239L10.7631 37.5942L15.2121 34.0759L18.4932 48.3539L11.3021 41.1448ZM22.9351 38.8808L25.7993 41.1448L18.4932 48.3539L21.8893 34.0759L26.3384 37.5942L22.9351 38.8808Z" fill="#E0E0E0"/>
<path d="M14.5764 18.3901H10.3178C10.1956 18.3901 10.0735 18.4009 9.95486 18.4153C10.2352 18.462 10.476 18.6129 10.6341 18.8214H14.5728C15.8127 18.8214 16.8225 19.7557 16.8225 20.9057V22.9506C16.8225 24.1006 15.8127 25.035 14.5728 25.035H10.3178C9.07798 25.035 8.06814 24.1006 8.06814 22.9506V21.1932H7.75189C7.70158 21.1932 7.65126 21.1861 7.60095 21.1789V22.9506C7.60095 24.3378 8.81923 25.4662 10.3142 25.4662H14.5728C16.0678 25.4662 17.2861 24.3378 17.2861 22.9506V20.9057C17.2897 19.5186 16.0714 18.3901 14.5764 18.3901Z" fill="#231F20" stroke="#231F20" stroke-width="0.176617" stroke-miterlimit="10"/>
<path d="M9.95475 18.4148C9.89006 18.404 9.82537 18.3969 9.76068 18.3969H7.75178C7.1624 18.3969 6.67725 18.8425 6.67725 19.3923V20.2009C6.67725 20.7005 7.07975 21.1137 7.60084 21.182V20.9089C7.60084 19.6331 8.62865 18.5801 9.95475 18.4148Z" fill="black"/>
<path d="M8.06796 21.1919V20.9044C8.06796 19.7544 9.07781 18.82 10.3177 18.82H10.6375C10.4794 18.6116 10.2386 18.4606 9.95828 18.4139C8.63218 18.5792 7.60437 19.6322 7.60437 20.9044V21.1775C7.65468 21.1847 7.7014 21.1919 7.75531 21.1919H8.06796Z" fill="black" stroke="black" stroke-width="0.176617" stroke-miterlimit="10"/>
<path d="M22.3533 18.3901H26.6119C26.7341 18.3901 26.8563 18.4009 26.9749 18.4153C26.6945 18.462 26.4538 18.6129 26.2956 18.8214H22.3533C21.1135 18.8214 20.1036 19.7557 20.1036 20.9057V22.9506C20.1036 24.1006 21.1135 25.035 22.3533 25.035H26.6119C27.8517 25.035 28.8616 24.1006 28.8616 22.9506V21.1932H29.1778C29.2281 21.1932 29.2785 21.1861 29.3288 21.1789V22.9506C29.3288 24.3378 28.1105 25.4662 26.6155 25.4662H22.3533C20.8583 25.4662 19.64 24.3378 19.64 22.9506V20.9057C19.64 19.5186 20.8547 18.3901 22.3533 18.3901Z" fill="#231F20" stroke="#231F20" stroke-width="0.176617" stroke-miterlimit="10"/>
<path d="M26.9749 18.4148C27.0396 18.404 27.1043 18.3969 27.169 18.3969H29.1779C29.7673 18.3969 30.2524 18.8425 30.2524 19.3923V20.2009C30.2524 20.7005 29.8499 21.1137 29.3288 21.182V20.9089C29.3252 19.6331 28.301 18.5801 26.9749 18.4148Z" fill="black"/>
<path d="M28.8614 21.1919V20.9044C28.8614 19.7544 27.8516 18.82 26.6117 18.82H26.2919C26.45 18.6116 26.6908 18.4606 26.9711 18.4139C28.2972 18.5792 29.325 19.6322 29.325 20.9044V21.1775C29.2747 21.1847 29.228 21.1919 29.1741 21.1919H28.8614Z" fill="black" stroke="black" stroke-width="0.176617" stroke-miterlimit="10"/>
<path d="M19.8984 21.1919H16.9659L16.5706 19.3052H20.3296L19.8984 21.1919Z" fill="#231F20"/>
<path d="M38.0398 41.7419L36.8683 41.5154L42.0253 17.139H42.4745L38.0398 41.7419Z" fill="#F15A29"/>
<path d="M36.5379 38.7045C37.077 38.8375 37.422 39.2185 37.6627 39.6928C38.2629 39.585 39.2979 39.4772 39.5998 39.4844C39.9555 39.4952 40.4263 39.5347 40.5054 40.2642C40.5557 40.7386 40.376 41.1303 39.7687 41.1878C39.5423 41.2094 39.3087 41.2238 39.0787 41.2345L39.1613 41.5005C39.3734 41.4969 39.5638 41.4897 39.7112 41.4897C40.3257 41.4825 40.6743 41.8095 40.6743 42.46C40.6743 43.0314 40.182 43.301 39.8226 43.3225C39.6321 43.3333 39.1002 43.3045 38.5755 43.2542L38.5216 43.3656L38.5001 43.398C38.8307 43.4483 39.147 43.5022 39.3698 43.5417C39.9699 43.6495 40.2574 44.0485 40.1891 44.5228C40.1065 45.0978 39.5926 45.256 39.2368 45.2452C38.9709 45.238 38.0365 45.0906 37.4112 44.9577L37.289 45.1338C37.3321 45.1409 37.3788 45.1481 37.4291 45.1553C37.4363 45.1553 37.4435 45.1589 37.4543 45.1589L37.5801 45.1805C37.5909 45.1805 37.598 45.1841 37.6088 45.1841C37.6591 45.1913 37.7095 45.202 37.7598 45.2092H37.767C37.8209 45.2164 37.8748 45.2272 37.9287 45.238C37.9395 45.238 37.9502 45.2416 37.9574 45.2416L38.0832 45.2631C38.1012 45.2667 38.1155 45.2703 38.1335 45.2703C38.1695 45.2775 38.2054 45.2847 38.2377 45.2883L38.2916 45.2991C38.3276 45.3063 38.3599 45.3135 38.3923 45.317L38.4426 45.3278C38.4893 45.3386 38.5396 45.3458 38.5827 45.3566C39.1326 45.4716 39.341 45.7195 39.2727 46.1544C39.1793 46.7653 38.5648 46.9019 38.2377 46.8695C37.9107 46.8408 36.811 46.6144 36.4516 46.4563L36.387 46.4239L36.2612 46.6036C34.644 46.4958 33.4832 45.8202 33.4832 45.8202C32.5345 45.2883 32.3763 44.8786 32.2182 44.2281C32.0385 43.4878 32.0816 42.611 32.0888 42.4744C32.1463 41.001 32.4734 40.0486 33.6629 39.258C33.9504 39.0675 34.3709 38.7333 35.3016 38.6255C35.6646 38.5895 36.1785 38.6183 36.5379 38.7045Z" fill="#FBC11B"/>
<path d="M37.8856 41.152C37.8856 41.152 37.9 40.4117 37.6664 39.693L37.9251 39.6463C37.9251 39.6463 38.1084 40.1566 38.1731 40.9113C38.1839 41.0334 38.1875 41.1448 38.1875 41.2527L38.4175 41.2383L39.9592 41.152C39.9592 41.152 39.8442 41.1736 39.8442 41.3461C39.8442 41.418 39.8873 41.4647 39.9197 41.4934C39.855 41.4863 39.7831 41.4791 39.7112 41.4827L38.1803 41.5222C38.1767 41.5653 38.1767 41.6084 38.1731 41.6552C38.1371 42.2805 37.9898 42.8806 37.6412 43.1106C38.7984 43.2472 39.8262 43.3155 39.8262 43.3155C39.625 43.3981 39.7112 43.6425 39.7112 43.6425C38.9314 43.4305 37.0411 43.3191 37.0411 43.3191C36.2432 43.2508 36.1354 43.7898 36.1354 43.7898C35.9881 44.4403 36.6961 44.7386 36.6961 44.7386C36.7895 44.7925 37.634 44.9614 38.2378 45.0764L38.8415 45.1878L39.0104 45.2202C38.9925 45.2166 38.9206 45.213 38.8918 45.3316C38.8775 45.3891 38.8918 45.4286 38.9026 45.4538C38.8128 45.4142 38.705 45.3783 38.5792 45.3531C38.2953 45.2956 37.4364 45.1555 37.3717 45.1447L37.1561 45.1159C36.4445 45.0225 36.272 45.1483 36.272 45.1483C35.8767 45.3567 35.9917 45.8598 35.9917 45.8598C36.0779 46.345 36.6134 46.4959 36.6134 46.4959C36.8182 46.557 37.9036 46.8194 37.9036 46.8194L36.2612 46.6037C36.1462 46.5678 36.1031 46.5139 36.0384 46.4636C35.4598 45.9892 35.7042 45.3459 35.7042 45.3459C35.794 45.098 35.9809 44.9866 35.9809 44.9866C36.0923 44.9183 36.2217 44.8823 36.3547 44.868C35.6826 44.5122 35.7904 43.7934 35.7904 43.7934C35.8767 43.3514 36.1965 43.1645 36.4481 43.0855C36.4265 43.0675 36.4014 43.0495 36.3798 43.028C36.3798 43.028 35.9486 42.7441 36.1067 41.5258C36.1606 41.1161 36.1534 41.0586 36.1103 40.7998C36.1103 40.7998 35.9557 40.2464 35.4957 40.4225C35.4957 40.4225 35.3412 40.462 35.1004 40.6525C35.1004 40.6525 34.9064 40.8034 34.91 40.5663C34.91 40.4944 34.9603 40.365 35.0573 40.2536C35.0573 40.2536 35.1579 40.135 35.4059 40.0667C35.4059 40.0667 36.0492 39.8116 36.369 40.4548C36.5379 40.7927 36.5056 41.0155 36.4517 41.3605C36.4517 41.3605 36.3511 42.4494 36.635 42.798C36.635 42.798 36.9153 43.1178 37.3645 42.9202C37.3681 42.9273 37.979 42.5931 37.8856 41.152Z" fill="#E49500"/>
</g>
<defs>
<clipPath id="clip0_108_2861">
<rect width="46" height="46" fill="white"/>
</clipPath>
</defs>
</svg>
