<svg width="18" height="19" viewBox="0 0 18 19" fill="none" xmlns="http://www.w3.org/2000/svg">
<g clip-path="url(#clip0_907_9867)">
<path d="M15.375 12.5H14.25V11H12V12.5H10.125V7.8095C11.6423 7.3295 12.75 5.927 12.75 4.25C12.75 2.17925 11.0708 0.5 9 0.5C6.92925 0.5 5.25 2.17925 5.25 4.25C5.25 5.92625 6.35775 7.32875 7.875 7.8095V12.5H2.625C1.1775 12.5 0 13.6775 0 15.125V18.5H18V15.125C18 13.6775 16.8225 12.5 15.375 12.5ZM9 2.75C9.82725 2.75 10.5 3.42275 10.5 4.25C10.5 5.07725 9.82725 5.75 9 5.75C8.17275 5.75 7.5 5.07725 7.5 4.25C7.5 3.42275 8.17275 2.75 9 2.75ZM15.75 16.25H2.25V15.125C2.25 14.918 2.41875 14.75 2.625 14.75H15.375C15.5813 14.75 15.75 14.918 15.75 15.125V16.25Z" fill="#4E50D2"/>
</g>
<defs>
<clipPath id="clip0_907_9867">
<rect width="18" height="18" fill="white" transform="translate(0 0.5)"/>
</clipPath>
</defs>
</svg>
