<svg width="17" height="17" viewBox="0 0 17 17" fill="none" xmlns="http://www.w3.org/2000/svg">
<path d="M8.5 0.166504C9.60507 0.166504 10.6649 0.605491 11.4463 1.38689C12.2277 2.16829 12.6667 3.2281 12.6667 4.33317C12.6667 5.43824 12.2277 6.49805 11.4463 7.27945C10.6649 8.06085 9.60507 8.49984 8.5 8.49984C7.39493 8.49984 6.33512 8.06085 5.55372 7.27945C4.77232 6.49805 4.33333 5.43824 4.33333 4.33317C4.33333 3.2281 4.77232 2.16829 5.55372 1.38689C6.33512 0.605491 7.39493 0.166504 8.5 0.166504ZM8.5 2.24984C7.94747 2.24984 7.41756 2.46933 7.02686 2.86003C6.63616 3.25073 6.41667 3.78064 6.41667 4.33317C6.41667 4.8857 6.63616 5.41561 7.02686 5.80631C7.41756 6.19701 7.94747 6.4165 8.5 6.4165C9.05254 6.4165 9.58244 6.19701 9.97314 5.80631C10.3638 5.41561 10.5833 4.8857 10.5833 4.33317C10.5833 3.78064 10.3638 3.25073 9.97314 2.86003C9.58244 2.46933 9.05254 2.24984 8.5 2.24984ZM8.5 9.5415C11.2813 9.5415 16.8333 10.9269 16.8333 13.7082V16.8332H0.166668V13.7082C0.166668 10.9269 5.71875 9.5415 8.5 9.5415ZM8.5 11.5207C5.40625 11.5207 2.14583 13.0415 2.14583 13.7082V14.854H14.8542V13.7082C14.8542 13.0415 11.5938 11.5207 8.5 11.5207Z" fill="#4E50D2"/>
</svg>
