<svg width="241" height="157" viewBox="0 0 241 157" fill="none" xmlns="http://www.w3.org/2000/svg">
<path d="M13.9775 0.674785C14.7368 0.670665 15.4961 0.666546 16.2784 0.662301C17.1223 0.660904 17.9662 0.65957 18.8102 0.658291C19.7057 0.654659 20.6012 0.650756 21.4967 0.646605C23.9607 0.636004 26.4248 0.629364 28.8888 0.623386C31.5451 0.616276 34.2014 0.605576 36.8576 0.595386C42.6673 0.573824 48.477 0.557028 54.2868 0.541254C57.9139 0.531398 61.5409 0.520611 65.168 0.509656C75.2089 0.479504 85.2497 0.450546 95.2905 0.425947C95.9333 0.42437 96.576 0.422794 97.2382 0.42117C97.8824 0.41959 98.5267 0.418011 99.1905 0.416384C100.496 0.413184 101.802 0.409981 103.107 0.406776C103.755 0.405188 104.402 0.403599 105.069 0.401962C115.564 0.375992 126.058 0.34151 136.552 0.303353C147.324 0.264307 158.097 0.232346 168.869 0.207507C174.918 0.193394 180.967 0.176229 187.016 0.151259C192.167 0.130031 197.317 0.115273 202.468 0.108956C205.096 0.105539 207.724 0.0990655 210.352 0.0843468C212.758 0.0709407 215.165 0.0662958 217.572 0.0685635C218.441 0.0678523 219.311 0.0639585 220.181 0.0565215C230.095 -0.0242916 230.095 -0.0242916 233.931 3.21722C234.207 3.58138 234.484 3.94553 234.768 4.32072C235.197 4.86449 235.197 4.86449 235.635 5.41924C237.649 8.44759 237.82 10.9374 237.818 14.5652C237.822 15.1248 237.827 15.6845 237.831 16.2611C237.845 18.1401 237.849 20.0191 237.854 21.8983C237.862 23.244 237.87 24.5898 237.879 25.9356C237.9 29.5946 237.914 33.2536 237.925 36.9127C237.933 39.1986 237.942 41.4844 237.951 43.7703C237.984 51.7444 238.01 59.7186 238.03 67.6928C238.049 75.1262 238.084 82.5595 238.127 89.9928C238.162 96.3739 238.186 102.755 238.201 109.136C238.21 112.948 238.224 116.759 238.25 120.57C238.274 124.156 238.284 127.742 238.282 131.328C238.283 132.643 238.291 133.958 238.303 135.273C238.32 137.071 238.317 138.867 238.31 140.665C238.324 141.442 238.324 141.442 238.339 142.235C238.293 146.011 237.226 148.602 234.866 151.52C231.497 154.559 228.892 155.392 224.392 155.408C223.632 155.412 222.873 155.416 222.09 155.42C221.246 155.422 220.401 155.423 219.557 155.424C218.661 155.428 217.765 155.432 216.869 155.436C214.404 155.447 211.939 155.453 209.473 155.459C206.816 155.466 204.158 155.477 201.501 155.487C195.689 155.509 189.876 155.526 184.064 155.541C180.436 155.551 176.807 155.562 173.179 155.573C163.136 155.603 153.092 155.632 143.049 155.657C142.406 155.658 141.763 155.66 141.101 155.661C140.456 155.663 139.812 155.665 139.148 155.666C137.842 155.669 136.536 155.673 135.23 155.676C134.582 155.677 133.935 155.679 133.267 155.681C122.769 155.707 112.27 155.741 101.771 155.779C90.9957 155.818 80.2199 155.85 69.4441 155.875C63.3927 155.889 57.3413 155.906 51.2898 155.931C46.1375 155.953 40.9853 155.967 35.8329 155.974C33.2039 155.977 30.5749 155.984 27.9458 155.998C25.5387 156.012 23.1318 156.016 20.7247 156.014C19.8542 156.015 18.9837 156.019 18.1133 156.026C11.5808 156.079 7.45535 155.602 2.59671 150.779C0.615383 147.594 0.463878 145.016 0.478808 141.366C0.473791 140.805 0.468774 140.245 0.463605 139.667C0.44914 137.792 0.44789 135.917 0.446659 134.041C0.439113 132.695 0.430797 131.349 0.42177 130.003C0.399865 126.35 0.389885 122.696 0.382879 119.042C0.376126 115.991 0.36401 112.94 0.352035 109.889C0.324045 102.691 0.306159 95.493 0.294227 88.2948C0.281717 80.8706 0.250979 73.4466 0.211457 66.0225C0.17823 59.6468 0.156945 53.2711 0.145084 46.8953C0.137842 43.0881 0.125935 39.281 0.102297 35.4738C0.0805341 31.8931 0.0736741 28.3126 0.0782159 24.7318C0.0773853 23.4188 0.0712995 22.1058 0.0595287 20.7929C0.0442705 18.9979 0.0481382 17.2039 0.0567117 15.4089C0.0478215 14.8916 0.038931 14.3743 0.0297714 13.8413C0.077902 10.0687 1.14787 7.47809 3.50501 4.56247C6.87366 1.52405 9.47811 0.690234 13.9775 0.674785Z" fill="#FE6E00"/>
<path d="M13.9774 0.675697C14.7367 0.671577 15.496 0.667457 16.2783 0.663212C17.1222 0.661816 17.9661 0.660481 18.8101 0.659202C19.7056 0.65557 20.6011 0.651667 21.4966 0.647516C23.9606 0.636915 26.4247 0.630276 28.8887 0.624297C31.545 0.617187 34.2013 0.606487 36.8575 0.596297C42.6672 0.574735 48.4769 0.55794 54.2867 0.542166C57.9138 0.532309 61.5408 0.521523 65.1679 0.510567C75.2088 0.480416 85.2496 0.451458 95.2904 0.426858C95.9332 0.425282 96.5759 0.423705 97.2381 0.422081C97.8823 0.420502 98.5266 0.418923 99.1904 0.417296C100.496 0.414095 101.801 0.410892 103.107 0.407688C103.755 0.406099 104.402 0.404511 105.069 0.402874C115.564 0.376904 126.058 0.342421 136.552 0.304264C147.324 0.265218 158.097 0.233257 168.869 0.208418C174.918 0.194305 180.967 0.177141 187.016 0.15217C192.167 0.130943 197.317 0.116185 202.468 0.109867C205.096 0.10645 207.724 0.0999769 210.352 0.0852582C212.758 0.0718522 215.165 0.0672073 217.572 0.069475C218.441 0.0687638 219.311 0.06487 220.181 0.057433C230.095 -0.0233802 230.095 -0.0233802 233.931 3.21813C234.207 3.58229 234.484 3.94644 234.768 4.32163C235.197 4.8654 235.197 4.8654 235.635 5.42015C243.947 17.9175 237.695 35.5745 237.729 50.6768C159.45 50.8519 81.1715 51.0271 0.520608 51.2075C0.427535 9.61215 0.427535 9.61215 3.50491 4.56338C7.08341 1.53926 9.3203 0.691687 13.9774 0.675697Z" fill="#263237"/>
<path d="M13.9774 0.675697C14.7367 0.671577 15.496 0.667457 16.2783 0.663212C17.1222 0.661816 17.9661 0.660481 18.8101 0.659202C19.7056 0.65557 20.6011 0.651667 21.4966 0.647517C23.9606 0.636915 26.4247 0.630276 28.8887 0.624297C31.545 0.617187 34.2013 0.606487 36.8575 0.596297C42.6672 0.574735 48.4769 0.55794 54.2867 0.542166C57.9138 0.532309 61.5408 0.521523 65.1679 0.510567C75.2088 0.480416 85.2496 0.451458 95.2904 0.426858C95.9332 0.425282 96.5759 0.423705 97.2381 0.422081C97.8823 0.420502 98.5266 0.418923 99.1904 0.417296C100.496 0.414095 101.801 0.410892 103.107 0.407688C103.755 0.406099 104.402 0.404511 105.069 0.402874C115.564 0.376904 126.058 0.342421 136.552 0.304264C147.324 0.265218 158.097 0.233257 168.869 0.208418C174.918 0.194305 180.967 0.177141 187.016 0.15217C192.167 0.130943 197.317 0.116185 202.468 0.109867C205.096 0.10645 207.724 0.0999769 210.352 0.0852582C212.758 0.0718522 215.165 0.0672073 217.572 0.069475C218.441 0.0687638 219.311 0.06487 220.181 0.057433C230.095 -0.0233802 230.095 -0.0233802 233.931 3.21813C234.207 3.58229 234.484 3.94644 234.768 4.32163C235.197 4.8654 235.197 4.8654 235.635 5.42015C239.59 11.3672 237.645 13.2755 237.667 22.9465C159.388 23.1217 81.1094 23.2968 0.458559 23.4773C0.427535 9.61216 0.427535 9.61216 3.50491 4.56338C7.08341 1.53926 9.3203 0.691687 13.9774 0.675697Z" fill="#FE6E00"/>
<path d="M25.0928 118.172C87.4712 118.032 149.85 117.893 214.118 117.749C214.126 121.077 214.133 124.404 214.141 127.833C151.762 127.972 89.384 128.112 25.1153 128.256C25.1079 124.928 25.1004 121.6 25.0928 118.172Z" fill="#BB5100"/>
<path d="M25.0493 98.6348C87.4277 98.4952 149.806 98.3556 214.075 98.2118C214.082 101.539 214.09 104.867 214.097 108.296C151.719 108.435 89.3406 108.575 25.0719 108.718C25.0644 105.391 25.057 102.063 25.0493 98.6348Z" fill="#BB5100"/>
<path d="M32.0002 57.2488C68.6933 57.1667 105.387 57.0845 143.192 57C143.199 60.1196 129.993 63.4883 130 66.7025C93.307 66.7846 56.6139 66.8667 18.8088 66.9513C18.8018 63.8317 32.0073 60.4629 32.0002 57.2488Z" fill="#BA5100"/>
<path d="M25.0029 77.8369C45.7957 77.7904 66.5885 77.7439 88.0114 77.6959C88.0189 81.0236 88.0263 84.3512 88.034 87.7797C67.2412 87.8262 46.4484 87.8727 25.0255 87.9206C25.018 84.593 25.0106 81.2654 25.0029 77.8369Z" fill="#BB5100"/>
</svg>
