<svg width="24" height="24" viewBox="0 0 24 24" fill="none" xmlns="http://www.w3.org/2000/svg">
<mask id="mask0_58_1236" style="mask-type:luminance" maskUnits="userSpaceOnUse" x="1" y="1" width="22" height="23">
<path d="M4.5 14.5054C4.8283 14.5054 5.15339 14.4407 5.45671 14.3151C5.76002 14.1894 6.03562 14.0053 6.26777 13.7731C6.49991 13.541 6.68406 13.2654 6.8097 12.9621C6.93534 12.6588 7 12.3337 7 12.0054C7 12.6684 7.26339 13.3043 7.73223 13.7731C8.20107 14.242 8.83696 14.5054 9.5 14.5054C10.163 14.5054 10.7989 14.242 11.2678 13.7731C11.7366 13.3043 12 12.6684 12 12.0054C12 12.6684 12.2634 13.3043 12.7322 13.7731C13.2011 14.242 13.837 14.5054 14.5 14.5054C15.163 14.5054 15.7989 14.242 16.2678 13.7731C16.7366 13.3043 17 12.6684 17 12.0054C17 12.6684 17.2634 13.3043 17.7322 13.7731C18.2011 14.242 18.837 14.5054 19.5 14.5054C20.163 14.5054 20.7989 14.242 21.2678 13.7731C21.7366 13.3043 22 12.6684 22 12.0054C22 17.5284 17.523 22.0054 12 22.0054C6.477 22.0054 2 17.5284 2 12.0054C2 12.6684 2.26339 13.3043 2.73223 13.7731C3.20107 14.242 3.83696 14.5054 4.5 14.5054ZM14 6.50537C14 7.0358 13.7893 7.54451 13.4142 7.91958C13.0391 8.29466 12.5304 8.50537 12 8.50537C11.4696 8.50537 10.9609 8.29466 10.5858 7.91958C10.2107 7.54451 10 7.0358 10 6.50537C10 5.40037 12 2.00537 12 2.00537C12 2.00537 14 5.40037 14 6.50537Z" fill="#555555" stroke="white" stroke-width="2" stroke-linecap="round" stroke-linejoin="round"/>
</mask>
<g mask="url(#mask0_58_1236)">
<path d="M0 0.00537109H24V24.0054H0V0.00537109Z" fill="#4E50D2"/>
</g>
</svg>
