<svg width="50" height="50" viewBox="0 0 50 50" fill="none" xmlns="http://www.w3.org/2000/svg">
<rect width="50" height="50" rx="25" fill="#DCEEF8"/>
<rect x="2.125" y="2.125" width="45.75" height="45.75" rx="22.875" stroke="#48426D" stroke-opacity="0.12" stroke-width="4.25"/>
<path d="M32.4902 17.4669C31.516 16.4832 30.3557 15.7031 29.077 15.1723C27.7982 14.6415 26.4266 14.3705 25.0421 14.3751C19.2409 14.3751 14.5127 19.1032 14.5127 24.9044C14.5127 26.7638 15.0015 28.5701 15.9152 30.1638L14.4277 35.6251L20.0059 34.1588C21.5465 34.9982 23.2784 35.4444 25.0421 35.4444C30.8434 35.4444 35.5715 30.7163 35.5715 24.9151C35.5715 22.0994 34.4771 19.4538 32.4902 17.4669ZM25.0421 33.6594C23.4696 33.6594 21.929 33.2344 20.5796 32.4376L20.2609 32.2463L16.9459 33.1176L17.8277 29.8876L17.6152 29.5582C16.7414 28.1632 16.2775 26.5505 16.2765 24.9044C16.2765 20.0807 20.2077 16.1494 25.0315 16.1494C27.369 16.1494 29.5684 17.0632 31.2152 18.7207C32.0308 19.5323 32.6772 20.4978 33.1167 21.5611C33.5563 22.6244 33.7803 23.7645 33.7759 24.9151C33.7971 29.7388 29.8659 33.6594 25.0421 33.6594ZM29.8446 27.1144C29.579 26.9869 28.2827 26.3494 28.049 26.2538C27.8046 26.1688 27.6346 26.1263 27.454 26.3813C27.2734 26.6469 26.774 27.2419 26.6252 27.4119C26.4765 27.5926 26.3171 27.6138 26.0515 27.4757C25.7859 27.3482 24.9359 27.0613 23.9371 26.1688C23.1509 25.4676 22.6302 24.6069 22.4709 24.3413C22.3221 24.0757 22.4496 23.9376 22.5877 23.7994C22.7046 23.6826 22.8534 23.4913 22.9809 23.3426C23.1084 23.1938 23.1615 23.0769 23.2465 22.9069C23.3315 22.7263 23.289 22.5776 23.2252 22.4501C23.1615 22.3226 22.6302 21.0263 22.4177 20.4951C22.2052 19.9851 21.9821 20.0488 21.8227 20.0382H21.3127C21.1321 20.0382 20.8559 20.1019 20.6115 20.3676C20.3777 20.6332 19.6977 21.2707 19.6977 22.5669C19.6977 23.8632 20.6434 25.1169 20.7709 25.2869C20.8984 25.4676 22.6302 28.1238 25.2652 29.2607C25.8921 29.5369 26.3809 29.6963 26.7634 29.8132C27.3902 30.0151 27.964 29.9832 28.4209 29.9194C28.9309 29.8451 29.9827 29.2819 30.1952 28.6657C30.4184 28.0494 30.4184 27.5288 30.344 27.4119C30.2696 27.2951 30.1102 27.2419 29.8446 27.1144Z" fill="#010535"/>
</svg>
