<svg width="22" height="21" viewBox="0 0 22 21" fill="none" xmlns="http://www.w3.org/2000/svg">
<path d="M5.68451 18.8961L1.00031 20.5L2.64563 15.8572C1.65663 14.3102 1.00031 12.4722 1.00031 10.4998C1.00031 4.99998 5.50028 0.5 11.0001 0.5C16.5 0.5 21 4.99998 21 10.4998C21 15.9997 16.5 20.4997 11.0001 20.4997C9.02806 20.4997 7.23119 19.8851 5.68451 18.8961Z" stroke="#4E50D2" stroke-linecap="round" stroke-linejoin="round"/>
<path d="M6.08012 5.86563C4.98812 6.95764 5.32733 11.044 8.05719 13.7739C10.787 16.5037 14.8734 16.8426 15.9654 15.751L16.4596 15.2568C16.7326 14.9838 16.7326 14.5413 16.4596 14.2684L14.4826 12.2913C14.2096 12.0184 13.7671 12.0184 13.4942 12.2913L13 12.7855C12.4538 13.3314 11.5688 13.3314 11.0229 12.7855L9.04588 10.8084C8.50003 10.2626 8.50003 9.37723 9.04588 8.83138L9.54006 8.33719C9.81299 8.06427 9.81299 7.62174 9.54006 7.34851L7.563 5.37144C7.29007 5.09852 6.84755 5.09852 6.57431 5.37144L6.08012 5.86563Z" stroke="#4E50D2" stroke-linecap="round" stroke-linejoin="round"/>
</svg>
