<svg width="31" height="25" viewBox="0 0 31 25" fill="none" xmlns="http://www.w3.org/2000/svg">
<path d="M30.7534 6.72C22.1717 -2.24164 8.82479 -2.23836 0.246506 6.72C-0.0760881 7.05688 -0.082385 7.62727 0.229552 7.97672L1.88805 9.83446C2.18546 10.1681 2.66402 10.1752 2.97305 9.85524C10.041 2.54461 20.9579 2.54297 28.0273 9.85524C28.3364 10.1752 28.8149 10.1675 29.1123 9.83446L30.7708 7.97672C31.0823 7.62727 31.076 7.05688 30.7534 6.72ZM15.5 17.5C13.7877 17.5 12.4 19.0668 12.4 21C12.4 22.9332 13.7877 24.5 15.5 24.5C17.2122 24.5 18.6 22.9332 18.6 21C18.6 19.0668 17.2122 17.5 15.5 17.5ZM25.3168 12.9287C19.7339 7.35438 11.2597 7.36039 5.68313 12.9287C5.34891 13.2623 5.33825 13.8414 5.65552 14.1947L7.32371 16.0535C7.61433 16.3773 8.08224 16.3991 8.39175 16.0973C12.4581 12.1286 18.551 12.1373 22.6077 16.0973C22.9172 16.3991 23.3851 16.3778 23.6757 16.0535L25.3439 14.1947C25.6617 13.8414 25.6505 13.2617 25.3168 12.9287Z" fill="#4E50D2"/>
</svg>
