<svg width="24" height="24" viewBox="0 0 24 24" fill="none" xmlns="http://www.w3.org/2000/svg">
<path d="M7 3.00537L3 5.00537V19.0054C3 19.5358 3.21071 20.0445 3.58579 20.4196C3.96086 20.7947 4.46957 21.0054 5 21.0054H19C19.5304 21.0054 20.0391 20.7947 20.4142 20.4196C20.7893 20.0445 21 19.5358 21 19.0054V5.00537L17 3.00537V5.00537C17 5.27059 16.8946 5.52494 16.7071 5.71248C16.5196 5.90001 16.2652 6.00537 16 6.00537H10C9.73478 6.00537 9.48043 5.90001 9.29289 5.71248C9.10536 5.52494 9 5.27059 9 5.00537V3.00537H7ZM8 10.0054H16C16.2652 10.0054 16.5196 10.1107 16.7071 10.2983C16.8946 10.4858 17 10.7402 17 11.0054V19.0054H7V11.0054C7 10.7402 7.10536 10.4858 7.29289 10.2983C7.48043 10.1107 7.73478 10.0054 8 10.0054Z" fill="#4E50D2"/>
</svg>
